<mxfile host="65bd71144e">
    <diagram id="WnZQXVcFYX7Wy-MKrias" name="Kalman Filter">
        <mxGraphModel dx="1918" dy="512" grid="0" gridSize="10" guides="1" tooltips="1" connect="1" arrows="1" fold="1" page="1" pageScale="1" pageWidth="850" pageHeight="1100" math="0" shadow="0">
            <root>
                <mxCell id="0"/>
                <mxCell id="1" parent="0"/>
                <mxCell id="3" style="edgeStyle=none;html=1;entryX=0;entryY=0.5;entryDx=0;entryDy=0;" parent="1" source="2" target="8" edge="1">
                    <mxGeometry relative="1" as="geometry">
                        <mxPoint x="520" y="160" as="targetPoint"/>
                    </mxGeometry>
                </mxCell>
                <mxCell id="6" value="Đầu ra" style="edgeLabel;html=1;align=center;verticalAlign=middle;resizable=0;points=[];" parent="3" vertex="1" connectable="0">
                    <mxGeometry x="0.2753" y="-1" relative="1" as="geometry">
                        <mxPoint x="-15" y="-9" as="offset"/>
                    </mxGeometry>
                </mxCell>
                <mxCell id="4" style="edgeStyle=none;html=1;exitX=1;exitY=0.5;exitDx=0;exitDy=0;" parent="1" source="7" target="2" edge="1">
                    <mxGeometry relative="1" as="geometry">
                        <mxPoint x="240" y="160" as="sourcePoint"/>
                    </mxGeometry>
                </mxCell>
                <mxCell id="2" value="Kalman Filter" style="rounded=1;whiteSpace=wrap;html=1;" parent="1" vertex="1">
                    <mxGeometry x="320" y="130" width="140" height="120" as="geometry"/>
                </mxCell>
                <mxCell id="5" value="Đầu vào" style="text;html=1;align=center;verticalAlign=middle;resizable=0;points=[];autosize=1;strokeColor=none;fillColor=none;" parent="1" vertex="1">
                    <mxGeometry x="230" y="170" width="70" height="30" as="geometry"/>
                </mxCell>
                <mxCell id="7" value="Dữ liệu có nhiễu, độ chính xác thấp" style="rounded=1;whiteSpace=wrap;html=1;" parent="1" vertex="1">
                    <mxGeometry x="100" y="160" width="120" height="60" as="geometry"/>
                </mxCell>
                <mxCell id="8" value="Dữ liệu có nhiễu, độ chính xác thấp" style="rounded=1;whiteSpace=wrap;html=1;" parent="1" vertex="1">
                    <mxGeometry x="570" y="160" width="120" height="60" as="geometry"/>
                </mxCell>
                <mxCell id="9" style="edgeStyle=none;html=1;entryX=0;entryY=0.5;entryDx=0;entryDy=0;" parent="1" source="12" edge="1">
                    <mxGeometry relative="1" as="geometry">
                        <mxPoint x="569" y="381" as="targetPoint"/>
                    </mxGeometry>
                </mxCell>
                <mxCell id="10" value="&lt;font style=&quot;font-size: 14px;&quot;&gt;&lt;b&gt;Đầu ra&lt;/b&gt;&lt;/font&gt;" style="edgeLabel;html=1;align=center;verticalAlign=middle;resizable=0;points=[];" parent="9" vertex="1" connectable="0">
                    <mxGeometry x="0.2753" y="-1" relative="1" as="geometry">
                        <mxPoint x="-15" y="-1" as="offset"/>
                    </mxGeometry>
                </mxCell>
                <mxCell id="11" style="edgeStyle=none;html=1;exitX=1;exitY=0.5;exitDx=0;exitDy=0;" parent="1" target="12" edge="1">
                    <mxGeometry relative="1" as="geometry">
                        <mxPoint x="223" y="381" as="sourcePoint"/>
                    </mxGeometry>
                </mxCell>
                <mxCell id="97" value="&lt;b style=&quot;border-color: var(--border-color); font-size: 12px; background-color: rgb(251, 251, 251);&quot;&gt;&lt;font style=&quot;border-color: var(--border-color); font-size: 14px;&quot;&gt;Đầu vào&lt;/font&gt;&lt;/b&gt;" style="edgeLabel;html=1;align=center;verticalAlign=middle;resizable=0;points=[];fontSize=14;" parent="11" vertex="1" connectable="0">
                    <mxGeometry x="-0.3015" relative="1" as="geometry">
                        <mxPoint x="11" as="offset"/>
                    </mxGeometry>
                </mxCell>
                <mxCell id="12" value="&lt;font style=&quot;font-size: 18px;&quot;&gt;&lt;b&gt;kalman_filter&lt;/b&gt;&lt;/font&gt;" style="rounded=1;whiteSpace=wrap;html=1;" parent="1" vertex="1">
                    <mxGeometry x="323" y="321" width="140" height="120" as="geometry"/>
                </mxCell>
                <mxCell id="16" value="matrix_input = [x&lt;sub&gt;ecef&lt;/sub&gt;,y&lt;sub&gt;ecef&lt;/sub&gt;,z&lt;sub&gt;ecef&lt;/sub&gt;]" style="text;html=1;align=center;verticalAlign=middle;resizable=0;points=[];autosize=1;strokeColor=none;fillColor=none;" parent="1" vertex="1">
                    <mxGeometry x="-3" y="467.75" width="185" height="30" as="geometry"/>
                </mxCell>
                <mxCell id="17" value="matrix_output = [x'&lt;sub style=&quot;border-color: var(--border-color);&quot;&gt;ecef&lt;/sub&gt;,y'&lt;sub style=&quot;border-color: var(--border-color);&quot;&gt;ecef&lt;/sub&gt;,z'&lt;sub style=&quot;border-color: var(--border-color);&quot;&gt;ecef&lt;/sub&gt;]" style="text;html=1;align=center;verticalAlign=middle;resizable=0;points=[];autosize=1;strokeColor=none;fillColor=none;" parent="1" vertex="1">
                    <mxGeometry x="576" y="456" width="199" height="30" as="geometry"/>
                </mxCell>
                <mxCell id="20" value="" style="edgeStyle=none;html=1;" parent="1" source="18" target="58" edge="1">
                    <mxGeometry relative="1" as="geometry">
                        <mxPoint x="-151" y="191" as="targetPoint"/>
                    </mxGeometry>
                </mxCell>
                <mxCell id="18" value="Kalman FIlter" style="shape=process;whiteSpace=wrap;html=1;backgroundOutline=1;" parent="1" vertex="1">
                    <mxGeometry x="-211" y="87" width="120" height="60" as="geometry"/>
                </mxCell>
                <mxCell id="24" value="" style="edgeStyle=none;html=1;" parent="1" source="19" target="23" edge="1">
                    <mxGeometry relative="1" as="geometry"/>
                </mxCell>
                <mxCell id="19" value="Predict" style="whiteSpace=wrap;html=1;" parent="1" vertex="1">
                    <mxGeometry x="-211" y="522" width="120" height="60" as="geometry"/>
                </mxCell>
                <mxCell id="26" value="" style="edgeStyle=none;html=1;" parent="1" source="23" target="25" edge="1">
                    <mxGeometry relative="1" as="geometry"/>
                </mxCell>
                <mxCell id="42" style="edgeStyle=none;rounded=0;html=1;exitX=0;exitY=0.5;exitDx=0;exitDy=0;strokeColor=default;endArrow=none;endFill=0;entryX=0.1;entryY=0.5;entryDx=0;entryDy=0;entryPerimeter=0;" parent="1" source="23" target="45" edge="1">
                    <mxGeometry relative="1" as="geometry">
                        <mxPoint x="-282" y="648" as="targetPoint"/>
                    </mxGeometry>
                </mxCell>
                <mxCell id="23" value="Estimate" style="whiteSpace=wrap;html=1;" parent="1" vertex="1">
                    <mxGeometry x="-211" y="617" width="120" height="60" as="geometry"/>
                </mxCell>
                <mxCell id="29" value="" style="edgeStyle=none;html=1;" parent="1" source="25" target="28" edge="1">
                    <mxGeometry relative="1" as="geometry"/>
                </mxCell>
                <mxCell id="25" value="UserKalmanPositon&lt;br&gt;X/Y/Z" style="whiteSpace=wrap;html=1;" parent="1" vertex="1">
                    <mxGeometry x="-211" y="718" width="120" height="60" as="geometry"/>
                </mxCell>
                <mxCell id="28" value="End" style="ellipse;whiteSpace=wrap;html=1;" parent="1" vertex="1">
                    <mxGeometry x="-198.5" y="817" width="95" height="59" as="geometry"/>
                </mxCell>
                <mxCell id="41" value="" style="group" parent="1" vertex="1" connectable="0">
                    <mxGeometry x="-322" y="150.5" width="20" height="129" as="geometry"/>
                </mxCell>
                <mxCell id="38" value="" style="group" parent="41" vertex="1" connectable="0">
                    <mxGeometry width="20" height="129" as="geometry"/>
                </mxCell>
                <mxCell id="31" value="" style="shape=curlyBracket;whiteSpace=wrap;html=1;rounded=1;flipH=1;labelPosition=right;verticalLabelPosition=middle;align=left;verticalAlign=middle;" parent="38" vertex="1">
                    <mxGeometry width="20" height="129" as="geometry"/>
                </mxCell>
                <mxCell id="43" value="" style="group" parent="1" vertex="1" connectable="0">
                    <mxGeometry x="-294" y="603.5" width="20" height="87" as="geometry"/>
                </mxCell>
                <mxCell id="44" value="" style="group" parent="43" vertex="1" connectable="0">
                    <mxGeometry width="20" height="87" as="geometry"/>
                </mxCell>
                <mxCell id="45" value="" style="shape=curlyBracket;whiteSpace=wrap;html=1;rounded=1;flipH=1;labelPosition=right;verticalLabelPosition=middle;align=left;verticalAlign=middle;" parent="44" vertex="1">
                    <mxGeometry width="20" height="87" as="geometry"/>
                </mxCell>
                <mxCell id="46" style="edgeStyle=none;html=1;strokeColor=default;rounded=0;endArrow=none;endFill=0;exitX=0.1;exitY=0.5;exitDx=0;exitDy=0;exitPerimeter=0;" parent="43" source="45" edge="1">
                    <mxGeometry relative="1" as="geometry"/>
                </mxCell>
                <mxCell id="48" value="" style="shape=image;verticalLabelPosition=bottom;labelBackgroundColor=default;verticalAlign=top;aspect=fixed;imageAspect=0;image=data:image/png,iVBORw0KGgoAAAANSUhEUgAAAmMAAAEGCAYAAAApGZIJAAAAAXNSR0IArs4c6QAAAARnQU1BAACxjwv8YQUAAAAJcEhZcwAADsMAAA7DAcdvqGQAAEIKSURBVHhe7b3f611Vfv9//N4PNupVCCGYXChjEWrMiJMEDDTv1OlNIdQfMwyB+aATWwqlMaEamcJkbBPsRUtrokwhF9NEmYBlqJo4oJC3Bs2oKNPBC42ENM2V1tr+Afmex3rv59vXe2Xvc/Y+v/Y+7/fzAevstddee/1er/Xaa629z03X+/SMMcYYY0wr/H/F0RhjjDHGtICVMWOMMcaYFrEyZowxxhjTIlbGjDHGGGNaZHkD/0033ZQcjDHGGGPM9MjfnVyhjOUXjTGmy1huGWPmjTK55WVKY4wxxpgWsTJmjDHGGNMiVsaMMcYYY1rEypgxxhhjTItYGTPGGGOMaRErY8YYY4wxLWJlzBhjjDGmRayMGWOMMca0iJUxY4wxxpgWsTJmjDHGGNMiVsaMMcYYY1rEytgq5aWXXkr/f7Vnz57CZfoQH+bzzz8vXGYP+a2bZ9JJerds2VK4GGPmkSeeeCL15WPHjhUus4e4SUNdkFP4f/vttwsXs5axMjYHqJMPMgijyOHDh9MfkZ47d24mnZ00nj59urd///7ec889V7hOn5hvhBv5rcvFixd7CwsLvc8++6xwMcZ0hVzu6SErf9jioQqzuLjYO3ToUOE6fXjglWwlrU3jRlZdunSpt3379sLFrGWsjM0JR48eTcoVBgUCo3OEUJyNQki88cYbyc71U6dOJfu0efjhh3vPP/98b9OmTTOZHSMO5RPOnj2byqUuV65cSfcYY7oFyhfKjWQchgdM3POHpzNnzqR+jFKDcoNiNAtOnjxZ2Hq9gwcPJhldF5Q45Pbtt99euJi1jpWxOYHOXgVCKHbqbdu2rTg/cOBAYZsOKEUxfYPSOkny2cCm7N27t7AZY7oC2wY2b96cFLCIlC1MJPZj5N4s+jUPvE1m4XPWr1/vGTGzAitjc0Ad5YYZKXHt2rUV0/tRMUOB0R4pXa+zxyouGeR7rAgft3g9xslTIO4ctbcDk8+exTiGKVrEoWn+Mv+EnYeldGAQpqQxpof4Y97itTplZIwZD/olffqxxx4rXFZCn2UrRISZMfVTDPIvght9m7DlB3skygvMIAjrkUceSfYdO3aU+pc8jPJEbsgS8hHlkWQfbhCvYXJZaVYh/aePRLCajrOwsJBMGadPn77ef6oszpb86rwvxFI9c676XlxcTHaOVXBfjA//uAnCO3r0aHG2dJ6Hj8Gd9AH2GAb36x5QGJiqtHE//iLKr9yJjzD6Aj6dc+Rc6QDFrWtAOEqf3GMeTTdQfZnVAX2OOh0kjyL0ySgD1JfVv7Fj8KP+nMuNXCYoDIzuySmTm7qPsAmzTNYgV6IsjX5w54jBTUimmdVDrF+x7FJ20XSTvENHcI8CQh1bbhJ2Ec6jwIhIWMQwCUPx54IDJKikvOg8xhHDAOxR8JWFm4P/XEgRTpmgVfrLBGQufJVe/Io8faYbUE9m9UA/y/veIPCbyy76f5QB6tcily1lsqYs3IhkhOQKSI7EtJMOyUEgfxgheSQD+T1l6TPzTVl9eplylcHSnabOMZpOv3r1ajpCv7MXtm9gM3sZmvJnj4NgSVQb38+fP39DeOyFwO3y5cuFyxIbNmwobEvkG3HjVLz8jjI9H5cGRMx/Ff3+kPImv3GplfzGpWBjTLtoSS+XKyxx9pWc4mwJXirKyWVLPEd+VcnEYUS5AbkcLKOvcCX5A6R948aNyQ68GKVrZvViZWwV0n9aS503Gjp0l+FNKRRJCUS9AZoLNmPM6mXXrl3pyGdnZgWyEeWLvWeAkpcrRMZMGytjqwyEyoULF4qzJRAu+YbVumhGLBeObDgFnjgRXHpKFbjt3LmzOBsOs2kLCwsp/czoHT9+/Ian20lQR7nTk3aeJ+XZGDMd9LISD2dV0A/pm5JN+ad7mIlCljThyJEj6VMayB5WFo4ePTqVB9g68gcZyIpDhPzm8sisLqyMrTIkVGLHRVjxuYtRQHjs378/LXfGaXxNvSM8ER4IMIGwxK2JMOPNxX379q2YzRsmuKQIQv425TAk7MiTPtaIIAYphjFPUGe5wRgzHszs06/VHyN6q5k+inxAaeLBTQ+b9GfOBylzOchKvhkWZc+wN9ilCLKlgbibKErxkxiSW8hX5QEZHvMEyHB/CmOV0294iWA1HUUbOaMp22Sa+5MfNo5G977AW3E+aIN62b2RvvK1fA2/oiwteVigza+5iRtZc2L62Ugb04Bdm2xlFFaMC386z4nhlV037eN6Wb3kcgITN8yLXHZINpXJt9wv4eX+ZOj/g1D6CBcT783DlEzM3SUfJaNFns78uplvqNOcm/jpX0hPIYXVmJnDU2D+sVrgyZGP1taZ3jdrD8stMwmYzc9nw5jtYstHne88GtOEMrnlZUrTOiwtsExQpnCxFGlFzBgzLVj6LPtqP0uR3sRvZoWVMdM6vBzAPoq4RwLyc2OMmTTInrI9p7t37+78W+hm9eBlStMJWBLIN8zz4oC/7WUGYbllJgHfJryUvb3tdmWmRZncsjJmjJlbLLeMMfNGmdzyMqUxxhhjTItYGTPGGGOMaRErY8YYY4wxLWJlzBhjjDGmRayMGWOMMca0iJUxY4wxxpgWsTJmjDHGGNMiVsaMMcYYY1rEypgxxhhjTItYGTPGGGOMaRErY8YYY4wxLbLivymNMcYYY8x0yf+b0n8UboyZWyy3jDHzhv8o3BhjjDGmY1gZM8YYY4xpEStjxhhjjDEtYmXMGGOMMaZFrIwZY4wxxrSIlTFjjDHGmBaxMmaMMcYY0yJWxowxxhhjWqRVZezzzz9PHz/bsmVL4WKMMcYYs7boxBf4X3rppXR8+OGH09EYY+rgL/AbY+aNMrnVmb9DYpbs9ttvL86MMWY4VsaMMfNGmdyayjKllh814zWIY8eOJb/PPfdc4TI53n777RQ2x0nSJH+DGCd9TzzxxETSYIwxxph2aaSMsbcLBaDMoKAAx82bNyd7HV588cXepUuXesePH18OYxKg4OzYsaM4mxyE2yR/VYybvueff7539OjR3vnz5wsXY4xpBz1Uy/CwCK+99lqpuzFmJY2Usc8++6y3uLiY7ByZZtNUGwoKCgZLjShXdaADEyb3EM4kZ8e2b9++nNZJgSCJCtQjjzzS27NnT3HWjEmk7+DBg71NmzYVZ8YY0w4/+tGPCtvSWPDTn/402R988MF0hOhujFnJRJYppVQcOXIkHeuyd+/ewrbEgQMHCls3YTYKpVHK5unTp3tnz55N9rbIy9AYY2bNrbfeWth6vSeffHL5/Msvv0xHiO7GmJVMRBlbv359OjLLlROnr/O9Ubt3714xhR038DPjhNH+LEydKe4Y39WrVwvXb/ZnYbTPSvuuMNw36BMb3CO/Fy9eLFxXEsPDNF121X3KZ4xT+VKYyg9Pmxw5lxt+ZOcY05WnKZZXnfI1Zp5AGaBd33LLLamNq++zfKZtF08//XRy6xq8Xa6+GQ156RrIGfHtb3+7sPV6n3zySWHr9e67777CtgR1kdeL3EZdcTBmXpmIMnbt2rV0zJWZw4cPpyOzSQsLCytmzuhs+I8zTSgGwLVz584l5Q6FDT/MQg3bV8b97EHDP0bxA8uC+fKp9l0BM0xVy6sICJYkFe7JkyeLK9+AwCdt8rN///7lpdu6cB/3CISxZh3vv//+dI2yJj0slyouykbLp/hhtk7n+/bt6+3cuXM57LgUTHkdOnRoOZw33nhjWeA3SbcxXeXMmTO9P/7jP+796le/Suf0XRS0d955p/fee+8ltw8++CAdRwV5pX4zyEi+1YX+SN+mb8YtDcitrnHhwoXCtiRrRXS/++67C9vS3uJ/+7d/6/3iF79I58jqjz/+OMnZr776qrdr167kbsyaod/RE8E6kL5QSH45iv4gv8Ktr9Sk876ik84BO/5EXzm73ldYirOlMOI516N/hRnjjZRdz9MqP30Bl86BdOGGifFH8nvycKrShhv5qCJPH+TlID8YlQfHWLZAPNGP7ovpJtyYnrwO8Ms9xswLddur2nZs/1988UVye+qppwqXbvLRRx9dX7duXUpr3u+7guRPlYnlniM/5PHEiROFqzGrF9p7zsgzY8y86Imvr4ykJ7f4RAQbN24sbEvgTzB7wxOeltPiNVG2bBiXHiNaOszTUJd+WZQ+cWqGaNu2belYhuLWcq3oKzqlS7ejQPkSFk+UlFVetnqSzOPbsGFDYVsivx5nGuV30OyjMfOI3jqOMy6//vWv0zFuPu8azOI98MADabYIecJLO+MwrVk8VjKgrywmWSrTV7CS+6CZrq1bt6bj3/7t3/Yef/zxZDdmrTGyMoZyEDtdUyVIShhLl9y/OSzPmeFcuXKlsC0h5ayJIsXSAEJU95w6dSod/fFds9r4zW9+k4533XVXOqLk0P5PnDgxdnufloJDGgkbRQyFZRJvIvIQHOV2lWmi9LG8KNhOIXAn7RDdI/jRg/jXX3+djsasRSayZ2wUmFk7PcG3ETWrM2iv0yhCV7NdVZv2QXGzPyWCksOetyYMeokAlIc333wzHYWUsyZ5RIFeWFhIijCDBXvyymYojZl33n///XS844470vGZZ55JfXMSMzHTUHDgz/7sz1K6UcSIA2VlmHxog3fffbew9Xp33nlnYVvpXvawjqxm1k+rDh9++GE6GrMWaUUZ00yMFAjOx1UC6OwoFdq4DprpwU1v64CWLIiXDeyAMlIGyg0KCxtLlW4pXbjxtEvcLCEQlpRBjsw6jfK5DjbuCjbgA3lQ2CixhB2ftImbJYIm8NIB4ccBY9xZAmO6zM0337z8H7j5toQXXnghyQFkBX2Lt/ruvffe4upsoW++/PLLaZnv5z//eXJ76qmnlpf0oCvpfeutt9KRtMVPV7zyyivpGNMMyDHSjUxDbkpuIfeQsfE/irGTL+6hTLivq2+/GjMW/QE4EayVsDkcfzLaLB6JG84xbDhlk3h06yteK9wIRxtAscd4sJeFWUX0pzi4X3CvrhO2zocR06Rw4+Z4yPM5CG0ollFYeV7lL+YB8vtjmZSFnW+whVgW0QwqX2O6BO21Dn2FIPnl+Oqrrxau38BmfvoJbZ++jh05VTf8SaJ4y4z6ZlfSG2UIG/Alp6I7JpY5m/Rxiy9OPPTQQ8mN+uGFBSAs7MguuUuWGTPP0NZzOvNH4Wb28ETNEkE+G8YTKDN6niUzXWfScouZmD/4gz9IS4rMxvzlX/7l8n6zLjJv6R0FZsb4NAkrEMwAslz7s5/9rLhqzPxRJrda2zNm2oXlAL65VKZw8RdLVsTMWoSlMm02f/311xvv+Zw185bepuglAO05++Uvf9n77ne/m+zGrCasjK1ReCGBfWdxLx3k58asFfKBn4/BMvDHvZldYt7SOwq8BMCeXcELDbyEwX45Y1YTVsbWKCxvLC4uppcQmDKV4eWGcb9lZMw8wl/3xIH/nnvu6f3gBz+44Zt+XWHe0jsKKJzxG2W8DMDsX/7XSsbMO94zZoyZWyy3jDHzRpnc8syYMcYYY0yLWBkzxhhjjGkRK2PGGGOMMS1iZcwYY4wxpkWsjBljjDHGtIiVMWOMMcaYFrEyZowxxhjTIlbGjDHGGGNaxMqYMcYYY0yLWBkzxhhjjGkRK2PGGGOMMS2y4r8pjTHGGGPMdMn/m9J/FG6MmVsst4wx84b/KNwYY4wxpmNYGTPGGGOMaRErY8YYY4wxLWJlzBhjjDGmRayMGWOMMca0iJUxY4wxxpgWsTJmjDHGGNMiVsaMMcYYY1rEytgqYcuWLelDcp9//nnhYtY6tAeMMcaYbuMv8K8CXnrppXR8+OGH09GYY8eO9e6///7e9u3bC5fVieWWMWbeKJNbnhlbBWzbts2KmFnB3r17V70iZlYnPEhoVjeaW265pfBhJkFZGWNeeOGFwsfa4csvv+w98cQTvT179hQus2eqypg6lWZu6kCBsOQ2S4iTdL799tuFy2gov3XQsuK4cbIsuXnz5trxThrqlri9PNodaFO0iVn3I2MmwZtvvtlbXFzsvfrqq+n8xIkTyb579+50bsYHGfHQQw/1vvjii97WrVt769atSzM12O+7777C19rg448/TkrY8ePHC5eW6FdAIlgrOX36dPI3yCwsLBS+r1/vDwjX+52qOBvO/v37Uxjc1xTuHRXivHTpUnE2GkePHl0ug2FQjvjHxPIaBfJNGRMO4VWBH6VPRv65t8x9GLE9jFt+XWKcttQFqE/qg35EHa1maHtmdfLUU0+l+v3oo48Kl3Jo6/RZ/Jtm9JWxVMZ9xaxwmS/6inqq+3HGH8lLymHc8bguZXKrsTIWByrsUXHSACB73UE9kodZhxhvU1BSJjVgkd865RjLhbibKKwR8h3THuumiqrypRGOUobET55Jy2ogb+PzBm0ptqd5zksd6vQ3yB9Gopxat27dDe5dJH9oktm6dev1V199tfDVTfI0S16Q9jJ34Bp1MwgUNeqsTIbGcGPYg+LM24kM6aAvobx0FY0/Mur7tI0yd9A1lJpZEtMTDW18mPKdQ53RBprel6P4ZwFx5TRWxmLDpVJz4TWu8C8LcxijKhKTpq4yFssQ8vO6lN03LKyy8qX8RlGcYbUpY+Rl3DbcJpNqW/NCnf4m4iAcBbfcmR3o8mAbB1U9hMUBuEwh6Qqa5cLEgT+mP7rXmbHBD0pSVb6bxinUHiQn6UPYcZvVYD0KKjOlPbblKve6s49VcO8o7S7WjWSU3KjTmMY6kH7uy+Ud9aV4cpODW5vKWKM9Y2wSv/3224uzcp5//vnCduP+r7i/iDVa7IP2Oun6oE11hH/u3LlevxKSX+IUMQ5MjvaKycT9W3H/l/Z3NdmDM+ieGC/xDCpTlRnhUG74F9yncDDkd1j9RAiP+w4fPtw7ePBg4XojyovMMPBDOpV2jPYNxrByBsXDNcqNOtL1WBbjorIA9g5gV5oVFya66x6Z2PaAc9IN8lPWlmO+6+whVPvhSFryexQW5rnnnitcza233pqO7JW5++67k506ff/993v9gSCVpfx0nT/8wz9MR17UEBcuXChs3ePmm29Ox/6A2Xv88ceTHb7++ut0zN3fe++9dHzggQfSsYxnnnkmvbxU9aJK0zhzaCeATNV+NcaarhLb7pNPPrl8zuZ0Ed3hjTfeSOWg/jBr+srh8pj1R3/0R+n41Vdf9T755JNkrwvpRz/J5d3Zs2fRekpN5+gnKhGstRk0i8U1wtR1zaDITdo053FWRmEqPfjDPkj7rprtiTMc0pClOevpSHC/tOL45IQ792A41xNpGbpv0D1c07nyVhUm9ytfCiuWVX6v4h6EyqqszMqgTFQuZWkgfty4BtiVDpW/4sJEfzGcQfFwn8LM62jSxHQDcWCIlzi5Tp6VRrVLnSt9hMG50g5lbTnGp+u6rwziln+VfZ6GqjStRshfXfCL0WyIyo/jPKCZA2ZuRJwtG3eZZprQBklj3hblns+AcY577Cs5fSViYN01jRPi7FJc+o2zp10lyo9YbtE9thHsuOXl04Q8rrqoPKOslUynXkdBfaHprBqoLEjXKPc3hbhyll3KLg6DgqwaNCC/ng8eQEOIFYI9TwvngzpdHo8aH4OR0MCkuDSwijwMNYwYBtdxr2LYPaQrb/hcr+oMSrPgfoXFMaYX6gwuKl+ZYR0xrx/ijOeKM+aZ82F+8nCGxZOXU1kdT4I8XigrJ/zkbqp/tW/8cB7hXPWj+pV/yMshh3tjvMQZ4xuWptVGXr5VqL2oLMZdnqmL4hxm6tSPBjDSDgw+DFy4DWozXUD5lPwSZe6xrvL2LORnUP8vCxuq3CEqtwzKhK9+TFl3WeFVX8dEqtwpW7nXaX9ljHJvVHglCzlSvphR06JwoxJdh1gOMmVtY5IQR04r3xlbv359YVuC5Z5If0AsbN9w5cqVwjYcTdfHJTvs/UJfjotluc8++yzZWc6peq01X/a7fPlyYaum6h7SxTR3XEbqd/bldOQQDmUhv0zHazmR17+1BCb0rbFhZUWY/brv9RtcSk8eToRpXpaetTxIeuuwadOmwlaPOvHk5QrXrl0rbN8QlzKrTL6kOIxdu3YVtiWY3s/ToyWjq1evpiPUacvRP2Hm/SHCsozaEEuetAct09RN01okLuHt2LGj9+yzzxZn04V+VscM+yYcS00spwJpp/6/973vpfbQH8hWbA/pGnEZ/dChQyv6oeADxYKyULkgF8r43e9+l45lMgGaxineeeedwtbr3Xbbban/0q/6Clkq/7aW8+rAmCBifsk/MP5F4hLesPY3SbQEDY888khKI0fGr08//XTktGj59T/+4z/SsS5lS5mDtu1MizX90Vc1VgqfzjYL6BB5xVcpY8A1lCYgrZPcJ0WDQ5Cj+BB2GVJsjhw5ktJaplxMgknGE4V5lenC4MVAQrs7efJk4bK0X61qgAGukX7akZSyOPCYcjRQUW4fffRRssO8fOAyDmD0V7VjBpKuf/A5KsJKN+bEiROF61KfbYL2fVUxapwoXkC/1D3IYOTFoH7ZBbSfjfEi5nndunXJPX+gbIr2zEYDPNxEt0F7vEEKL+kifRrftBd3rbIqlbGNGzemY165dCo1SBqMOtysIF3qMJGqWRpmSOgAKE1qtHrKQTAQVpxFkb3sia8KBPni4mKyq3NF6GgobFVPqJNiVvFMCmYT89lUzdIxW1GXAwcOLCtVGJSFQYqiNuzraQ7/KLAwqTStRi5evJiO9H9mN7Q5m/KMG5wnjep1mBmmUGsA4yGla0oB5YecqlIKP/zww3SkrUbeeuutdMzdJ8EoccbZx507d6Zjl6CNMG6VtRU+XCqi/MedDfHQZFwoQ+NQNMD4Ed2GyXApvHopQnVBOuNDx1pjVShjLIlpWQvFBqFABTP1KQUFoYsfTT+imEVFRg1kmpAuhGl8cohpKAPlS50PZU4zRhqw41epeZOEfDd9ysR/nH1TfEqbltU4L1s+HJdZxVMHFBqlZ9BSpso/1iVKEQp+k8GS+mwiyADFVRCX4ptUmlYbcUC666670vGHP/xhOuJ+5syZZJ8GsW4HmWF9VvJp69at6dgVKFveamQrxv/8z/8UritR2u+55550FHIfZcZGb0pWMUqcURG48847C1s3QNl9/fXXK1dR3n333cK2Mu3Rvem4MA2iwqs3ZePSb1wmXnP0BUEiWIfCBjv8R9MfzIurS/SVghuux3PC6A9Ey+fY83v6A/KK8/6gUoS+kugvbv6L4RF+hA2DuoYhbNm///3vr7iWp4Nwc+L9mEH35PmugjAot5gP3CJyx1SVDwyqs7xuMEpvzFesI+z5fS+//PKKc+4tq/d4XiceuWNwz+uO80kRw87rMC/f/LrKE5R+maqw8vzJ5PUsSF8sQ+6PDErTaoQ8DoO3J1Ue8U0plX1ehsBbc9pMrLapjfOzRm96YfI2WEbdtHMdf/hh0zPlwHlV2xsEYakvR2La48bq2IabbrgG3V+2oX7UOCk3XR9WBk3KbpJtiTImnBylnZc8IpJDufukIOyy9FQR+2KsA6WTcox9tEnZjbqBvw1IZ85IypgxZjJUKUtlA5u5kWFyC8GMMMcfRuXNoBndEfoCwc+ATh0wiGFHCW6rTpRGmUGDX5O0MzDinwGQgQ6wDwq/Cu7J46CMCU/pVhnn7qMqCtRf/iA2apz5Q+Owuq5bdpxPsi1xXx5HTLsUl9wdMw0lhXDz9FSBv5gejEDBkpvKs2nZkT/uj8pcV4l5F1bGWkKCwcw/1CP12RSEZT6YCCkNZjDT7EP5wNbWzNgo1E07SkUc3ChPDWZlg6dM3j7xO6qCMSoM2rOOMzKo7HIG1Qdh5OUrk4NfhdMFSOO001O3LdMepMh1nbK6XXYpu2iMmR4Swjm48yRvhjMtucVTeAybJ/N5WP6AJmln5kiKFX7yGaO6tKGMofjEgXrW1C27Sbalrilj06Zu2VEmtIV5kZtlcmtNf9rCmDZhs37/Se6GN+v4e6q1vOG+C7DxuT/wFWe9tOn4jjvumItPYQxLe3xJhw3tesuO7zPxQhAvO+kllrrwKQk2l0/zzdQcvivF25H79u0rfcNw2gwqOzbc60WaSbUlypa3gvWNtbVAnbKj7mkDtIV5lptWxoxpEd6A7D8UrTBdeOtprcNbgvGNu/4TeRps77vvvsKlu9RJO2/coTTwNqnaG2+a8kHZ3/72t40GNZQ73vq+dOlS+lAqisis4E08lKJTp071nn766cJ1+tQpO73JOYm2RJlStsT54x//OJX5WmBY2aGUUfe0gS5/kLcON/WFP1NmqXILqzHGzAWWW8147bXXev/7v//b+Q/Fzjt8FuenP/3pij/lNkaUyS0rY8aYucVyyxgzb5TJLS9TGmOMMca0iJUxY4wxxpgWsTJmjDHGGNMiVsaMMcYYY1rEypgxxhhjTIuMpYzxUbtpfWyPcHnjoI2P+bXBli1b0uvQdaFsjDHGGDP/jKyMoQzw1dv169cnezRSKjiWuQ8DBWzHjh3FWXfhw38xfxi+wEz6OTaBr1fzAdC68IFF4lsryqoxxhizWhlJGWNG7PTp0+nDgXxtmO9lHD16NF3DLqWCI3/3AtF9GHzVeHFxsTjrJiiWmzdvTvkmbzLnz5+fiSJJuaOQEVfTvy4xxhhjTHdorIxpxqfOF5w1E4aSspqgDI4fP54U0oMHDxauS0gBvXLlSuEyPVDIUAbrzjgaY4wxpns0Vsb4E2OWJ4fBEtrOnTsHzoaxTyou8Q0DP/xHF8qQ7pFyGMPKGRQPs3yYuOQ4TLmhDJgVq1JIDxw4UNi+gTBjGuLyouKOS5t107V3797euXPnPDtmjDHGzCmNlDEGfJbGNmzYULjcCMoSigOzYYNmz1A0UJLwR5gw6A9mCRNefPHFtBTIfcxAoRgRDn8Uqhm4GM6geLiGIsN+Lf58FD/MdjHrVaXcoEQRDv6rYMYqzpgRH2ESPgZF7siRI+ka8XAeaZIu4uL+M2fOFC7GGGOMmScaKWMXL15MRzbtV8G/9wMK0DBQJHREobh8+XI6LwOFBFBONNvGzBuKEYqYwioLpyqes2fP9hYWFpIdxQe2bduWjteuXUvHnKtXrxa2G4kzdjIiKlzkQfGRJimJomm6KOtBZWeMMcaY7jLSBv5BaBYHBSMqIzkoHChVzDThL1dIqti0aVNhq0edeMoUxyqla9CsIDOB5B9FCiMFklkyKVWkgRmuOjRJlzHGGGPmk4krY4BSorchUT7KlvykHLFch9ISZ44myaTj4U1PqKtQCdKAIQ16w9QYY4wxppEyNmwJL4LSolkoFKBcIeOTDMygMXM1TaYRjz7jUfctRvaAoYBppmzSMOvWdMbQGGOMMd2gkTKmPVcXLlwoXAaDfxQh4D69LSjFTJ9/4LzuMmUTphUPy44oV8yO1dkbh7IUlVH2uE0K5Ym3Ko0xxhgzh1wvCNaB9JWr6wsLC8XZ9et9RSDdG01fUUnX8Jtf6ytl6Rp+ohthyp7f9w//8A8rzrn36NGjK9wWFxdXnCuNg+LBxGt5GMQxiLK8Y2L5QJ6fmKaXX355xTXibJIu7Hl8xqwV6A/GGDNPlMmtm/jpX1jez1QHlt341tigT1eY2UC9MTOmN0aNWUs0kVvGGNMFyuTWSBv42X/F970GfRfMTBeWJ6lQXpSwImaMMcbMLyO/Tck+KL5txduKZvZs3rw5adZ6u9MYY4wx88lIy5TGGNMFLLeMMfPGxJYpjTHGGGPMZLAyZowxxhjTIlbGjDHGGGNaxMqYMcYYY0yLWBkzxhhjjGkRK2PGGGOMMS1iZcwYY4wxpkWsjBljjDHGtIiVMWOMMcaYFrEyZowxxhjTIlbGjDHGGGNaZMV/UxpjjDHGmOmS/zel/yjcGDO3WG4ZY+YN/1G4McYYY0zHsDJmjDHGGNMiVsaMMcYYY1rEypgxxhhjTItYGTPGGGOMaRErY8YYY4wxLWJlzBhjjDGmRayMGWOMMca0iJUxY4wxxpgWsTJmjDHGGNMiVsaMMauezz//vLdnz570NyQcOZ83VkMejDHlzEQZe/vtt5MA2bJlS+EyXYjniSeeKM6qQZiRLsxa4NixY7XzqjrLy7FJGLBWyrYOlOW0+gBteVb9a9544YUXert37+7t2rWrd+nSpd6f/Mmf9B566KHUlueF1ZAHY8wA+KNwCNZa9AVCuica3I4ePXp9cXGx8LXEwsJCurZ58+brp0+fLlynA3GQlv379xcu1eCHtJI+0h2pcz/3kK+uEtOHXfVUB/Kfl0kTKFe1CYFdacDgh/aQt5c6ZR9ROKPAfTFNmBhWfr1p2gT3cT/tswlN4isr89UO+R0E5UcdfvHFF4XLN+DeV2iKs+6yGvIgkCnI2yaoXcvo/tz91VdfTe7GdB3aa85IypgGFgRBRIpQHFyxx/Mmg8uokI5h8TBgxfTn/uuUB/F0eeDL0yeFrA7j1hPxxLix4xYVPIRq3l7wN4rCkrfFphDnoEGi6QBSBulskjfKZdSBa62wlvK6GhhFGQP6DnVN/5FSqraOW5QhxnSdMrnVeJmSafHjx4/3+o2/9/DDDxeuS3z22We9fkfrXb16tXDp9davX9/bvn17cdbrHThwoLC1T0z/888/v7wHo84SJ+XQVxyKs+4xbvooj1Gh/PpCt3f77bcXLr3exYsX0/HgwYPpCGfPnk3tJVKn7CMsp9Iex6WLS3z79u0rbPWhr/UHrsbluNp5+umn05L5Lbfc0vv4449XuM3DUt+XX365vF/s3nvvTefRjX6wmpFsfuyxx3q33npr76WXXurt2LGj99RTT/Xee++9FWPMIKhr+jplpj5Ce4hla0wrFEpZ7SdM/A16uucJJZ9x4h6Z+ASDP8Wr68NmDuLsDn7L7uGcePXkhIkzMqBwZJRmntqie9lTXJ4nxR/TFt01KySTh4kb96o8MPlMT8xLnt+cOunDrSysGA+GsCKkvaxMhPLKMaK85eHhrjahNOVxV6UplpeM4s3LPE9PzrB85ddIA24xbXneQHnCL9fz8sZd92OUzuiGie033hPdhdK0FqiTT9rJiRMnrvcH7uSfeuBcZaj2Nw3U54aZvH3lkOaPPvro+tatW5N/8sTypO6fFyiPYXktQ/mkrqjHdevWNa43/Ku/xHIjPGbbVLbGTJuydrbsUqcRSsiXDTplSBAJBiJ1xFxICexVnTXeQ1gMXBp0EU6Ca2VxCQ3iGvjwFwfJ3H8ZeRgxbYTHdYWJG9dB90mQ6B78qlzzQVvlrnu4rvsUbk6ePlAaCbus7PJz+VcY5IvzqvoBxVsG8XINo7zk5Hkflqb8Oqi8hMprEORpUL7iNZUDRu6KM9YH+dC5rse85XnlOm6iLE34V14VZsy7qHJfbZDPuqi8GMhHGcy7gNo/6Ud5UD+YF0h/3qaHoXqLhvyPimQGJkJ5YoyZNnnbg0bLlFp+3LRpUzrWoT94FLZeehuIpUxguarfMZO9n450BNzOnTtX+tp2vOeNN95Iy2AY4rhy5UpyF0xFswwG999/fzrmYWoZTW8ojUNM2+HDh9MSqPIKGzduTMdt27alo8pSeadstDS4c+fOFem5cOFCyqOm4rXU2xdSK5b96jKs7DZs2JCOKrdr166lY9myYs758+dX1HmE8ugrG8nOEkOT5ZWqNJVx6tSpXl8RKc56vUcffTQdWdqYBCoHjNoYdcP5iy++mM619KX60fJhTlwe5f6ydi8oK/xreZ0wKeuTJ0+m80hZva517rzzznT86quvem+99Vbtpa0ucdddd6Ujy620PcmwWaO2OAz6eDSHDh1K8j13HyQHkH9A/0DmAXU4an/WlgnCE/S7999/v/dXf/VXhYsxs2Wqn7ZgIJJCQoers7enzmALuRC6fPlyYVuiTEgpTAYzKUEIFATEJMmFPHERJwN0laJSpuDGgTkqZ8pb3JvXhKqyw520kn72U6AwTRoUTuKQICSOQUJ1lDShbD7yyCPLgl73TFs5iUr9m2++mRTsQVAWDKjUM+lkkBoEg1I+kBFfVPpNNb/+9a8LW6/3f//3f4VtutDnY31VGfYs1eHf//3f05F6Z+9UG7DXDtkTZVIV9N1oeGCl7+fugxRj+hLQv/AnGVr2EFKH3/72t+l4zz33pCOw94xPhcR9xMbMkkbKmGZ11DnqIGFDhyubGWgLlDDSxcCtGa1pIYEMdQRYjmZXpLToqNmiSYLCQ1qZndNT6CQgzfHpFyWENgHMJA5ilDQxMxaFPWaUWUQxDYVHShhKG+mLT+pVlA1kVsaGw3e6aEdbt25N57/73e/SUVAXzDbRV2mr2PGfwwZvFCc2fSNDhs0O0eby+iozmmGtgs36pOc3v/lNb926dclNLyKI1157LbUn+pleTih70Gmah5yf/exnM1Va9JCiB/Unn3wyHctWUMg3dYc7eYwvbIgPPvggHX//938/HSkj5PI///M/p3OoE44xk6SRMsYsBQoVnaBqWpnGKyFGI8Y/wqYumu0Z9KQ0LqQPAUS68lmiSUM5MfNGZx9HGUBh1GwPR5SNSZcRQonZS8plVGGbL7FGWD7MGaYIj5Im6pbl0gjtUkuHZdAOqmamuLfOgMUMoxQqwkPRHwRKGPmvq0yx1F2WxjKlgTrQ0vhaRg9CP/7xj3u/+MUvev/v//2/5P7KK6+kvqk2cebMmXRdD5q/+tWvUr1HaIs///nPU31RDxxHebhqCnL0tttuS/G//PLLyzOupIH0Sxa/8847qT390z/9U+9P//RPkz2fDW4rD6OCgim0zLx37950hH/5l38pbEvKKQoWkwa4/+u//muyV82C8jBL+f393/99UoY109g0HGMmQeNlSpZWmCYuW17iPO59oqNHgVY1OMVBEkVj2AA9LqSJtIl8pk+DGP7KBjrQrBRLn6Q/F9xCyqWWSLVfoQmUKwM9ConMMMWkbvoiEtzyq70aTdDsaZmyjlKVlyeKKq+rC5ZrNTjgd1iapEzjjzgpK2baiCu2TwZbPVmXoX14DHwR4qW9l83eMZgpnxyJU/7Yp0Y+Yn65jhvKAWCPy+u5okXe1E4JhzonLTGNZfWqNM1y9qKrfPjhh2kmiYeXBx98MA3klCFljdLyox/9KPnjQek///M/e7/3e7+3XG75g1osT92nJbNpgswgHva5kaY///M/T3n6u7/7u97XX3+9/FDGjBX5feCBB3p33313cssV8kF5oN3QNqvMrKFt/8Vf/EVx9o3iFbdnPPvss8sKG3kmf5QXyqiUKz6vFNHypD4dw2xjXPKtG44xE6U/sCeCtRa8qcU90ewPb4JB7ofrsvcHouU3g3SUvYp4P4Yw4vlCeMtN53kaOM/fzonhcg10jv8q+kIs+SHNZWkT8oeJ/r7//e8v23UtlgWG9OTplSF/gxiWvniusKJbvIcwYj6wV6F8RFTueX3k/mK68rrA5GkCucXyyMssj6eKeI9MrEtBXDLyp/SKPK+kM5Ybacqvyw4xD1XtqaweCAezFlBZTQI+FaGvuFM3ZX1fn8gA6qdr5cxbhvooKm2zrO1OKg+jlD3lGvvppNHnP8QgOTWISYVjTBllfecmfvoX0pNPYZ0ZzNgwMzLreOcNnhB5SotPtaCZn9y9C9Ce+gPBDbMLqwXNTg3b6zNrNJO3VvrUJOUW+4I+/fTTNBNC/TIrw2zZt7/97bQSQDz0tR/+8Idpli3O6I+zBWFSsLzGMiwzPUDZ9JWK3n/913+l9IpJ5IE9bCyd9hW/FbNKbcPeQGbJmSVkpu/IkSPpfzyZEW2SzkmFY0wZZXJrqm9TCgQbkZctqbQJSz+kS8s600RLAPkyXR1Y+i1TuFiKnMYm/kmAIoZSMIuyNUtQ1pQ5ZW+agWxCGdNAy3LlT37yk+X9Sdr4z+cP7rjjjmS/+eab01LhQo0XL2bBJ598suIL8ixlolRERQzGzQOb27/zne8kO0fOu4L2e8G3vvWttBxNHpsqUJMKx5i6eGas42imY//+/ct78QB3FLuuzczksPE97s9bLXRtZoz2gNK+Gst6ELOQW8gplBXtwzLGmHEok1utKWMoEmxoFqt5SWsSUD8RFLS1NvB2BRRMzT65HtqljYfIeYSHh64/uBmzVuiUMmaMMeNiuVUPK2PGdIcyuTWTPWPGGGPagf1P+oyDMaabeGbMGDO3WG4ZY+YNz4wZY4wxxnQMK2PGGGOMMS1iZcwYY4wxpkWsjBljjDHGtIiVMWOMMcaYFrEyZowxxhjTIlbGjDHGGGNaxMqYMcYYY0yLWBkzxhhjjGkRK2PGGGOMMS1iZcwYY4wxpkVW/DelMcYYY4yZLvl/U/qPwo0xc4vlljFm3vAfhRtjjDHGdAwrY8YYY4wxLWJlzBhjjDGmRayMGWOMMca0iJUxY4wxxpgWsTJmjDHGGNMiVsaMMcYYY1rEypgxxhhjTItYGTPGGGOMaRErY8YYY4wxLWJlzBhjjDGmRdakMnbs2LH031BPPPFE4dINtmzZktL19ttvFy7t8tJLL6X0fP7554VLNZQlfinbaUD4lM8gKLey8iP9uGO6Qp38rHWq6tMYY1YbjZQxKQuYPXv2FK7lSOGRmSYIaxSHurz44ou9S5cu9Y4fP15L0ZgFpP+xxx7rHT16tHfkyJHCtT1IzyOPPFKcDYYyxCwuLvYOHTpUuC6B+7gKGooLdTWM7du3pz9f5Rh57rnnUtoWFhampiw2oW5+1jpV9WmGQ/+99957OyPfugJjxcMPP2wF33SPvrBLBOtA+oNa8ovpKzSF643Iz+nTpwuX6bF///7a8fSVncK2BPd2gZgu8kI5tw3pGFbPENOO33iOPS/zUaCeNm/eXJzVh/TEttGV+h41P2YltM86RLkVzbp161JdfPHFF4XP+Yf8lOWJfhjzPuu+UBX/q6++Wupel6bhIhO2bt06cMzoP7ituFeG+wjXmHGgLeWMpIypoVZ1GjoH1/BTV0kaFQnZuvHkisUwRWNWdDFddZWxqrRz5P62lbGcYfmZBaPmx6yE9lUXBlL8q9xpB9hxQ6atBuhrVXlBOSOvKoNZK6BV8Uf3UWTFoHxVuWPHrUqxioqcxpao9HXhYdnML7ShnJGUMQYSKVtlAxuNXANxriTlTxzjDIxSFvLwpKBFxVHxkLboP8I18qX7MZNQJCB2ZOKJxPgwpEGoHGNeMOOUmyAc0hXLMdaX3Ikrxp0jd4zylucJg9uoROVF4eWDjso4R/4xMQ3KH+h6XjejUKfOhuVHbmoLsY6UT4WXlzXncsNP3XqMbTS2wXFQWWCwl7Vtmbr1GRl2PSJl7KmnnipclupB8c87Ks/YxnOU1xMnThQus6UsfuqdGcooe5pSFm5U0sryS3xV/T0qY1LiYnulbRozKrShnGWXsotl0NERYGqYudCmgcfrsYPhHht/2f1NyeOJAxOdHHfs+ONcAl/3qVORLs45yk+dwaAO5FFhAmEq33n6FSfuMS8YCVnC4nwcFCb5VVry+lHZ4aa4OY+CKN6v9MY6z/2PitJGeKC4lC6Vm66DypYjxLKN/uM92GNdNUXpklH68joblh+IZQvRj+pEdSR0Lj9/8zd/k84xugc4j/Wi8hBKG0b3jALhqPyx5/1AaYjphlg/gxh2XcSBOc6GSEF76KGHCpf5BYWDMq6CslUZjFOnoxLj/+ijj5Ib7RtFTOejUJWvsvgiahNls2Mo7FyjfYiooI2TXmNoQzkjv015++239/od6YZN8IcPH+4dOHCgOLuR+AZZXzBPfIMpm337nTDZd+3alTZr9vOZ0gvx2BdcvcuXL6fzzz77LJ2TvrNnzya3+++/Px3HSSP3UkaUi6Dc8jA3bNiQjorz2rVrK/LCURuZFVaTlxZyKBPYvXt37/nnn0/2nTt3phcbck6ePLkcN3WmMhObNm1KR/m5cuVKOk4a0qZ0K66rV6+m48GDB9PLD5EzZ84kN9X53r170xH36F9hAm7nzp0buc6b1Nmg/Axix44d6cg9hBvzTXunjuTnJz/5Sa+v6CT7oHp88803U7sUeomE9OmeUaEtA30sZ+PGjem4bdu2dBxUn+Pw3nvvFbZe7zvf+U6qX16keP/993t9ZaD313/918XV2RNfdBpkhm06f+WVV1J/ruLChQuF7Zv2NksUP+X9rW99K70E9sYbb/Q+/fTT3t13352ujUJVvqJ7Wfi33nprr69s9d55553C5RtIF6g8X3vttd4PfvCDZKefjJNeY8oY69MWUrp4Ww0YaGi8GvxyGPRRdBCECBcGvWkixUYQN2lAqBF/meJRlnYNJqOge9evX5+OoHIA4tOAx+CgQXQQEjiTUHqkSEVyRSSmHeJ1BlgGTuqeMp0mKMs5g8oABYO3OzWY6f5cmYxEZXiSlNVZ0/wIlDzKnXqgDUuhETyEQK78DKpHiOd6OMj9NAV5QJum/Ol3avdAu0d55A3XsrKYJHHAve2221J8DLgMrChkbQ6ulEMdM0yBunjxYml/FvQHQBFvA8X/1VdfpfJH/v/3f/93UorGQeGC+jpGb3YPyi9xf/DBB8XZEl9++WVqE/Dss8+msL73ve+lBwYebPTwaswkGUsZQ5GIs2M8eT/66KPF1RvBDw0bAY1wmbVQkBLGUz/xT3sAqAtKGOliZkqzKvOClLDz58+nMu0azK5oMJNZbcI0V+CknDVRpJhhizOCp06dSseqB6u6UNZq0yhl8ZM4+vwNlD0YTRLNdCCv1A5QVknfuHnsCig5g9DDr5T1Kqgj6mWYafqZGMVPnzxx4kSyk+ZxZvghhhv7OTNwMCy/OXEWVbPXGB4keHgwZhqM/dFXzY5pOnfQ0xt+6DBlyxWzgMGAJ5v4dD5tNBvBU2tEggxBhDJLZ6/b0TVg5jN/s4Z08C0yBtsuKjgMsvGpWaD8VqFlsmGzEE0Zpc6GfRRWSkSeRylnTZQM8svDEQ8oDLS0yUkoSJQ1YdO+aScMnDwUYZi5IA5mVqdJnOnggadr5EpOlaHMRuXjjz8ubMPbIPJRCsgg06Te8vgff/zxZWWJh/hRqcoX7lJOm8pJzaLSF7qoqDNm+IPRq4+xlTEaK0+bCFXti6kCP3GJSE8046DOwgCEsKp6ytJgqIGK80kMNsNQ+aC0KA2gcojpgbjPIRI/BMsAx8A5aYWhKVrKkwJTNlgg0Mgr+Zv1B1d5UKCNxXhpH/mAHK9TT5PaqzSJOtOMDuzbty8deahQWfNwkecRJadpHkgf4cfBdhIDEelX2vRgwlFtRm0of1iZJHGm48477yxs3SGW+SAzrO1IuSnj3XffLWyTf9CoQ4xfdYBcBNpvVKqaUBYujJNf9Tn2k3UJHirop4wZsxi7zIzpd/JEsFbSH1iTP5n+k25y7zeMFW9JYY/+MNAfIFa49TvjiuujonCIV29lyXAuYnzkRenM8zUsnFHIy4QyE9E9ppHyooxllzthjQNxKywMcQ6qGwzpiOWEHWK+sMuP0qhw5X8UysounpPWPL0q3zK/QmmLecc+LsPqrE5+QOHIqE2q34m8rcY8xDRgquox9yczbnmQlxh27EcxHbH+sMdzjOozh2vD4E3JYeEIrvMGHWnjjTnVVdkbd4TbV4BSmSq98bMZs4a0Vr0VqjKIbwfOkrL4Y7un/CJ166EqX/I/LL9cj3VGXFVpKoM3WPFLu6ad0x7K4mzSrurAvWZ+Kau/ZRdXbjfRgJwPwGZ8pCRMmnmsMwaTMkWFAanMvSsMq79cyWQQHATloE8eMNBjpwxypZS61aDKIIude4eFP02qPm2Rl8GoCsCo5PGrX8RPRWDit8Dq1EMMV0px7o6pym/Zpy3ifZhBfZj7pYRR7upD3JdTt13VpSwOMz+U1d+yy1qqXPJaJrTahM5KuvLOiTDAfZBQaBsJoDYHokFUpU9Ce9LMQ51FKJ+quht1sJgV06g/FCsGdwZMoGyqBvRcCWhzZkztfF7a3TCa1MMoIHMnMQ6gXKmfUPZVs3HD8kPdlZmyvom7mV/K6m/sPWPzSD/frb1EUIW+hzbtzczTgL1FpH2WL0Y0oevpaxv2a7FvJ99vWbX/crXDfiM+Y8BnD9inQ9nwbbIcbRLXnqRf/vKXve9+97vJ3ga0875SsGKv4jxTtx5GQfuv/vEf/7FwGR32mOklgddff335ZbacYflBRpUZy621wZpUxuYFBkN9d4zjWh0cpwGCWN8h4k21+HLFOMxjnfEg0H+iTy8vxLf3+FzJPD4cjMtbb721/DmETz75JG3k5oUDPvzJixOUDTC4LoTP8/DG5h133NF74YUXCpfZQ32hlNG+GfDnmUH1MA70dT7fwRvgDz74YOE6GrlCzjfLUMj10grxyD6p/OjlnVFfejAdpa95J4LVGGPmgmnILZautNTH0h9LSywVsbwUl6HyPT+4cy/LUW3DEhzpIf3zyqB6GBXCY1lR4Y4L5RyXEVmmJp24A9e0FDmJ/OCfNi8T4zbzQ5ncuomf/oX0tFdYjTFmLpi13GKWoz8A+u9wzFCYmXzmmWdW3UemzfiUyS0rY8aYucVyyxgzb5TJLe8ZM8YYY4xpEStjxhhjjDEtYmXMGGOMMaZFrIwZY4wxxrSIlTFjjDHGmBYZSxnjg3b6AN08sWXLlvRRxLUOb3Tog4SThnCnFbYxxhizmhhZGWMg37dv3/KXhwVfHOeaDIoPoLh1Bf4KqavffqG8yspP5NdH/XI89zYFxbvuF+X5Evjly5c7Ve/GGGNMFxlJGWOAPX36dPoblQiKAn+pcunSpfQNDQz/28XAz/9wmeGgKFK2sLi4eMN/aHKOO/9BR/ny1yejMMq3mU6dOlXY6oHCq79mMcYYY0w5jZUxzYzkihgKmpSwqCBg18A/qf//W+1s2LChsHUHZsWOHz9enNUHhYz75nE52xhjjJkFjZWxw4cPp+XJCAMtM1/79+8vXG6EmZwI98Tltri/KC7FaZkLRU5uUgi5R27RHbRcyn0KDxRO9BvDxsSlteg/xpcrF4pPJofZIV2b9EyR0kiaSLviwT0SyzzmX+R1onTiV39+rT+TVtj5PWXQLprOqhljjDFrhusFwVoJf26Kv/xPVvmzXNz156jD4H78E1485493BX+Ayh+rRvCnODjGMKJ/XcPgHv3KPaaVc/3hr/wSV/RP2PJDmBiBe0wr9ngdu+5VmDovQ+XBsQzcdb/8yuge4uRcyJ/Ki7LmPE+XygX36D+/DthjvokznguVqTGTxu3KGDNvlMmtRjNjFy9eTMf169eno2CjNtRdXjty5EiaLdFyJi8BcM5ylmZcmIHrKwArZncuXLhww/Kowti1a1fyD/jpKwDJziwe5/28Jr/yk7Nx48Z03LZtWzpevXp1hf/HHnssbUoH4op7uQ4dOpTyJPCr66Qfu+4lzL7S0nvxxRfT+bhQdn1FK9k56oUKyg80A0Y59BWs5fKqeoFBdXj//fen47Vr19KxjJMnTyYjiIPyymcNFWY+U2eMMcaYMT9tMSosaW7atKk4W+LRRx9NRw3+KBWbN2/unTlzJp3nSMECliFRiMqQcjUIwiE8liGJswwpa0JKmhSMqIiieEkZQ4HFb1zKI/9VSuGkkFJ25cqVlEbik4JVBkoa5cB9LE9qWXIQ5AN/yhdLmIAia4wxxph6TEQZ27lzZzoyczVJmGHSDBIzPHv37k12ob1gvLHJrM+oaC8YTENJQsFD0cnNqExL2dG+NupTs23DwF+eLxRbY4wxxtSjkTKmWaZ86YrBF4WjanYKUKa0ZIbffJlOCoZmdADlC+WI+5jh0RIboDigjDH4R/emsKRGuolHS4lNUNy5IkqamZFixoyw8yW6QZv4tQxcpdyeP39+4CwXKD78VaUxQnpZJm6iTFGPeZiUp+pZqG7HqSdjjDFmtdJIGWMwLRuAgdkpYGalTPFAgdAgzz4jFJSokLDHKZ/dIj72V3EtXyYkjrhv68033yxszZCiIAVT++KaQLpR6OJeKfJL+lEuycPu3buLK0vkZRThPvbQ5WECZca9UWkVcd8a/ohX/vLwpDDhhl+UXVC68jqWIoU/KVzEl6eRtybzpWHKgviNMcYYU8L1gmAdCG/G8dZcFf1BN4UVTXwDT+jtvkF+oOpNvPz+GG+eBvyW3cMbg9BXMJfd4r3RHYP/POy+UpnCqIpTUGbxeh2IL96DIZ4c5Sv6L6ujmAalV2UAuhavRz9yi2GrfmTK6hH3vDyMmQS0LWOMmSfK5NZN/PQvpBmtwjoUvmWltxRN+zAzxUb6vsJTOmPWJuzH423brv79lJlvmsgtY4zpAmVya6QN/GfPnk1Lhwy0xlTB8ifLx1bEjDHGmGpGfpuS/VrMeOR7mowBFHU+X4LibowxxphqRlqmNN2BjfT6vhecLvkDd2NWK5Zbxph5o0xuWRkzxswtllvGmHmjTG5N5KOvxhhjjDFmNKyMGWOMMca0iJUxY4wxxpgWsTJmjDHGGNMiVsaMMcYYY1rEypgxxhhjTItYGTPGGGOMaRErY8YYY4wxLWJlzBhjjDGmRayMGWOMMca0yIq/QzLGGGOMMdMl/zukZWXMGGOMMcbMHi9TGmOMMca0iJUxY4wxxpjW6PX+fzSp8/5DWoMJAAAAAElFTkSuQmCC;" parent="1" vertex="1">
                    <mxGeometry x="-489.27" y="605.14" width="195.27" height="83.73" as="geometry"/>
                </mxCell>
                <mxCell id="57" value="&lt;b&gt;kalman_filter&lt;/b&gt;(x_wls, v_wls, cov_x, cov_v)" style="text;html=1;align=center;verticalAlign=middle;resizable=0;points=[];autosize=1;strokeColor=none;fillColor=none;" parent="1" vertex="1">
                    <mxGeometry x="-549" y="102" width="243" height="26" as="geometry"/>
                </mxCell>
                <mxCell id="58" value="Khởi tạo&amp;nbsp;F, H, x, P, I, x_kf, P_kf" style="whiteSpace=wrap;html=1;" parent="1" vertex="1">
                    <mxGeometry x="-211" y="185" width="120" height="60" as="geometry"/>
                </mxCell>
                <mxCell id="60" value="" style="group" parent="1" vertex="1" connectable="0">
                    <mxGeometry x="-316" y="96" width="20" height="27" as="geometry"/>
                </mxCell>
                <mxCell id="51" value="" style="group" parent="60" vertex="1" connectable="0">
                    <mxGeometry width="20" height="27" as="geometry"/>
                </mxCell>
                <mxCell id="52" value="" style="group" parent="51" vertex="1" connectable="0">
                    <mxGeometry x="2" y="7" width="20" height="27" as="geometry"/>
                </mxCell>
                <mxCell id="53" value="" style="shape=curlyBracket;whiteSpace=wrap;html=1;rounded=1;flipH=1;labelPosition=right;verticalLabelPosition=middle;align=left;verticalAlign=middle;" parent="52" vertex="1">
                    <mxGeometry width="20" height="27" as="geometry"/>
                </mxCell>
                <mxCell id="54" style="edgeStyle=none;html=1;strokeColor=default;rounded=0;endArrow=none;endFill=0;exitX=0.1;exitY=0.5;exitDx=0;exitDy=0;exitPerimeter=0;" parent="51" source="53" edge="1">
                    <mxGeometry relative="1" as="geometry"/>
                </mxCell>
                <mxCell id="55" style="edgeStyle=none;html=1;strokeColor=default;rounded=0;endArrow=none;endFill=0;entryX=0;entryY=0.5;entryDx=0;entryDy=0;exitX=0.1;exitY=0.5;exitDx=0;exitDy=0;exitPerimeter=0;" parent="60" source="53" target="18" edge="1">
                    <mxGeometry relative="1" as="geometry">
                        <mxPoint x="32" y="13" as="sourcePoint"/>
                        <mxPoint x="104" y="22.001428571428562" as="targetPoint"/>
                    </mxGeometry>
                </mxCell>
                <mxCell id="61" value="" style="shape=image;verticalLabelPosition=bottom;labelBackgroundColor=default;verticalAlign=top;aspect=fixed;imageAspect=0;image=data:image/png,iVBORw0KGgoAAAANSUhEUgAAAyAAAAG1CAYAAAABRJCxAAAAAXNSR0IArs4c6QAAAARnQU1BAACxjwv8YQUAAAAJcEhZcwAADsMAAA7DAcdvqGQAAJg7SURBVHhe7d0LfFXVvS/6X7dKgBDyIGBADAQTKEhtg2VTqPbwPIFtobal4WhrvcoWcFWpvR/lsWP12DaHR72fKtqouNFP6951E2l1Q7sxFwgeW6HcVNLdImxISgAxhhDyWgQIltM7xphjrjXnXI/MtbLWzIPf18+UNceame+VjP8c/zHWp3Jzc/8GIiIiIiIiD/yd/peIiIiIiCjpGIAQEREREZFnkpuCVZCFycVATWkzOpGKvPV5QMUh1O3V77uQ7puMSbl6xuSvx0G1zn5AnqOlo9AR43khIiIiIuqLktsCMnog0vRLFKSIEOQCLp7W87GQAceaQ9ivpmOowyhMWT8K6fptIiIiIiLqG5KfgtXSmeCWistoKK+HH1nImqWLiIiIiIioT0hOCtasUZhelKVnwoghhUqlYGU6lzfSuVIPHsOh8stGUcg2m3F4TT3a9Jz5MzIFrH74OEyZMliXO5cbgJyS8cgLNN2I3Q1sx3gvu6YOTQV5ahn5Xg1GG+s7VYf9ZR3GD0nOfbK8n1Js3Qcnxz7pNK3ALoWcv/iPrV+lsxERERFRr5fUPiAqeIBR6VYV7oLWmCu7YQMQZ78JOT+vE4cClX9d0Yb154xKeo58Gah06+VagoFBum8cBu06joYaNRsIIhrUtoIVeDmvKvsFYnUtZ3DoSLpYbiDqthg/awQYlywBQOi2lK76gKjtB9crhZ4Tt8cWLpgjIiIiIvJO0lOw/E2f6FeJIirbsjVAVLTrzQp7TbMl+JAuo6XmApA2EAN1SYBshQhUwC/jYov4JzMFKWoeaCuzBB/S3jY0iH9Shw8w5iXrtkUw0rTLum0pFaOmDBZBirX14TIa9jUDuekx9F0RQcSMLPgPnrbtU9uuevjTMpApgh+bqMc2AIMyxT8JT4kjIiIiInIviS0gxhP47BojfcnaGhIL9XOOUbCCKVFB4ZazpyAZrQS2tK1wnOlOmrFN2FoVbK0c1pYKhF+H4YKtNSN6C4ilZSMMo1VGvnJ5bNaUMKZeEREREVEPSEIAEkxTiiRYce6am7QhI/iwV+xDU6BcVNLN4MPWl8P6c7EFIK6G1nURgHQZWLheTrMFWc5+IkREREREyZOEFKzLaCiVw+XWiYq4DAr00Ll+oxVBDqXrNvhwR6cWnTpjT52Khxo2WOxzSEpVjGo6IddgS9uKyye4KM5bWvZ1ej5BZMqaHNJ4C0cTIyIiIiJvJa8PiPreD9N1GJQGdJx18XQ+ZqH9OIyWiUgjTEVx+pKokA/GoNF6XrcsREqBiqwD9QcvIG3KeOR1VbnXwUrOxODZCjL7jeRhcnF3g5kwdMAV13ezEBERERHFIcmd0C/hYndbJVxoK6tDQ5r8csLJmC4mNdpWhai4x6qmGTUicMgpMtYzXQQfqDBab2LVWX4cB23r0pPPGWh0oE62RIggI7ic5UsW99ZjvzgWGczY1lOSFQi43JHBlOXn5eQYXYuIiIiIKNmSOgwvERERERGRVfK/CZ2IiIiIiEhjAEJERERERJ5hAEJERERERJ5hAEJERERERJ5hAEJERERERJ5hAEJERERERJ5hAEJERERERJ5hAEJERERERJ5hAEJERERERJ5hAEJERERERJ75VG5u7t/06x6TU/onLJs+FKjdih8sW61L+7/CzSewcPg+bP7q3WjQZfHZgHsqlyBPz4kTiR2z56Jaz/WEmI7NtxtPLM4H2hJxLogoXum+yZiUWY+Dpc3o1GXxGYCckvHIS9OzuIC6LcfRUKNne0Bsx5aKvPV5yOmB/Y60nynF4zBlymDgVB32l3XoUgoxaxSmF2XpGcGfiPu5t+i5+zKc3ndP9q7z473g792GikOo26uLeym2gPQLq/Ha7LH4gZg272/XZZQ0938HL7y10TY9dr9+z2rmXdhgXe4nc/QbscrH/T+3rOet72CBfof6PvlHfHLxAGNGVp7Wj0K6MedOQRYmr5+M6b5UXWCQFdnpojxvli7w1GU0lB7C/jViqmjWZdTzZAUl9F7pN+RnQQQfsvKl7j059Zvgwzvqd0dJFlL0PPW0/vm57RUBSEPJLaryfDW1fpBF2Vzj+veV1o9XfooH71wVnLafxLhFjiBEBh+PFKJpu7lcBY7nFcURhMjgYxmmnqsIbG973RgsYhDSbwzMHqxfiWBk+EDAfwmX9HxMctMtgUsqsnL1S4pDB+pUBbb3PEXtLD9uVKjZ+hFRSmEG0vz1qO/lT37j17vuy953T/a+z623gg9+envrh8QWEKLueqUCVe3AuM+YwYUIGu4vxNC6Cvz4FV2EPfixCFSQNwP3z9RFLkwouQtTh57E9u/t0SXAzu+JYAZjMLMkX5dQX9dx9rJ+FYfRA1Wlq+5UFrLM1o5Z6Ug9WIc6v54nugpYg3ki6t2S2gck0LcjoB1V627Bzl3GnPP91v2l2FTysp4LCl2PJvuM/PFWPLEY2LENWCj7Eaj+D+9jsuoTYd9eaF8JoG7bWLxWpme69AAWvFmCgsNbUTNpCaamG/tcjofD9mEJ2W9HHwfVTwLmMZiVyTD9N8w+EgGR+3gY22yM8L6x/3K/TbZzPu8XWLl2MmrWPSe2aVkuTN+ckGNzLBP+2BzXw3lcEfsAhV63yMv2BKOVYsLRzVhdWivm5+Cxt4qA7assAQiw4CcbsUgcRHuVuVzX1M+gAg9aAhCVArZojFhRNZ759us4qoupb1G5/lFaKfwHj+FQuYvARKZtzbiEg/sGYsrENuwv+wQ5JaOB8tNA8Xhk11jW48yPRzMOr6lHm55T+4Q67D+SblnOvozBzLUOiphzrLY5MEJOtrOviPO4jfflMdRgtJFvroTZpy5y/8MfmzNX3Hlc4Y5dCj3+uPPgQ66JYNn3QJ69FvG+CLOewDWRqUlLR8Fymm3s166La6vWlYGmLcb9Fbh2YY/feX1dXLdu9CdQ1zhqPx/nsTmvf/B+O3Q2O8p90jV13Qpaxb50YpRlmyHXz3ltHPet8/obwt2XznMdYZ+d2wuc7zD3tIV1v7u+J91/bsMfnxDTfeDic+vqvu3GflvXo89xR8jvRL2ftm1G+bw5r5VD8HPp8toLUfc7huNPhOQFIKpyOcIRAERiVDAzwwQgRkUXlvXoyqhZAbV1YP4Q8yoXIFOcpZoyXYk+a1ZUZeV7CRq+GqyYh667K8EKvAxcdt0gfn6SqMSf3YlNqqJtOV6xXytv2Go5Hsd+C6qSLuvfgcBErx+WQEUGBd/4EJsCle0wy1hEC0AKN/8JOW+EBgCBIEwFIDOQIV4GypzLCMZ+W4MgfWyWACv02HRZ2I7p+pgC18oq2nu9w4SS7+ORqc3YfudPsVMWqPSrfBx95od45R1ZYAYoFTg6ochIp7IGFBE5Axu9rQm12H40H4us26Q+yvjjA/WHJPjLP2wFMxJZgZMBiKropKN5yyXcWCx+B5aeR6Z1ffKP2bxOHHL8sclDsMITCIoClaDQZYyfy8bF0uAfJOOPmvi9Ee6Pnqpghg9A0n3jMGiXpVxXRsP+YQ38oQz9Ix66ffPngn84Q48teoXVWOelMH949bpbrH+44xPuvEXeJ+O4U8MFIBErPE5d7buLa2upFAWuU8h1k/R1slWoRZlPrMt23aznOI5z6wxgHJyVOYSpSIevyDnuHdcDGBjMdUv282T5LIT5bHS1rdBzJoW5N8Ks2zxXtoBBlMnPd/C6xXK8ke5Jy3mM6XMbukyswp8fwdV9626/1fnJtVbK9TJRf28KIddELufmd6len5vPRbjrrrne7y6OP1GSloKVc8MI8f9GNLiq2Ec2cvhQUYk9hOrAelbjkKyLDb/RFjHW7TIrtUORIQKC0IDiZey0BB9SwzuH0CqWzy7QBW6JSvUus9VEBCM1b4SpGJfNdQRT4ffb3iryMqoPt4t1jsBINS+I4woGH1KYZVyqXuYItMreR534J/OGB4x5zdYq5FxGBCm3i8Cibpv1XK7Ga9vEwaVPRuE8XSTZjk1s/419aHUu06V8ZMuWprPuWgwiKnoUZWVl4af192GCXsw1S0f0R6am4fh2SyAwLkvcVSbZGrIMw95ZJYKIk7rMrTEYZmlkkq0hj2Tvw4Pffh3HdRn1Bxdw8bR+GQfVb0TpQLNMw5on5mvOh1YcapotwYd0GS01F4C0gTDXoNgqjOGWkXnG9j/undWt8GMwBo3WBS61lTn+SO5tU78vUofrTvkm2x8/eZzin8wU3Uk2FaNERc9/8LRlXWIfy+vFPlnS0iTbsYnt7xLLpGUgM6a/AddhkPgD7W/6RM/HK9x+x2n0QFGx6t59ZHB/bYOVNiHMdUv3iUqLrMRbK2AyRz9wHY3jb6iwbk9sf1+zoz9TF/bWG/0QxHRY3hfyGut5ay58+jxR+RTv1Vgqyp3lp1WaYs5ER+detY7gfl1qCvM5cUU+ibacp9OXLOdSVPZmyGDAfv3juSdTiq9XlUjrsWFvkzi2wcguNK+JqEjKQE18lmzBgjh/gf1LtKifW50y528Vv2N0QZhlEq2r+1aJtt8ikLkxV67Het+K+1oOthG4bvo+dlzH9Ini/NuON3G/S7vkar+1Lq5boiQtAGko2SkqrvlYWHkCT1T+CQtiqnQGfXxWVratldYNmCwqwK2H9wYqtjK1p8nyAY5YWZVP89X+6Ek/7Y/Z2Q8t244UZMkn95ZtiUm1CMRBthxY1xM2Hc0N2cJhWc8TzrQmNwpGiHNWKyoyet6kApUugrldH6Il5oBvNXbtb0fG9BJjnzdv0OUxqngaPp8v/LTm1djTmGwd0SuARZZRro43iztSGCdHwZqBc8/YU7Ham9wGIidxTq1oDOQoWDObNttbTtqbGYj0dQUpolpgMiq23ekPIisvqbkD0VQdXEda9nX6lawUGiNjmZOtKT4W8imbZT3To6QJRCWfSlrXI5+06bdcU+fwgu2YFRGENYnKZUjlwqqmU/x5jfWPfQfqD15A2pTxxj7HOzJNpP2Oh65s5i01zmO3Rj5LyLUdgEGZ4p9TbbbKlY2+93OKLNuSk2rNGIhBMf2d6IqxP/6QwFwH2M7KVUunbTmjs7W9oujOJVy0BpfyIUAgKDI+74H7yJzU+Y7tnlQV+bRRmGJdz3rjSXbg86/Pd8MRs2LZ84zAzlr5NQbPCL1OvYgK9pvR7AzaVDBjuW563hoAymOTgYnt2BL1u7QrbvfbQ0nshG4ODVuKqrahmLrWqPTe49Nvu9TwUaP4f/DnVaW51pra5JJOJZJ9HtSIS3Jatw+t+u3E0mlD6TJNSW9LTDvieIiv0pbyZd+J4HriGmrXTK+SKWCBfdqqWjc8M+9GyL9JsQqMkiZbWfKXGPfBm7+IvaKSNI4O5u80okl81KcuysI7d5ppWJK9RaNrtfj4nLj7pxbpFpTgDTQuOym/osgrZsVbVzaMiqNR+TYqZDEOxWtSFRyzVeEyLraoUsVofjeeyJpPhw+KinTMVBO/kcZhrmf/FtnaECMzJUI+bTPXs6bO8nDHA7YA0L3A6D/y6WFunlFxKOnJYUvlk1TjHMpWALNSHxje2a1EXdsYyCfSgW0FptD0kf7Kdq4tU8ytEo6Wn8AUeJLd+3SeleP9BQNn9TvQ2ULTZ+kHFQVDjN8Ls9JVi6AtAOiBz1tv4sEoWDL1SVZ2ZSAi6mifi+UJtqjIz3MEDXKKoy+AkRJWi9/GGrjERacN7d8a0g8jNg8gZ7j4pzZcSlmMVMuFCGTCpYvFoqZRBG35mOwMJH23Qnb6t7ZEhdD7EHWZaMzhesOle3Ul0SlYYTXjYxVs6JaLuv+y98+4/9MYJ361HH3PfSR6XD7CFes7ZGlBkWldk2Vn9qNV7IDeV+knoaoCa1Yc1B8eM0Bw/7RVPf10PLENZT6RPtPtip2R8tWMD7tbSdBpQ3W7ullB0q0YwSeNmvjDL+P0qC1Keh/iTl0y03/CpTG44nzyqK9TN7SVyfvHCEQClR+XEnZtzeA3WtqGum5dtFAljLE/oedjgLhmbj4/yfAJLopf79YWyni5ShHz9Hy7YaagOQKwXhwwKSqNzpHaKakAw/67RKVT6d8LMv3Kf7DJ9ns9cZ83F2LYb694OAxv/Ln8GcPjzF2yMFpSRiDHrLRaOlwnXi2axF1m3W+jJUPPuPYyGs6Kfyz9RkJGn3JLBQ7W9KcwI0u5sWsvamQguXg3CnWRWpccCCBqoORmGXfi6l+U6BQsK9npfNEYtFdV6ICjFq+8I1tEiizfDTIHj8mRq+r2WVpEtMAXFn4/ZIjeo6X71JC7iyzfH7LgJ0UikDmJd1yOpEW9V7D/hqAqw46UjYQJrRBaO8nGwnhqaUmRMVsy9Kxrtnx4SXd21HPuGTnKaVNGIyfw+01UborFPongLvJ3Qpg58YkKymK8djpFTFbCjGti6QDabTqQCalY6/sgQh+LhF1bwejLMApTbClq4pwH5oOpbF58WWbbERkkjkKBpVUopXi0ON8JCILjYvZ3yYu9pcqhs1zcw6JyOSlqK1yE8z1rVMj5D02NSp5EBGCeMj+3RdZW6gi/S9Sy8uGIqPjnhqZbuv+8Rf/cuhLLfnskaaNghatwO4fZjVwpt4ywFDFQ0Muo1Cpz9CmjUm2MpiUqao7Rk+zbk2lNO5G9dglg7XQdlX1EJtuIU7b9EIs697t2KzafXYBlkw5FHRUqdBQrR6AgO3bvGoFlcujhLs+R/Zw7g5e6baVomieHFdbL6PW02M6H9ZxGvnbOaxsuUHKzjMEyXG/YY4s8DLEXzOF0g/yoCox4ZWEOl6tFHH43sFyE9ehhfcfpOQ6/23+oICD7jPHUTzXHI3T0li6o1CpYOw0GqfcCo9k4Kviy5UUO3WvZpn15Q7hRZYx0Lj2jWm3OYNBS8aEIdPB0bMvK0sHRGQQ1VBzDxRnWkcB0pdwx+kvk/bQEVLaOlGHeF+TTV1u6R5QKd2DZsMtYR5aJhf08yXSk+uFiP9Xwrcax2c+1VXCb4Y7NefxBoYGOtWNul9dWH799xC3jOEJHQ3LeB6HnKbZ9jy7cfWETcu2c+xP+fouHcVzhRlFz0Gk4NvKzGeEYIq833GdOXj9HOptzexHOtfO+s35Wur4nXX5uI37eYvw8xfC5jX7fuv99E+382Jjn29V5Dve71BTtcxvu2muO7Ubfb/fHnwhJ/R6Q7gtf+Q1Uyi1D2hIRERH1ZyoAsQSofVcXQWucQSj1HR6mYMUhUqdlXd7toVmJiIiIeiVRGbelVemhm3vzKFFuRRoAQpd3f5hr6u16eQuIoEevcrJ9V0UCRE4HsnB8rwURERFR0jhSpiKm+vRF4dLPBNt3dVC/1fsDECIiIiIi6jd6dwoWERERERH1KwxAiIiIiIjIMwxAiIiIiIjIMwxAiIiIiIjIMwxAiIiIiIjIMwxAiIiIiIjIMwxAiIiIiIjIMwxAiIiIiIjIMwxAiIiIiIjIMwxAiIiIiIjIMwxAiIiIiIjIMwxAiIiIiIjIMwxAiIiIiIjIMwxAiIiIiIjIMwxAiIiIiIjIMwxAiIiIiIjIMwxAiIiIiIjIMwxAiIiIiIjIMwxAiIiIiIjIMwxAiIiIiIjIMwxAiIiIiIjIMwxAiIiIiIjIMwxAiIiIiIjIMwxAiIiIiIjIMwxAiIiIiIjIMwxAiIiIiIjIMwxAiIiIiIjIMwxAiIiIiIjIMwxAiIiIiIjIMwxAiIiIiIjIM/03AJn3C6ysPIF7fHo+YAPuEeVPVP4JC+bpIuoZD76I3bvfQimvAxGFNQA5JZMx3Zeq56m/S/eJ612ShRQ9T0T9E1tAiIh6UErxOEwuHmDMzBqF6etHId2YIzIUZGHy+snIm6Xn6SrDQJz6n6swAFmN12aPxQ9m34Kdu3QREVEPGZg9WL8SwcjwgYD/Ei7peSIiov6ILSBERD2s4+xl/YqIiKj/+1Rubu7f9OsEegAL3ixBweFSlONhLJs+VJfXYsfsuajWc4llbHOqI3ehbttYvFYmX8m+H0uQp0ol576Y+7wVNZOWqPW07rfsf+1W/GDZar1sF3y78cTifKBtHzZ/9W406OLCzSewUBQH98lLn8O3Hv8yxuo5qxO/+RH+xXJRcooewj9OzdBzUiv+sOV5vP2xnnVL9vH4ujhgi9pfzsWKF/SMeh94Y241Cnd/A+aStmWU5XjR8r5kW2ZeKd5afTM+2LAJWPFPmGbeA395A3OXv6RnDMtf2o1v3KRnhNBtEXlD5rpPytUzYfgPHsOhcjeBiUzPGI/smmOowWhMmWK2qDTj8Jp6tOm5AJnmVZQFnKrD/rIOXRgD9fMQ625D1vo85Ohi2/7KlKGlo9BRcQh1e40iIBV5YvlUtZz4PaP2uQ5NBXnISzN+PrD/gX2L4dj0NsWqDP56HCxtRqeeDe53EwaJdcptKjGeB3XdMh3rFmQq3ZQp4vf7luNoqDHKnNe4wXY+TMYxBvbHcmzGOoMtZHaOc2BeV5Pz+PX5h9iH+uHW9Ua4T6Jy7rPzfo3hujn3WwrZ92iC+2I7v+b9EOE85MR13ILa34G266zo7cF6HpzHFuFes98nF4Lrdt7TDvb7yTwuk2U9RL1QUgMQFQwEKu46AIilIu9amHXLTuhrZ6AlTGU/p/RPIqhoDBuAyH2WAcKuG8Qyk0TV++xObPrjrSKgGIGqdTGkbekgRAYxm0peDsz3TPARTg7mP/SPyK/5ZzxfYYZIQuG38PgdGfEFHFYqKJiGhmgV/ECAch4HNtyJEnFuZ//wLfzTdATmRQlKf1mMU19fATOUCFlGb2uIeHl+///Cnd+vDJTBnFfrEcFJkyUocbOPREkVrBTW7Q1W2twFHiZLZTBQwdGVkXAVHrNSFGPFOyBQqQpWcEIq3y4DELPSqCrEBaLe2XIGh46kWyp44Y5Nl7VY9j9MpTAkULBUBgOV5bD72QW9Hnvlz7lPYfYxyjnJsVWSRZlPnEvrteliP0ODH/O8WSvZelvyZWB7YfbThXTfOAzaFTzXoefE3L54GeWejBi0hQnwonMer55HuPWY5yHOACTMcUjGsVwKrNM5H/aeCNlvXeYbgpYy636H+1kLfX9Ygx9j+4Md9ylR75HcFCxbsLEah2rFP8NvtEToiZFTukD8oqnFjkQENm37sMsMEEQwUvNGnOssm4vN+9uRMf1hLJgnAiQdjMQafEy4dz3KysrCT4/N10vFLqdoMT6PP2CbNfgQckbIlo9WNHQn+JDyh4mA4DzOyWseVTD4kCrf/UCUDMGwQHNHJUoswYcUuowhEHxIu0qw8y/AkElzROghPFiMaem1eMPaIqKXyf/ccl1A1BMu4OJp/bI7bBWiDjSfEv9kpoSOJrS3HvvXHApfkXHN/nS1s7oVfgzGoNHGvGuiIlxvVo5EZbVpV4R9sh3bZTTsawZy03VnfVE5m5ElgorTwQqx0LarHv60DGSKwMZKVsgCAV5NpzhToko5XA8C4MbeJtT5xe/KiZYOwQVDkC2DqSN6H2dlG5VK6zmuacaH4ppYfy7dpyvCtkpyhz346FIqRomKpv34xTkqF8ePLGQ5O67LcxnY3mVcbBH/hLtPomgrswQf0t421dIfch6j3pPh9jte4nhL68Q+ZGGSL1VUvkcb5z9sECPOr7z/4wo+pA7UH7xguf+kAeI+ky13bXqdxrE1VFi34bxvZZAg91N+lhzL2YKPrqXPM1p6aiwPLjrLT4fep0S9SL/oAzJyuEyRej8xqV1nPwykTAGNaHDb4hFGQ8kt2FE7FFPXLkGeCGzKZUtIjI7+bA18Pl/46cdv66ViNHI+Fk8F/vDLty3Hamio+B1OYCy+/PjjePzxhzB/pH4jVi+U40DbEExbvRu7d+/Giw/q8nio4XqN9ahJt3Y4NdTr4EOraTwvfjMPg6x/zB4lw958fMO6HjGpdKzsXCNIIfJaQYqoqpiuwyBRib2q+oO0dFoqWpdw0W1F9PQlUbkeiEEquDDOW9qU8Zi+fnJwWipTV5xBkTPYMyqjsbU4XUZLjb0CmlKYoSqAZjClBhOQlWHr/ohJpdkEKuADMChT/BOotMZJ3UMX0FTtOIaa82gSFVBnUOBv+kS/MrSVicp4TK0Ngnzibjs23bISi0j7HTdxLUVF3p+bp5/8xxtgdM0IuC3BnQpARSBhBtD6c51TZD1HYlItcOZ9qweg8LeK+8mYj49xH/nF9bZfQ32fxhhcEnmFndCT6gHkDNcv00cg3rp8YuVg/tc/D1Rti5Bi9Uf8y49+hB/96J/xh9YMfH6pDEQex7cK9duuyZaLuZg7dy7ekK0MXzcq/G/9MMaqvk7Tkq0bcl1q2nAAIrRwp+0cgr/ba/GGuQ7r9PUSsbdEHjIrcLqSnLdUVlCMSpxRaeFQvFGNHhiSFy/TqlTLjmNKRvpJZ/kZ9bTdqIAaT79DK4AyrSZ0f2Ku7Pc2Ot0nTbZuBI5Ltj70Apb7IqZWrVg5WrOMADQ0kJCtbbZrryZH6xHRVar/BCDO1K6CEbB2o+4JhZtlnxLZ2b0UVW35WLh5g37HvUSnYH3u7n/E55t/be/3EVYD3n7eDESAsRM/p8tj99Jyo6IvA5FASpRLRstFLXaaqVUxKBgxBGg6pYKLynp5vDnI5ZceUm8gKjCHZGWkolmlIR2Ur+XTW5XaJCspyXt62x8YLQxmi8knuOgH0rKvkzMeMdKJVAVUPf0WFVJr+stZOZBy8El3ePGlP4VQaWSDkV3oqHDrtLCEt6ipSr7laX+3OFuodKtQPGRgVCRT8UQgKj5XaVNGIyfq+e+etiNmOpURgMr0qkBg6TK171LTBXHjDhR3SncY91GauN72+0inhdlaGYl6j14RgMx/zKhQr793gi6JTfUfa4H0GZhnfuu5OQpVTxL7YIx4JTu6v4ydZfvQmr8EK0sf0Au4k9AUrMJv4cvjTuDXv/ijLnAjB9kikms9FxqwmNfNXSA0G7nZ4h8dELgVEjhYOpxHIzuqf+Om8ziwTff5CKSEvQj2+KDewqhIa6piF0MaUrxkh2HZ+pLMLzULqYBZOkB3l6hoFqi+A006SDNz6/OCX+joAbMCmiOffjvTqFQ/EdmyFb0ly+inMgpTbNdCnCvntdHnM3w+vxEM2SvcA5BTbPQLCPSxSRSV/mYNHOK8tjpFTPbfMVPSjA7ZaiZGweNV/SD21uPwqUjnX+5vAloZVb+XLGQVGwFos+08G/1EZFpgtC+PNFvSJtm++V0ci8/5TfA6WLX1OwlS96K4jwos93+gf0lCAkWixOsVAUhdY7v6d+i0hYirW7Xu8J23+ASeqBTTvEZsnr0VdfptRY6KJd8TkzEscD4W6vlYg4KuyFG2VABUuzXY6XzX3ShXndJLEr49dz6Hb90hB+E1+3dYpruDrRufu9vx3uNfRkaVY6QsZQJGDtMvw5ABgLWvxe7djhGo3HphBd74S7AvyW413O4bCNe33UzzktM/TW/AG3ODnduNlLD/JYKQ0H4g3eqfQtRd/fIJZQfq1FNos1/G9bi45ZjqFBsbs+KVp9cjJlGplKNB2fptyI71tu3pyVaxSzAVZGQhT47iFFLJk52i5fGG9gOxVUhVS1gdGqzHtz4dzSGd0IP9G4LLBSvQsh/HwYPQqXxy0iMmJSPdS+xzjahcB/s3yFHc4ru2quO4DMD0Pg/aJ4/jgn7fLRlQyMBFVLbLg8fbVqY7pSctndEIMnKmjAICwXBQZ/lxdSwh/UBswaXsgyTOHcxzICcR2e0KvW5tZaH3U+Bekve/uD9guf+NEbiY7kW9V5KG4Y3VfDxatgjj2qvw7JpXcVSXErnC4XSJiIiI+oxe0QIy4d6ZGCf+Pb6XwQcRERERUX/Wsy0gE+/D+oenYijaUfXcGrx6RJf3VvrLDaN3bhfHEssXFlL3sQWEiIiIqM/oJSlYRERERER0NeD3gBARERF14e9SR+hXwKeuG4yRq05i2N3bwpbLKVK59WcilUuJ2gZRb8QAhIiIiKgL13+nCteN/CyuyRwnKvhv4OONY3D54z+GlF/807+p9yKVW38mUnkit0HUG12Tnp7+P/VrIiIiIgrjb5c7kPmVF5B66/+Fi//5C1z+8Pe4fOLdkPL2vT8Mu7xZbv2ZSOWJ3Mb5955RZUS9CfuAEBERERGRZ5iCRUREREREnmEAQkREREREnmEAQkREREREnmEA0i9dwevlp/Dnp67o+VgYP7tnuZ4lIkqylOJxmL5+Mqb7UnVJnGaNMtZTkoUUXUROqciT52j9OOQU6CIiIo8lrRP6batfxcpbw/wxObEDxate0zOUDBvLTmFJ9jD8qDgVL+syIB/3/3wZpg7Vs1J7NZ759us4qmcDlrfj5NdaUfurXMx5SZcRUVLIyncBTuNQ+WWjAl0EHF5Tjzb9flfkz0+ZMljPhfIfPGasuxcLHMOpOuwv69ClFuq8DETdluNoqNFl4ajlssRB1+NgaTM6dXGfV5CFyUtHoaPiEOr26rK4yQAkDzm40PX57IbQ+zLO7ZnX1KIhIeeBiHpSkgOQRuwoXg2GG9554KkmPP6FAdhaNBSrdFl4OiBB+CDE/XqIqDvSfZNxY5MRJKhKW0Fr/JVnVVHNQFMSK5Y9wm0A0l8lNADpGUZAgu5fQx2QMAgh6tuYgtWfzOnAyi9cQO2v3AQNtXjlnZPA0Hx8caYusnj5yUzsa2vFkrJ+8wyRqNfqONu7WyiIuquz/AwaMBjZhQN0SZz2NqHOD+RM7Ga6HhH1qKunBeTeDSi/A2J/DmFy+ULk6eKO9zfhvg2/M2a+tBavPjQex57fIpZficI0ozjutDHfw6hcPEbPCLVvY/ay3cZr/V7NtkexvMwoMszFS5XzMXL/i1hUUqvL8rHuzRWYlq5n4ceBdU9h7S49q6lWi4mDHKlXUdz/HbywCNh+50+xUxfZqFSsy9i3MRt37dFlRJQQsuVjUq6eCSOu1KloLSDqybFM72rCoJLxyDN/v4WkPZkpOkG2p82B9bQhy7Jc6P4OQI51O5IjNcqZpuNcR9RzZF2XM00naiqXZTlnqpbrY4vGOO7smjo0FeSp45c/X4PRYdPMQlKVLPsUmsZk1RxM1XN1bZ3X1fLzmnm+7cdr/lzo8rEx1gPzXjKvheMamPsQuYXDPL9xfD6IqNdI2jeh5952J6aN6sCxN3bjT7qsR31uHr4xPg8TvjEaJ57/Fr779Bv4eNw/4PZbpyD/zL/jdyfFMmNux51/n4vcv5+GoYc24VuP/D9440w+/uG//zfcOe5j/Pt7p4x1uTCn9ElsKbqI8tk/wsM/+3/xs58dx6fv/x8omfN/8LMdx4GqZnz6zs/jlqF63uS7A//3pDa8de/b+IMqkAHJ/8C46hcx/95/E+sR60q9BSXLF+DT9f8bewI/egWP+ZpxY9NQ3POba3VZNHPw2JO34pqqcrzw22Zd5vA+sPCeVqSeScfPxWsiSpzOqkac3t2B6+Zm4ryobP35n1vx12nDcO0Hx3Dw2Y/R+EEcg0gMG4QRUwbiQnULzjs/1qJWemN+FobPDW7j9Mm/ImNWLlKvNKL1hFxIVu6y4H/yL6jdLfevEWezhqDg9kz89aReZ2A9KTi75Sj+q9xYZuyUocFlhHTfRIwfJCqXT57ECb2u07+9KH5TBV35oMUo1+dhwMfnbMdtnCMxXblWbPNvqNPbC1nXCb9ej3EOMy+14nTVJ/pNg6zM//3t11rWIZb90lhMuuNa+Hf7jQqwy2OL7hoM+dIwXD82E53vHMKxdvHzBUMx5O/O4ODv/4Ybb80IrktUwiemNhjXwjwPd+SiYHyH2v/A+ZHXaUoaWtR9IpeTk95nydW1/QSt6ueMYxo58q84a12HIM+3f/wIjP70oMA+pvsmIC+9u8GHXs/f1ePYz/V1k9dMXtdJIzAkq9W47uJ8TLl1UNT0qpTiMZg01o+/PNtq23ci6luSnIKVh4Xl5Si3TBvu1W+5MgH3rS9DWVn46dEivZhrHah+/j6se9eY+93+Y6IkFRlmc4hmaxV5dx0qxS/v1PG34zajxIW5KJ6ehpptz+FFXSJTntbuElFO/kSs0PO7D/vF/Bexbp4qEPLF6zHirSOBn5tT+kUUtFXj2UBriFC2Ewfa0nDzzHxdIP0VI9LFj/5ntLFfZL+PjXjhLTkVYVx7NV4ptaw3xLVoFH9x8j/LX/NEyXMBF0/rlx6QlbvAk+OaTvE7UPx+G26mxVxGQ6m9otlZ3Qo/BmPQaF2g2DsUhy4zAIMyxT8tnb2kkpiKUVMGw3/wtKVlSBxreb3Y7yxkzdJFSlfH5pK/HvVmJToNaNoVpkVmb73jKX4HmuVzrsyUuEbxin5t3WkrO4Y6/2DkFWchRQQEk3Ll+Ygv+JBBnxqVTExqPeWW1iZJHP/BgxeQNmU0cgpSkVckgt+DYvvO4EO2luj1yBahhoruBUNE1POSHIDUYUdxMYot0+qf6bdcOYpX1/jg84Wfnq7QiyVYY4MOPrS6c+LXeFpGIG2rS/Oux0jxT8Hip1FZaZlUOlYWxuiAY0/Je6gRf5kCgcS8abg53Y8Db+g0LaFguPjLlV6IEut6Ko10rCHDx+qlhDkiANEvI6vFK99ehQfvNKZnjubjkbe+j/vD9AEhIg8UpIiqsek6DBIf9+T2B3EGOx2oW2OptEqWyp6alo6S9ecYicr9vmYgN89YR08Pi6vO8wU0VTvObc15NPljr6S7Ygu+LuFi2I7XssXJcq7FFC0tLzoX19YVGYTWoSFtFKaogMAatMWms/w49ot9UNOWVmQvnYzJxfZzLZc5fEoEPEvzkCOCtppw+ysClcB61tQBReJcdXfIZiLqUeyE7pa/VYRTsZH9O2bPdk7Wvhu7UV0rAolJ0zBHzM0RgciQ2vdC+nagrRqlIesRk9mfRNpzLRr1S7eOlr6OqvY0TP2K3Hpk7WfdpHQRkWuyr0agci8rX7LyaeTn58jK1fpRCHT58pIMPvRT6GDFUbYSxMGsNMqfl5VZVcHuoePqlcw+MjK9yaxcHxKVcf12T7IExmnZ1+lX3VTTjBrV2pHtuAd0a5mUNhAD9cvIRGBVIYPb6/k9JkR9WC8PQBKdghWfvGHiV/G507C3i0Sx6ww+Fv+MvMGaIhXei29U43x6PubOE9Mk2Fo/pJqz4k9/eha6/j0bf7pUe5PsABOOkdbVWH+NnieihBCVsUOywikrUrITrllRV+k/siLaMykmKcNl9a8ZH8b81DwK81jV8TnTnTyi0pHCjMBUMATZSW91isRo8fIfbOpl6USpIiAWgbHswC6vWW4e8hJ5zfyXcEm/lNJ9ZhAmU7+yMMl1y0akViUi6gt6eQDSMylYVnI0r4VjO1D969BRsOY/poOhx+brEtNulO/3Y8j0FXjJp4si2XUAH7SlYdraFZgm+4U4Wj+MNK0xKH7zm6qVJLJrUHlkMHBTJzbqkq4s+In8YsKTeCdSP5DlncgXf7Qbo3UTIaK4GRV+bfRApPVwparzrKwaDsQg84mH/v6J2FOwwlDHF2d/l9OXVD+M+IdwNfpWGH0NdJFsgSgWx2btq+GpT3DRb29hiDjql+7P4cXQs+k+PeKVHD1Lt1rkFCXgW9NlB3PZf2OffdQxY8QrGXDrPjki4HGmadnIe1K10vW2wI2IYnGVDcM7wtYJ3Rh2txCNv9F9U/S8/Ve87McS7hhk68x3jW8Wr9sO34/fNoot5EhYJdMdf7qtQ/GaIg7JazKG5rX//g8zFO+cDvx51Tng9zfgM086Wi1m3oUNjxTC+kXoqKvAg9+LNL7uFbxe/hFmNF2PMb4ezd4m6rfUMKvZZ4yhUlX6U2zfgh6iy2F4u/4yP3slWLbInMGgpc7hUx3r0YFK8IvynEO+SvbO3VLkYXbDjLqktht+CN3Iw9XatxmynHO4XlfH1hWdWtVirNvY5iXjeJzrdwZ4Yn8Oit+5Yb+M0rms9Ry5ubYhPx9kDLsrAhw9hK99FCozVSz0+kVm/oyeVezXNHAtIgxLbA4FHHqPxLIfRNRbJS0A6ZOcAYlXVAAClM+2jpoVn0R9gzm/CZ2IiIiIkoGd0HvavG9iu2r96H7wIQW+wbyi3XUqVojl7SL4cPuN6kRERERE7jEA6SEyPUsNqbu2EB9HTL2KxzW4q/gGFYQseMr6lV9uXcHrc1pF8JGLOS/pIiIiIiKiBGEKFhEREREReYYtIERERERE5BkGIERERERE5BkGIERERERE5BkGIERERERE5BkGIERERERE5BkGIERERERE5BkGIERERERE5Bl+D0i/dAWvl3+EyUduwGeevEaXuWX87Ig9/CJCIup5KcXjMGXKYD0H+A8ew6Hyy3qufwgc46k67C/r0KXJlIq89XnI0XPABdRtOY6GGj3b5ziPpxmH19SjTc8li/fXjaj/SHIAchvWblmJwjQ9K3S8vwn3bfidnqNk2Fh2Ckuyh+FHxal4WZcB+bj/58swdaieldqr8cy3X8dRPRuwvB0nv8ZvQyfygqzEFOC0UameNQrTixBn5WkAckrGI8/y+7ah4hDq9uqZhNLbavGy4mVUMlN7SQCS7puMSZn1OFjajE5dFi9vK7I9ce28Y5zLS70jAFGf54EeBHfOAEyI814KHFNAXw9OqbdKXgDypbV49aFCpJ7YgeJVr+lC4J6Nr2L0r+/Dund1ASXUA0814fEvDMDWoqFYpcvC0wEJwgch7tdDRN0hK7I3NhmVavXHv6A19kptQRYmLx2FNEelI903DoN2JaPywAAkkQGIp9S9koGmflqp9DIA6ZJnAYiTDkgSENAa5xMMQijhktQH5DasvTc0+JBeW8XgI2nmdGDlFy6g9ldugoZavPLOSWBoPr44UxdZvPxkJva1tWJJWZ/600rUJ3Wc7U6FWgQDxSL48IvKsKOy0VbGSgM5jB4ISyMZ9UsdqD94AchNR7ouiVdn+Rk0YDCyCwfoEqLESE4LyL0bUH7HCFQ/34uCDbVPwI7iQ5hcvhB5utiWEqZabcbj2PNbxPKW1LEwgZQrvodRuXiMnhFq38bsZbuN1/q9mm2PYnmZUWSYi5cq52Pk/hexqKRWl+Vj3ZsrMC3wm8SPA+uewtpdelZTrRYTBzlSr6K4/zt4YRGw/c6fYqcuslGpWJexb2M27tqjy4goIdQT9Fw9E4brvg669aPDTbqVeiKbpWcEGbRYn+AHUsDakGVJ6Qjsi9nSosudgilfRgtJdo34ubPZlm2GpnOEpHxEfGrbjRYQ87gqgElqX2QfAfMYnfsUms4SPK4wqS4WwWvm7vidxx5yzQPn296nwfy5uPrDdPlUXrduRUzlc39to4q0H/qYYT02533nvG8toreAOK9fhH12bs9xT3Z13aJ+ts1915/F0DTJbtznFmofLa2p5j7Z99U8H9H6zBjLwM3vF6IYXJOenv4/9euEuW3+NzFtVCP+8PRu/EmX9bjPzcM3xudhwjdG48Tz38J3n34DH4/7B9x+6xTkn/l3/O6kWGbM7bjz73OR+/fTMPTQJnzrkf8Hb5zJxz/89/+GO8d9jH9/75SxLhfmlD6JLUUXUT77R3j4Z/8vfvaz4/j0/f8DJXP+D3624zhQ1YxP3/l53DJUz5t8d+D/ntSGt+59G39QBTIg+R8YV/0i5t/7b2I9Yl2pt6Bk+QJ8uv5/Y0/gR6/gMV8zbmwaint+c60ui2YOHnvyVlxTVY4XftusyxzeBxbe04rUM+n4uXhNRInTWdWI07s7cN3cTJwXf9z//M+t+Ou0Ybj2g2M4+OzHaPzgil6yC5/NxE35f8PZ/92C8xE+ypKskPz97deKCtdR/Fe53LbY3pfGYtId18K/229U5kSt88b8LAyfm4KzermzWUMwdspQ/PWkWH/NRTTu1j8r9jXzjKiYrftIzMuyRrSeUJsSrsGQLw3D9WOHifVdFJWbv6BWvO8ffwPGf/6vOPvbi+I3llEpuuXT/sD76nx8PQ8TpwWXCRqATHGuBnx8zv25MZnHdX0LDj7ZhE/NzUD2tCFo/5c6tBbkIG9UB05XfSIWlJXrLPifNPfHOP6C2zON42/+BK263D9+BIb/nahMPnkSJ3RZcL/cHf+VD1rUz5n3QcixNYvzffKvyJgyAqPH630UleOJd2ThckwVVFmJnICJc0eI/Rkk5q9DpljnjXJeTua61XL5uNF6Xa9ci4lFY5CR1ar3zd2xdenE/xHHLLadbW7bkDJ3JMaO9OMvz7Ya96SsqH9jCOoD963Y1mduwi3/Pfy2rr05EyNHivfMe9okg4pVuRggzpv8fMn1nM3KFPf/DbjuiuXeVdsboc6vudzpIcORl+cPLNPVdTM+28a5u1F8NoOfOTGZ+3yiU32GbhxiP37MGo6J4rwGjj8e+h5peeckmvQ+y32S9+zoTw/S97L8/E1AXnr0DvtqGXGfH/u5y+tK5FJSUrDyhqXqV4bbVr+K8vJyPb2KtV/Sb3RpAu5bX4aysvDTo0V6Mdc6bK0yv9t/TJSkIsNsDtFsrSLvrkOl+ACnjr8dtxklLsxF8fQ01Gx7Di/qEpnytHaXiHLyJ2KFnt992C/mv4h181SBkC9ejxFvHQn83JzSL6KgrRrPBlpDhLKdONCWhptn5usC6a8YkS5+9D9T9Hw4st/HRrzwlpyKMK69Gq+UWtYb4lo0it9K+Z+N+9cgEXXpAi6e1i+TJhWj1BPz05anvZfRUF4PP7KQNUsXKfanwp3VrWKZwRg02piPiXzaa6ncXGq6AKQNxEA5IypJN+bKp+vWyk8H6ipEzSgtA5kFuiiBGvaZT80HI63lTOiTb3lOSu2VsaQdv1s1zTgkz0luHvJmiQBJptudqovx6bg4r2sOYb+c5LrUNdbzctJP91OKrzeehltboPbW4/ApsdsFQ2D769LtYwuXJiSCzALZqbtNr1cc7wwRENruW6Btl7hvY7xH0ueJ8yb2ucZy3jrLT6NO/BnOmWjWWUQAJlt0nOdXnIPEP/2/jJYaefzinAeOwzje4PHHQgaPkzFdTrL1RhyDc5/byo6J4x2MvOIspIhAa1KuvA/s97skH1ao9YhJLVMevrWJqDuSEoDUnbM3n/9uw30oLi5G8fPV4ldOLI7i1TU++Hzhp6cr9GIJ1thgH6VLHY/4ZeeIUyKbdz1Gin8KFj+NykrLpNKxsjBGBxx7St5DDSyBxLxpuDndjwNv6DQtoWB4mvjNWYgS63oqjXSsIcPH6qWEOSIA0S8jq8Ur316FB+80pmeO5uORt76P+8P0ASEiDxSkiGqD6ToMEh/37vUHiUBt5wKaqh3rrjmPJlEBSx2epPzulk5bxaWz/Lio8OoKj+qL0IxmZ8Vub5vKOY+rwh+VPdDzN1meOlvJJ+BmRc6szOm3Yhbt+GMhKsAHRWU9p0imRjkChAQamG2t/Ae1HZFBoSO4SMCxGcGdJQAWQU52mqjw7jKPz/hMpE0ZH+aaxHKPDMCgTHHNxf1ur0jrICAzxQiu9Oex4Uhyzq9TSP+KkOOPhSXIFNNhUWOZvn6Uow+IDLDr0JA2ClNEoOUM7EzGtdTr2tKK7KWTMbmYfUAosZISgPyuoVH8fwRGu27p6AP8rajTL92S/Ttmz3ZO1r4bu1FdKwKJSdMwR8zNEYHIkNr3Qvp2oK0apSHrEZPZn0Tacy3kWY/F0dLXUdWehqlfkVuPrP2sm5QuInJNpoNYKlJ54g/8dJ2bnlMkXzsrDlGcvhT/E3qy03n5Mk8+WAGTrUQ9TwUHxisMSkLrUI+oacaHp4ItECmFGUgTf2tbHJVi2/WwTH2/T0IHmi2tS+r4T4VrmYtdW5kINERwd6MzcLA89EjLvk6/ikJcoxoR/KZNye52h3Yiq+SMgvUz8YtB3OLjp7tPWgov0SlY8VEpZedOw/W3l+w6g4/FPyNvsKZIhffiG9U4n56PufPENAm21g+p5qz405eeha7/3sSfLtXeJDvAhGOkdTXWx/plhkQUlUyrkZUomQ6jUlnEa1XRNVNjYniSrFsxZOpGxATMmk5R1Qkzko164pqkVpeuqMDJmf4lzEoXgZgXaWmhUobLZ/yiUhxTelPyyZQYI13mEA6f0ik0+r1EUmlUYUZOSp+YJe7TS7ik5xNJta6obRrpV8E0OekTXBT3tquKclSXcbElWNEP0ilfZmuO+pwksUUwjGA6mdwXxNn6EZn9s52KPJ2epX7fqLQ+/VZXknT96eqVpGF4X8OO9zuQeutKvLq6O0FIz6RgWcn+KwvHdqD616GjYM1/TAdDj83XJabdKN/vx5DpK/CSTxdFsusAPmhLw7S1KzBN9gtxtH4YaVpjUPzmN1UrSWTXoPKI+EV6Uyc26pKuLPiJ/GLCk3gnUj+Q5Z3IF5WWxmjdRIgobkaFV1MpSZdwMeann5dVpQ0yrcIXTOiS5PeAGPnl+knrlNH2fHM9fG99zE+SjQpdt4b5NAOnImtrj5mDn5inwLHqPCurWJYWBtlSFSEFy+jzkJy+KjZiHwos/XfUk+0w1zoRzJSoSdZ1q74C1v4zCaZS7kQgWiyDYWdKnr63RUW5uylARhrZKBRY1pNSPBp5tpQno1+KTPmyVczFOXBdUbfSrZNRh7BVnwPZCiq2idDWn/jIwRTykOP4bKf79IhXMoVPt2zkFJm/IyIQxy5H/Era9aerVnK/Cd38MkI9q/irsWnpOvetCYkSbmhgvX+NvynG6p8F5+2/1uuwo3i1CKmcZOvMd41vFq/bDt+P3zaKLeRIWCXTHX+6rEPxmiIOyWsyhua1/44IMxTvnA78edU54Pc34DNPOlotZt6FDY8UwvpF6KirwIPfizS+7hW8Xv4RZjRdjzG+ZDxrIyI1VGb2GaMTsEr/ifdb0CXZCdU6xKhz+FS9PcvwoSFD3qp9cAyNqivhocP8ykpOpOFa9XsuvqjQOWSp+yFNo4/eY2M7LuM8GcOcigDIsZ/27clWhzMYtDT8MKSR993d8Xd5bGq/ZetDfZjhko3O0l2d3xDhrrGN8z6S58C6rPtr65Z5XzqvfYB5vFbWcxIlULStM2S5CPeQc3uO8xzTPelcl/NaSnqZ0CF5XQpzfuznMvhZDTeksgrC1DUOLhcUw+eMKAbJDUD6GmdA4hUVgADls62jZsUnUd9gzm9CJyIi8oAKILrz8IGo70lSCha5Nu+b2K5aP7offEiBbzCvaHedihViebsIPtx+ozoRERHFRbbKqNYPBh90dWEA0kNkepYaUndtIT6OmHoVj2twV/ENKghZ8FQ8Xxt0Ba/PaRXBRy7mvKSLiIiIKGEC37URNr2RqP9jChYREREREXmGLSBEREREROQZBiBEREREROQZBiBEREREROQZBiBEREREROQZBiBEREREROQZBiBEREREROQZBiBEREREROQZfg9Iv3QFr5d/hMlHbsBnnrxGl7ll/OyIPfwiQiKiq9MA5JSMR14a0MAvySMH+SWKU6YM1nOA/+AxHCq/rOd6Eu/bviQ5LSBfWotXy1/F2i/peZMqL8eGe/U8JcXGso8wA8OwyRZ85OP+n2/EC29Zpp/fhQn63aBrcNeeDOR/7RT2LNdFRJQ08o/55OIBxsysUZi+fhTSjTl3CrIwWX6jsi9VFxjSfaJMlOfN0gWUUOr8lmQhRc/3OH0f9KXrHfg28MA0DjkF+s2YpCLPth4xOT4PCac+q/Hur0UfvG6d5cexf80hMdWhQZcllwwsPLim5CmmYPUzDzzVhCU3ZWBrcSpe1mWGWrzy7VV48E5z2owqFOKRcEHIS0Pxo98PFkFIOzbqIiJKjoHZwSeJKcMHAv5LuKTnY5KbbglcUpGVq18SxewyGkplBTO5T5GDFVljOngQyFsaT6W+A3WW9aiKcW4eK6xXHW/uW0oMBiD9yZwOrPzCBdT+aihW6aLIREDyzklgaD6+OFMXWbz8ZCb2tbViSVmnLiGiZOk42430hdEDkeavR92pLGSZT1FnpSP1YB3q/HqeqA/oLD+DBgxGdqFuEYxbB+oPXnAE5UTUmySnD4hMtXpoPI49fx/WvavLJFVeiMbfFGP1z3SZV+7dgPI7gB3FhzC5fCHydHHH+5tw34bfGTOB/d4ill+JwjSjGCd2oHjVa3omBr6HUbl4jJ4Rat/G7GW7jdf6vZptj2J5mVFkmIuXKudj5P4XsaikVpflY92bKzAt8JvUjwPrnsLaXXpWk60fj08chB+FtH5EcP938MIiYPudP8VOXWSzvB0nv3YZ+zZm4649uoyIEkKm8EyK0krhOq9apoLMuISD+wZiysQ27C/7BDklo4Hy00DxeGTXWNYj0z2WjoL5qw0icDlY2gz7YwaZzpKHHD0nheZThy6DU3Vi2x3Ga72dDtvPGT+TajkulUte0Cr2oROjLOsLOXZ5jEVZekawbku9BxyuACapZZpxeE0bstT6LqBuy3E01BiLdnn85roCP28I7k+Y47aIJRfePPbDNRmYJPPp5b6Ui11U+yePoR5tetmQ47e878zHt7Oux9h3iGtSP9z6M9Zlgjn0Bsf5E8z71n6s5nlx7HfMgvuo7pvA9bKv1zzmaOc7eG857++uOM+BYLlPon5uHfdTyLWxvO/+ukldXxd3oh9bQLTPm03oZ9rG1e8b5zm1HJvz5x2Cv5fcnp/Q47f/bjPel78zazA6wmeEEuUqC0Bk2NGBar1ft61+FStvRWDe3D/ZaBsITHQZrIGKC3NKn0TJ9GaUz34OL6oSHUScNYMQ57ymAhNRdwj8XJiARC2T5QhCjM7jM5quxxifm6zkOXjsrSJkV23G6lIz0HHqxJ6KM8Cv2CGdKDmsFa7gHz+3lVhFVhZkAKIq8elo3nIJNxYDNaXnkWldn6pUDLT9YVZ/+DOtlQK5D9m4WOqs7MHyc/qPeEukSokQSwCi/8gHKgKO/TSWuRRaSTa3b1aWVOVGnoPrkeoHmnQAZl+ui+M312WpwIQevyH03MUmcOyycrcrRZyvDHEMl/BhqRH8BM6TPJfzOnEocK718cOx7bDn3MoMEoRARTDKtQxzvkxGhTF4joz57lfSwp5TsxJqVoL1PKIEH12fi8hcX9co50cR708e3mTZR33+nZV5l9fNVsnvatsRuDm2Lj9vNmH2zRRmH0O3r9edZr13RJlvCFrKrPsYbR8cIp6bMOdfLZtlCWTN/REvA8tFuG7UbUlMwUpF4UPlKC+3TLpy794E3Le+DGVl4adHi/RirgWDD+l3+4+JklRkmM0hmq1V5N11qDwhjmb87bjNKHFhLoqnp6FmmxlESLUiWDgp4o6JWKHndx8WfyXzv4h181SBIIKSeWPEW0cCPzen9IsoaKvGs4HWEKFsJw60peHmmfm6QPorRqSLH/3PaMGHtSN6Eca1V+OViMGHdC0axW+E/M9G/TVMRN1yARdFXTleqt+I0oFmmYY1T8zXnHdUMMQf1hnyD+1p2x/ltl318KdlIDOQcy9zqO2VyM7qVvgxGING6wJch0HiD7S/6RM9312yImupfJ2+ZNleKkaJSnpDhXWfxD7uaw5Jr5FlxjEPRlrLGUflw+3xS/anp6HHn0hiW7vMSo0IRmqaQivwNc2W4EO6jJaaC0DaQJhXPiayIhWoAF7GxRbxT2ZKTJ3p28qOoc4/GHnFWUgRlTgjGIkv+JAVXrPjuFpPuaNyLI+/Ql7vPOTNEtex2AhGQoMPWVHUHdB1wBJr8CHvk0GZ4p+WTsfnJw576x37KD+f4p8Yz3VK8fXIEQFjjXVde5vU+Y8tVc3Nsbn/vEXn7vOWUjxaVPad947Yni34SAx1HmVLhvWzJK7RYXFN0gqG2K+JLdiI77pR15IYgMjKfjGKiy3T89WiNBZH8eoaH3y+8NPTFXqxBGtssLd01J0Tey0+NI44JbJ512Ok+Kdg8dOorLRMKh0rC2N0wLGn5D3UwBJIzJuGm9P9OPBGsEWkYLj4S59eiBLreiqNdKwhw8fqpYQ5IgDRLyOzd0R/5mg+Hnnr+7g/TB8QIvJAQYrloYxRse9OfxD5Bz41dyCaqoPrSMu+TvzfWHfalPGByl6gouasXMungiHLWBn59YF1dbuj7yVctAYLssJpdiLV5yenyLI/clKtFAMxKBA42IO40OAohuP3lP3YI117+eTYut+RU3e65jw3bWWHLAGJWzJQrUND2ihMUU+Q7RXNWNg6om9pRfbSycFR4UyionhQ3HM5Rfppedgn0faO6IfFX+yYR5QLVLblz4pz3a1RzuTTdPt1i5ZyGYkapEKeZ8t6pq83ntIbn223XByb689bV9x93tSx+VtFQG3MJ5Pa1qm2kCC57Yg4J/EG89Qt7ITulviQ1OmXbsn+HbNnOydr2tRuVNeKQGLSNMwRc3NEIDKk9r2Qvh1oq0ZpyHrEZE3d2nMtGvVLt46Wvo6q9jRM/YrcemTtZ6/Vr4goIWTaheUPcp6odE2XzfziLeOPf6wVJ01V3s2n9/rptoVMNQhU9ixT4EmxJSUh8P6Wejj7sgcqjfrJtKpcJHFIWpmeFdifwBRb+onU5fH3QiptRbUwBPdXVsZ7nCV4jq0iHIW4f2tUcJsdcv8HR4tzVxFuK5NDxGbhRmcw0xUR7KjzLO/7QMU/1s+jDD7M1KLgdZNP2+MiU+Ys6wlMsaYEuTy2q/nzRt7p5QFIolOw4pM3TPyaPXcarnuA7DqDj8U/I2+wpkiF9+Ib1Tifno+588Q0CbbWD6nmrPjTn56Frn/fxp8u1d50Ur9yMtK6Gutj/TJDIopKP+VXFXizcqEq+mZF0306i6qYdZky8gkuil8lXVUUjXSuZnwYkt4SgVmhkccRksqUADWdqtU8dXh3R0Vyd/y9j06bOeVMKetpqSJoFsGzTFWR961Kj9JvJYJjKGqZpmUGYYdP6dQv/V5X4m5RND+j6nNpGWHOFZ2meDBMSl2MLjV1I90ukkjH5vHnLSnHFoHaVpg0svSJsv9YnEOfU7f08gCkZ1KwrGRH9YVjO1D969BRsOY/poOhx+brEtNulO/3Y8j0FXjJp4si2XUAH7SlYdraFZgm+4U4Wj+MNK0xKH7zm6qVJLJrUHlEVERu6nT93R0LfrIMU4eexDuR+oEs70Q+BqMxWjcRIopbsP+GIIfTdaYjJUww/SIkvcWi86z8M2x5wmx2ANazkRjHYdn3kIqM7sip59wLpnt1r4Lr7vhjYVSekhB02YT20Qh0XnfS5zxnYndT4rqW7pPXUqdC6VaLnKIEfCnfrFHq2OS1CgTU4h4sEGVmmpdq2ZBP76Om/skWCLGPIriv7+7TdvW5DNNPS/dVCt8PI7QCbrRk6RmrLq6bMTRxFiYlo4Ux5Ni8/byFPzZx7XzOY9Wfg24Mq2z05RLbst43qv+Stf8YeekqGwVrhK0Tesj+WEbBCqrDjuLVCA0/ZOvMd0UFXrys2w7fj982ii2MkbAcf7qtQ/GaIg7JazJGwrL/bg8zFO+cDvx51Tng9zfgM7ZvQRdm3oUNjxRC7m5AXQUe/F6k8XVjHVWLiGKlKpPZZ4xUCpX+JIeAja0zr6rYiN9T4dIxQkad0SlWNoERkQz2ipJ86nwGg5aGGxrVyjqKjWbbllyPMSqVdZSv0BF3wgtb6TY7iqrtmKPeGIGOMSqPqNQ5R87p6vht61LvBo433ChFzkplcDSdrtmO3bYN6zHIdTmCN7m/csjlcPdKyLWxXhfnesOJEiiq8y2HeDb6H4QbvtToUOw2Vcf8GT2rOO4j83o57tFAue0esF/XWK5FULjjj3JMzu1a99N5LcS+HhR/T8MODRz1ukkx7ldY7tcR9fMmRAymIl0/K+e1DLkPIh1X6P0SvAe7um/N343O5Zzb0ttwjLYV8nuUEiI5AUhf1VMBUsjQu/FT3wXyhQHYWuTmywgjS9R6iIiIiIis2Am9p837Jrar1o/uBx9S4BvMK9pdp2KFWN4ugg+336hOREREROQeA5AeItOz1JC6awvxccTUq3hcg7uKb1BByIKnruiyWFzB63NaRfDBLx8kIiIiosRjChYREREREXmGLSBEREREROQZBiBEREREROQZBiBEREREROQZBiBEREREROQZBiBEREREROQZBiBEREREROQZBiBEREREROQZBiBEREREROQZBiBEREREROQZBiBEREREROQZBiBEREREROQZBiBEREREROQZBiBEREREROQZBiBEREREROQZBiBEREREROQZBiBEREREROQZBiBEREREROQZBiBEREREROQZBiBEREREROQZBiBEREREROQZBiBEREREROQZBiBEREREROQZBiBEREREROQZBiBEREREROQZBiBEREREROQZBiBEREREROQZBiBEREREROQZBiBEREREROQZBiBEREREROQZBiBEREREROSZT+Xm5v5Nv75KpCJvfR5ycAF1W46joUYXx2wAckrGIy8NaKg4hLq9ujgWs0ZhelGWnhFO1WF/WYeeoeQz7oXUg8dwqPyyLuv/UorHYcqUwbzfiIiIqEcktwWkIAuTS7KQomZkZW8y8mapGddkZWm6+LmQKbDexEv3JXf9AXvrsX/NITEdQ51flyVZwo5NBk/rxyGnQM8TEREREbmQ3ABk9ECk6ZcoSBEhyAVcPK3nXeosP64r6XVoEPOytUHNlzaj01gkRh2oU+vrTuuHdBkNpca+xNX6QdRDAp8ptn4QERFRD0h+H5CWzjgDBSIiIiIi6m+S0wfE2bfByV+PgzG3YBj5+gjT30KmFU1CHfYfSbds19nHw+z7YWrG4TX1aNNzoe/b+QP9BIJ9PwyR+5IEcu1NEY9br7OlOzn5YfY/kOPv9tgk5/HZ31fnOle9DOU8PpmCt3RUsBUsrusuhe6/rd+Nut8grmcbsizL2Y/LEG7/wy3XNed5ct5PgvNzYDv+yNfc2Efr+ro4fr2u7BpxHGezI34GnPdjpOPu6r5193kz2M93uGWc5zHy54mIiIj6h6R2Qg9UVEQFS1VqClrjrIBKRiUsYgAiKzmBipKu1CB8hdeoYF0KrTBqan2ZLirLqoI5MHyFSbw3eXiTpYKnK5FhO/5Groy64/7nuzq2dN84DNplOR5diQ7paB/t2KUw77s+rzby2LJxsTR4rYzrh+C69T5aK68hy4S9J4xrEnsndH0tbRVzUeYT29PnP+L204KBRegyknOfXBx/YN3ydXD9kc93lON2cd+6+7yFHq8q8w1BS1mU89/VfUVERER9XtJTsPxNn+hXSWarDF5GS80FIG0gBqr5HrC33lG560DzKfFPZkoSOrdfh0Gi8pmIc91W5qj47W1TfW9Shw8w5l0RFc0ZWfAfPG1bV9uuevjTMpAZU8d12dcmWPmWOqtb4cdgDBqtCxT7k/OQZWZli8qwWKbcWRmPXbpPtkaIirWtYt8RCD5kxXrUlMGO4xfHUS6OH1nI0gMxdJafEed2MLILLed2VrpY9wU0VZv3jtvjF+RnwBJUX2qK4zPg9r7t4vOWUjzaON9brPsujiUQfMhlrldBXI11e3ubUOd3nBMiIiLqV5IYgAzAoEz9UhiYPfgq6w8inwBbRu0SU8TUpW7rQP3BC0ibMt7Yli9Vl8dBpk1Z9nm6fPqt33LPCIgC+2NOKh0rTMW5K/KpeMh6YpMyXFSN/a2ioqwL4qbv61NttqDARg+4EAwitJrzaPJbgzmjcp9WMCRQuU+fmCXWLQIT6366PX7H58vobG4PXrqWmPtWfd67ON9qmbRRmGLZ1vT1RktOWvZ1eikiIiLqb5IQgJgVGF2R0JVQVYnJzVOvYx2Kt++R58BMP9GjdonpsHySnCSBkY0qmgPneXqsw+2afTZkuk1gv43Rx+Ih+xgE1xOcnCl0Uen0Ktu6tsiWhP7B3iqUiizxOWk4Ykmj8/T4vb9vjVab4LYCU1ypiERERNQXJCEAMYenlRVXmYIhXxvfc2FWomKqgPZJOiXqYFOMT58TwPxuERmIxJrupIZNFtdsV3crf5/gorjeiXiKrVou0IwPbWlBcXKmI6mWilhdxsUW8U+0VLqaTnQ4U6ukgiHIFvdFx1nLsahWEb2sTL8SFfJ6y+cjocffpcTdt27Sv+JKESMiIqI+L3kpWLbKnVGxsVW8ejGjYhRrXwWr0Ap4oOOuR4yK6yVcdKTARD2205ccfQt0B2Q9Z6OXDZ+rL4LQfUZLzOTicO+713n2kvj/QAwy99c5spZLRr+JLNxo7k+c65GMVotRmGJLdRPnKjCvU6umjLZ8UeMA5BSL7TkCDLP/hEzDypmYBb8ISGxpVAk6fncSd98a/VuyMMnWCifOgS84H34ZIiIi6u+SNwqWqigNxIcqB92oyIYbwaorxog/liFBTZZOsOFG+zF+zjLSVZSKW7jhSJ0Vr+AyUSrl1hGunNsT7x1sut42EljEY3N0qO5S2GOzjj5kF/nYQvepoeIYLs7QQ7w6n8Lr9KAAyzVRnO9LzmVcsO+vPDdnMGip5X5S23GMnKTPSYf1nrPtjzw/TRhUEuHYuuS8D0LPd8j1DTsCmmSuK/w16/L4zdSpLkZBc173IMt2Xdy3aj1dfd4UM6VLz4a9r8N9nmK8/4mIiKhPSeowvERERERERFZJH4aXiIiIiIjIxACEiIiIiIg8wwCEiIiIiIg8wwCEiIiIiIg8wwCEiIiIiIg8wwCEiIiIiIg8wwCEiIiIiIg8wwCEiIiIiIg8wwCEiIiIiIg8wwCEiIiIiIg886nc3Ny/6dcUizkd+POqcxiqZ9E2DD8qTsXLerYv21h2Cktu0jNC7a9yMeclPUNERER9zADklIxHXpqexQXUbTmOhho9S+QxBiDxUgHIRRzamI279ugyp/u/gxcWjdEzQHvVZqwurdVzXsvH/T9fhqmBiElor8Yz334dR/VsqE7sqTgDxBqAPPgidn89X8+E8Zc3MHc5IxoiKaV4HApwGofKLwOzRmF6EXB4TT3a9PtuyfVMmTJYzwmn6rC/rEPPaAVZmLx0FDoqDqFury6Li67MtITZRoKFHFe3K06pyFufh5weroCFHped/+Ax455wK2HXtq/y7p7s89TvmYEMQKhHMQUrWVTwkYWqZ1bhwTvF9Ew1MHUZNpREqZgnVS1e+bbeFzVtRhUK8cjP78IEvUTCvLACc+fO1dMbYsti678058XE4IMoYGB2sBKaMnygqHlewiU971a6b7KozF4Sgcsh7DenI+mYXDxAL9F3dZYfDx6TmA4eBPKWjkNOgV4gBvI8TV+fjosHL+iSnmM7ri318KuAKHicMQUfRER9DAOQpJiDxxaNQXvV63jlHV30jnhd5cfQqUVYoIt6lghI3jkJDM3HF2fqIiLqER1nu1PZTEVWrnxi3mRvNdlb3y8rsZ3lZ9CAwcgujC24ki0Ok1AnKvf1aNFlRETUM5KTguXbjScW5wNt+7D5q3eLPxaGws0nsFAU120bi9fKdKFXRs7HQ0s/jww9G9SKP2x5Hm9/rGeRg/kP/SM+b12w9Q/45+ffDhyHEi0Fa+Zd2PBIPo4+88NgAGJJgTq+fRV+/IouTqj5eLRsEcbhOLb7nsbbujQi1UoDbL/zp9ipi+ziTMGyWY4Xd38D+OVcrHhBFxGReho/SQQOkbhPwdEpReFSrrTo6T7NjpQvM0UpqMFM69FpPoE0cofAcprzGJ3vx8fYP4Tsk/04zGMOdx6N98Tfot6SgqKOIQNNcexP965tPGloRqpTdo04r2ezMb0oS5eHritk3yz3qHqvoBUHS5vFXxqHWFIRXd+Tbvfb2VfC+VkMrqcGoy3H5zzX4a5NN9L+1Dkx9znc74cYrm3EFKzwaWzqc5xZr64V9HU7XJOBSfLY/KK8XFwGx2dQ/YwM+I+kR71H6Op1TXp6+v/UrxOn6uf436lfxn+b8lncNL4DByoPqqBk2W1ZPRN8SOdr8f+9+y7eDUztyP3SeLT+5mn8yvJh+Nzdj2DmIBFwPP0K/sNc9v+rxXn9fsC4T+D74l/R+N5g/LJOl5lm/zd8fcJFvL++SqUfqRaRt5ZgcEUFWibkI7u9Drt/Kz7ICZePGXdMQCZacPQ3+/S2IxH79OStuKaqHC9E3JcruPce8UtI/AL5+fu6KGafx5e/fbNYx8/x6z/oIiJCZ1UjTu/uwHVzM3FeVJL+/M+t+Ou0Ybj2g2M4+OzHaPzgil6yK5/gYtYQjPz0CNw4dwj+erIF5x0f6SsftIhtie2d/CsypqShRW1Pbl9OfksFUFZAsuB/8i+oVe814qxYd8HtmcZ6ay6iUZUb+5p5RlQw1n2k19OI1hN6NWo9EzH+kuV9se3R37gJqVesy8Uu3TcBeX9Xj2M/vyh+QwnNYp/UcY3AaPH35nTVJ6pSOvGOLFyOEMRde3MmRo4EWqtDz1WPGDYII6YMxIU49sf1tZUV9VW5GCDOiby/5PtnszIx6Y4bcF1M1+QaDPnSMFw/dhhuzL8oKpzGveIffwPGf/6vOPtb47rICugtn/YH3lf3+tfzMHGasQzkNRgLtNjuP0PK3w/HyCHn8aFeV1Ty+qv1d3VPut3vMbhux1H8V7k+h1euxU23j7aco+B6Rn5yWm9Lfo5HIc+8/yRRyf/7268VFW7LunbHd7/JQObvbx+qginz2rbdfD2GX/Yb64v12oro6sb8a8Pc/8axZV5qDR6HMHDqCAwf5MfHgeuWheHy2LddRMYXMjCsAPjwyQZcEecgO6tV/e5SP5ObiRuvb8HBJ0/ihLo+Oci7OXiu6eqWvBSssrnYvL8dGdMfxoJ5G3DP4ny07i+NMfiYgPvWl6GsLPz0aJFeLA6fu/vLGHv81/iXal2g5CBHBurNDfbWjhhNGBl8SqFaQ96agXPPJKvVw+ptPO3zwRex9UO2wmzEC2/JqQjj2qvxSo91iiciwwVcPK1fxkn1J1D9CAYjb6ns5zA5zv4fl9FQan+K21ndqtY7aLQucGNWtqjjNOOwtUWmphkfnhK/ZSem6gL3ZAVMHpOcJuVeQF2546m5WPehClGTys1D3iwR/BSPQtqpurDBx9UqfZ44J/561FjOSWf5adT547sm6sm35Yn/paYLQNpADJQzokJ8Y65sfbDeSx2ok9coLQOZosLaedba00k+vZ8srp0xp/pFtXSGtowkQrT9FtrKHE/o97ap+kDqcMfnydbi2IFmcW8jMwUpRoHRnwuXcLG7T/vFuSyYYrTkWVsPO8vrA/uZ8GvbJfEZ3GUeu7hWNY70T5M814EWrstoqbGfa7q6JbUPSEPJLdhROxRT1y5BXts+lJfEOkjtUby6Rlaow09PV+jFYlX4LXx53An8+hd/1AWmBrz93glg3Jfx+OOP4/GH5tvSENw6+rF+pCBTnB7Jwjt3WlOxgKaPe6rSb++I/szRfDzy1vdxP/uAEPWMghRR9TJdh0Fp3egPIivhugPzYVEZSpsyHtN9cVQ+ZHqGruyrKUp6SyRG5SsLk6zrEZNKx7JU0tyyd9huRbYIskICrL2isnPwAnKKZPqMI/i56g3AoExRH6w576jU60phHNfEGSAY10hX7EcPVOk4zc50O1WZ18Hs6UsisB2IQXIwgVnp6m+ttbLsbwo+gU+oaPstydYE231rT0d0y+irZH4G4hs0QVHn8gKaqiP9XkjCte2SPbDqXh82uloluRP6A8gZrl+mj8BI/bJnfQ7fumMsTvzmX+AMP5Tqf8GPfvQj/GjLH9Ca8Xn8owxEHv+W+KkYHG9GO8Zg0cxmPGPtXzFzBLL1y97gaOnrqGpPw9SvzNElROQJs5KjKvdmq4VR0ckpkq9HId1YMi5tZXK0KFH5yL0+toqPzjOXT1uDFX7ZshIPmQ+u12GdwuX8x0IEWjXi2NKmZIeco+CIYrpiS71XTSc6dDAiA9aGijo05KaLa2pUqHuE/FzKz6Rs3Qjcs2K/9Nux6UCd+vljqPMHWybNVh6iq11SA5DCzSWYml6LHbNLUdWWj4WbN+h33Ep0CpbsYP5lZFT9syP1KoyP38bzZiCCsZhcqMvdeKcRTeKf9qNVtu/YmPDFfAzFSRxKeipWbNqbTupXROQJs7VCpqSolBDx2jYUqzV1xTtGy0UzPuxm6pKRXpPkIMAxXLFM01LpWeL8HT4lKnzFWUl48ttXXcbFFiCtYIjjnAxAZkES0p1U60YWspyVbdXSYaYcfoKLKrKV+3AJzXtlGpP8mW62BHaHbm0IphclgkxrNAOROFKi1LmMlgLp8bUlSpDkBSC+3XrEq7moxsvYWbYPrflLsLL0Ab2AG4lNwcopWozP4w/YVhHD84ycbGSIEKQppkcge7BdDbl7VzC9aaZ4PTUN7VUVISNOTbh3vRFUPTZfl8RLjoIlg7NHxauuLfiJHJXrJN6Jsx/I/Md0MNjt/Sa6OhkVfk1VfuLIGZdPbUNSrVIxSo5Qc+qMPZ9dPXWOXAkKCRzMJ8J6Nsio9EA9sQ5jb5N+6tu9lpywZo1SIws17LO0pIj9NPLkT6vjbSurQ0OaWC6eFDTXjH4L3UqvSaQurm3bEdn/YhQKLKlrKcWjkZeW6Aq3UHMeTbKyXWS9/uJ8ydGQAvekcQ+lzhD70NKmAm65jzkzrhdLxtMvqot70o2Qyr5zZKnuMAKrmFPLzL5TRfb7LKV4VGA+cddWn0NL2lZXo/URxSspw/DmlP4Jy6YPBWq34gfLVuvSYLnsjL4p5v4g3RRxGF6gteqf8bwKSj6Hbz3+ZYw1ijXnML2ai29Cn1DyfTwigg5TxOF3ix5F2VfGiRftqHpuDV49YhTHLsowvGpo4EJYvwgddRV48HuRvsZdijYMr2yd+q7xzep12+H7caRBfzkML1EkapjO7DNGZ1aV/hTft6CbqVNW4YafVUKCCvvwofYKh2xROINBSy3D3gboITst0Yl9mN3Q96XYhuINtw77/gaO3dbhVTDLzc7CEYMpwdah2C3LvsX18xZq3+Ibhtemi2vb5fuu6ON28Y3jzsqr8540h6kN3hNmhT+e/ZKi3ZPu9tvcJ1NDxTFcnKGH71X7Hn496lj1ULXyHgxXcY/4mXTBuV8h6+ry2kYJpmz3r305uR013LAeMlkNw6u+9FSsW2/T+PZ94+dS9X45z4dkHIP+WV1GV6/kfA/I1cBFAOKeWZl3+f0dnknE94AQEfVTOsjpTsWSiOhqlORO6ORK0ULVktB+YEcvCj6IiCiyAciZIVudut9nhojoasMWkHipFpBzwZSmtmH4UXEqYkssM1OmgOP/3o1hhRNsY9kpLLlJzwi1bAEhIgoIpMM4076IiMgVBiBEREREROQZpmAREREREZFnGIAQEREREZFnGIAQEREREZFnGIAQEREREZFnGIAQEREREZFnGIAQEREREZFnGIAQEREREZFnGIBEUvQoyh6br2cikV8k+Kj4vzcm3Lse6++doOcoGvlliifL4vl6sCt4vfwU9izXs0QUwQDklEzG9PWTkTdLF1Fc5BcbyvM43ZeqS4iI+rckBSC3Ye2WcpSXO6aN9+j3e8j938ELb20MTj+/C/bqvAwo1uO+iXpWmYD71pfh0SI9K8x/rCwkEJDBgT1gycf9P7dsS0yP3a/fisXE+7A+JMgJt59keuCpJiy5KQNbfSm6xDCh5Pu26/HCW9/H/TP1mwHX4K49Gcj/GoMQii7dF6x4qwpkSRbsd5xLBVmYLCufgWkU0vVb1MfNGiWu5zjkFOj5HqeDRgY6RNTDkvRN6DIAWYnCcztQvOo1XXYPNpQvRJ6/GpuWrsPvdKlnZt6FDY/k4+gzP8Qr78iCOXjsrSKMq6vAg9/boxZRZMvHV8ahve44msRsdt44DG2vwrNrXsVRYwlBBgCLMK79OI6fE7PDxmHc0HZUPbcGrx4xlljwk41YhOC6ZeX3kalAVWD77sng5rvThuK42CdpnNgn1G2H78dvq3myWN6Ok1+7jH0bs0UgocsiiHZNZBDz+BcGYGvRUKzSZURBsiI3HoP2HULdXiMYmYQ67C/r0O+7IwOXKVMGo6HCWI8hFXklKagvbUY8bXjUi8gApGgg6rYcR0ONLutRxn2b1xL7vUpElEgepmC9htW/qQPSxuP2L+kiL73zOlbfaa1o7sH2Kj+Q92ks0CVKxdPw+Xx4tTFbVPTFj4nXPlvwIb2Np2X5z86pAAV7xWtfMPiQdn5vlS2wOVq6D8eRhglfzNcl7h392Rq1T4cgAp1h5/Cs3DaDjzA6sedrrWj/fWaXwYcU7Zq8/GQm9rW1YklcaVx0dbiAi6f1y3gUZKFABB/+g8cswYfUgToGH0RE1I952AIifGktXn2oEI2/Kcbqn+myHhT2CXi4FpCQ1oZwLSDHsd33tAhNIonQ4uJCuBaQ9gPPYs3P7GFRVOrcj8ex57cA94prk6bLT1ivkXHdxh/bhC1YipW3ms30ddhRvFqEkDGa901sX1uIIXoWbdUo/eq/itBPmouXKuejoPZtzF62W5WYVmx+GsXDrcvmY92bKzAtkJfix4F1T2HtLj1rUq0fiKHVwrgm2L4KP35FF1nF0JpCVwv9BNn8/IRhb82IzGj9uITDa+rRpssiMVtKAk5ZnmDLFK6lo9ARst1U5K3PQ451WfVEPst4rTQ7tm/8DMS66odbt2ldznkOLkR4wh96rmSwdaj8sp4z3s+uOYYajI6wLZNzXWGW0echsIi/HgfjCuTcHF/osVm3p1rEco3iEJblnNfVfn4Edb2AwxXAJHXd5HG3IUte15D90tdbz0mBe9F5bhyc96xz/93e00REbnnbCT0vQ/yK7EBrnZ7vYeOy5a/jZnwcaBURgcVXslH1nA9r/iTexyGs8T2LqmGLHH1AFiFbBAC+NYfEMQGH1vjw7IFsLIrWaX3mCGSLf9qbThrzbk28D/dNaxLBjQ87GrOR3bgDPt92NE0T5TH3AUlF4UMrkfFuMYqLxSRbpMYuxIZ79dta6q0rsXL8MWySyxRvQrU/Dwu3rBXhSQx8D6NybT4+WPcoZs82pvKzhSh585ui2i/tRvl+v4gtJmKFmjfNRWE+ULPLGqiswM2HXwysZ/a2Zkxb+yTWzVMLBGz8bKsIcq4RlRl3FvxEBITt1dgeLviQXkpBrfgjPyL2Rivqty6jofQQ9m+pF2GwrACK12vq0CDekZW0/eJ3gtuK2sBsUfH0X8IlPR+JrAwagYqxfrW93Lxgn5Oa82gSH6WcGY4+KLPSjUrqLkugMrFNr0NOx1Dnz8KkMH1XcorENgtacdC6XKDfgD4H8r2KZl0WKt03Gig3t2UsmzZFVNodHdZl2ZTsM3o5eS6t25JkxVr8HETF3VyXrIRbl5EV9aUZaFLXw5gOt4zClJj75RjbkkGRuZ79FZeQt9TejyPd59wfMVmCnbYy82fl+THvk9DlOsuP63LjHgpPnI8Zl8S25DIDcWPJ9bi4RV6TwcibZ54DGRClo9nchpgOHrwgrqPe75pm8XdKlsufE/MyKLUsG7xn5Xp0OqH5vrjXU8X9wIEGiCiRvAtA5BP4O0Rt/UQl1r2ry7pkdAAvKws/WYOCmN3/HSwSu9NeVYGdushIrbKnUgFH8aoIMJ6u0LPC2z8WAYqj9UGlSUVMi8rH/fcXYihO4p3SWl3m0pFXRRDkbFkJt5/u1Flbn34m/vCIf0bkOEILWz+d34nrFWvqXL4IDsbg/P5/tbVSvPhGNc6n52OuDhz2vFOL8xiDfygN1vDnlH4RBeI8VZdZ5tuq8WyJ5byV7cSBtjTcPNMaGVzBjSLCaz8yEC/rknCsHdEX5flR9crrjvQ6q2vR2CaO5rOxP0Olq8ElXEx2Xr8IGm7MlcGN9Wl/B+pkxTYtA5mqUiwCgn3WeUP6xCzxWW5Fi7mPshJqy/u/LN67IH5uoKjWOsgKaqCifBkXW8Q/mSkxVebbyhytBnvbVCU7dfgAY95kbaERx9Z8Svxj2Va6Tz7Vb8ZhS8VdnYPAz4hKswi+/AdP27bXtksEiY5z0pWU4uuR469HjbUVYm+TquxnF5r7PQCDMsU/LZ2W/UkueX2NbQ1GWsuZMK1NMii0twh1VreKIHkwBok40LVZ2chLE+faep+I++ZDcU1yJlqDQiKi7kluADJ2YXAELJ16ZUvJ6pJR+Zf9H8JN1qAgJrJD+qIxorZajVciBQSyL0iX/SxkIBAt7cqw4CfLMHUocHz7Ty3BTuxkkBNT2lW8zp22DxJQ1yr+3KciQwRs7oxFVjowZPoKVFY+HZxUOlYasswKwa5/xX+I0z9k0jTdKiKCk0lpInDZiRfVvKh/DU8TNZBClFjXU2mkYw0ZPlYvJf0VI1wMHXS09Id48M5VxvRMLSY8shEbStjEQTEaPTCYzlKQIj4d3ewPEonaTjOana0qqjJvqVzq+WAlORVZMnAJVFwNsjUlONqWbFmxpHVZ+Js+0a8M6om+LQBwQba4WLY13ZEe5I6u7J9qc6RkWV2HQeJiyJYU67FNVylHsVXAVatU2ihMsa5Htr7I9Wdfp5fSAZ9shZLvxzv6mWv2e8t5bQLUiFuW/Y6SchVJynAZimZhknU9YlLpWDEGoERE0SQ3AJH9C1QajzH1hn4fxmhYRmvE9m9He/qdGGo0LNXSsjl8P4M+I/bUufP7LWlTlmm5bt2QXvzjSVEr0q0i86bh5vST+A9ra4ck+46EWY+974jRWhGTd17HK1V+DJ1aZB+IwKH97LX6FV31zEqeysfXFTVd0c1bKl7HUBm91BSh9SEuHag/eAFpBUOM7av0K3vgYuT129OBZJpOUph9DmypPtHSjLpP9p8Ibis4xdx3QfbRCLMe26hRe+uNMpmKFwhYenD4ZN23x3YOVJpgPGQ/E70O6xRrAEpEFIW3fUBilugUrDl4zAw+7uxea4QbMt3HDD5Wx5p61ZuovjuNOO06de4EmkUwYG+hiMCSTjVHplRZWj+kmrPiT2h6FrrOorgGHzYBQydewgO6xLX2Zhjd+52MVpXG+mv0PF31dMVTVdzNyrXK89eVthgqaUaKTBZuLHakJFmdvqSWyXLm3+v+HdYn42p9OuVIpl/5DzZZWg3MloRw6TtJoFpuLP1P4uYm/esTXBS/JoItFPGLOSg0+1aoyn6Y6+QRo+WiGR9aU8fi0HlW9kgaiEExpK0REcWjlwcgiUzBkl8MWIRxHgUfso/JI1PT+n7wofvudLy/I2QULPmFjCoYDOl8X4u1u06KUz4f2y39O8Krxe7DfpWuVTId+OAd+7naU/IeajAGxYHO65Gt+s8MUfO6iNldLWjS1+j4OxFawpZ3irtmMBr78OWj5FCpOpqq/LnoTB5C59aHdsxORZ6zg3mR9em6eF+2wDiDCbWsTMMSFeHcC2iqtlZGQyvyISNrJZIKnKzpT6EjNLll9OUYhSnOjunWTvE6JWpytGDOhc5ycU5ly1asaVU64ApJw9PnIZgalxwhgUPEUa/0fZCbHr61Rvd3yRM/22OtOUR0VfB2GN4eZAy5GyEjNo6hcaPTQ+7qOTt/XF9G2G1hh0A2vhxyxPubcN8G2etDXzfHabJ1XA+QrVPfVX1bIn4pohwJa/EYPaPZhuI1RR6S16Df13OGcEPxdmJPxRnk/+V6jHF8C7oRgBp9cYKiBaNX8Hr5R5jRFG5ddLWT6Uw3NhlDpqqKvBwxKt4UFZ0+EyRbU+wdip3DooYM12oy12Xr2G1yBAEy1WjfQEyRw7wGtmcskxpp/UqUYMKyXWeA01BxDBdnGCNMGevWQ9k6vhRPHWtmcKhag3Oboeco9DwKliFv3Qt3fDJ1zexU39X7Ds79suyT87oG6eNTP2t+kaH12oig1HHu7OuS+3MGg5bmqSGV7WlooUMI24fZDX1f4lC8RJRISQpAqG/qqcDRCDCwzd4/JC4J+u4OfhM6ERERUXL08hQs6v/klwwarR/dDj6kl4Zi618uYMaqJrzuNhXLSQQxj3/hAmp/xeCDiIiIKNEYgFDPkN+Sbg6pezZS6lV8VvlyjSDk6/EkxFwRgUurCD5yMeclXURERERECcMULCIiIiIi8gxbQIiIiIiIyDMMQIiIiIiIyDMMQIiIiIiIyDMMQIiIiIiIyDMMQIiIiIiIyDMMQIiIiIiIyDMMQPqlK3i9/BT+/NQVPR/JBtxTeQIrSx/Q80E5pX/CE+K9JzZv0CU9SH67eXkHQveSiIiIiPqapAUg92wsR3l5mGnjPXoJSpaNZR9hBoZh05PX6JI+7qVU7MM5PM4ghIiIiKjPS/4XEX5pLV59aDyOPX8f1r2ryyhpHniqCY9/YQC2Fg3FKl0WmWwBWYLM/aXYVPKyLuutOrGn4gxG/P4GfKa/BFZEREREVyGmYPUnczqw8gsXUPsrN8FHX5OCOb/KwNAvtOD1ObqIiIiIiPqcq6cF5N4NKL8D2FF8CJPLFyJPF3e8vwn3bfidMRPY1y1i+ZUoTDOKcWIHile9pmdi4HsYlYvH6Bmh9m3MXrbbeK3fq9n2KJaXGUWGuXipcj5G7n8Ri0pqdVk+1r25AtPS9Sz8OLDuKazdpWc11foxcRB+VJyKSO0ZhZtPYGG+ntFaLS0gsu/HsulD1WvJ+p6k3p90CDsOT8ZCuVzbPmwW+1+8dgYyUIsds+eiWi8b1bxfYGWYnzG379yuQfZt+Qgzmq7HGF+KLiMiIiKivuQqawHJw8Ly2Wh9vhjFxcXY9H4HUm9dirVf0m8rqSh8aCXGH9uklil+vhodYxfi1dW36ffdmVP6pAgwgPLZj2K2ml7EgeHzUbl5rrFA2U4caAMKPqfnTb6JKMBJ/Ecg+JAByQrcfPhFvR4xbWvGtLVPYt08vYhyBbMnXgCaro0QfDyABW+K4GO4CBhmj8UP1LQVdfpdU0PJLRHfC0ifIdazEz9Ytw+t6ZNR7BuB36rl83F7mA7tYe26G5vkz4ufWWh2dBdBSXHE4EO6BpVHBgPZf2VfECIiIqI+qpcHIBNw3/oylJWFnx4t0ou51oFqS0vM7/YfEyWpyDCbQzRbq8i761B5QoQl42+H+xBkrqhIp6Fm23N4UZcAtVi76ySQPxEr9Pzuw34x/0VLIJEvXo8Rbx0J/Nyc0i+ioK0azwYCEkEFL2m4eaa1KeOvGJEufvQ/I7QM+JZgano7qsruRoMuip9Yzxur9euhwOGt7lo9nGQQsk0cV/4S3OMTAZJvBjJqt0btj/Jy/QARAF3EbKZhEREREfVJvTwAOYpX1/jg84Wfnq7QiyVYY4MOPrS6cx1AWkYgbatL867HSPFPweKnUVlpmVQ6VhbG6IBjT8l7qIElkJg3DTen+3HgDZ2mJRQMTxMV7kKUWNdTaaRjDRk+Vi8lzBEBiH4ZTs4N4t22Q6h2pG3FpxENlvW0fBQ5YOhS2Vxs3t+OvMUlIkCqxY5lZmBDRERERP0RO6G75W+NnJIUgezfEUibCkzWvhu7UV0rAolJ0yAf6M8RgciQ2vdC+nagrRqlIesRk9mfRNpzrQgL+qaRw80+JyOQY0sri2QAPtyjXxIRERFRn3KVpWDFJ29YKnDuNOztIlHsOoOPxT8jb3D09g7jxTeqcT49H3PniWkSbK0fUs1ZP5CehQI9H5kIQNqA/M926vkw0keolpmAeTciU7/sKbLT+cL8dlStG4sdtUMx1fcL5Oj3wnlg1GURkF2DGj1PRERERH0LU7C6cNvqV7FwbAeqfx06Ctb8x3Qw9Nh8XWLajfL9fgyZvgIv+XRRJLsO4IO2NExbuwLTZL8QR+uHkaY1BsVvflO1kkSmO2jf1ImNusSq4Z1DqsN3oJN4YBSqHhTodP4cdorjrl62FXXpM7As4revd9XRnoiIiIh6u6QFIIFvQn+oEKlqZKm+803oeXfofRXTylsbsaM43BDCEzBymH4Zxp6Sp1AqgpCQfiDmKFgBunO6ULPrXxGaWbQby2e/jZqQfiDOUbCAl98dhHYRZix46oousdAdvjOml+CJyhN4Yq0cuaoUVW36fU0O06ver1yi+rwElq/cjUJjkcTw7Rb7IAKgtn0oD3Q6X43XdKf0J8IFIcs7MCN9MPb9kkPwEhEREfVVyf8ekL5EfQ9IIRp/U4zVP9NlXlDfCSKH7LWOmhWf2L4JvS/hN6ETERER9QfshN7T5n0T29UXEnY/+JBefjIT+9pasaSiPWwqVt8kv4DwDPLbhmETgw8iIiKiPo0tIFYetoDILyosmW581Xrot6F3l/GN4ZOP9ERrwQbco9O3oqnbNhavuT3m5e04OeeaqN/wTkRERER9AwMQIiIiIiLyDFOwiIiIiIjIMwxAiIiIiIjIMwxAiIiIiIjIMwxAiIiIiIjIMwxAiIiIiIjIMwxAiIiIiIjIMwxAiIiIiIjIMwxAiIiIiIjIMwxAiIiIiIjIMwxAiIiIiIjIMwxAiIiIiIjIMwxAiIiIiIjIMwxAiIiIiIjIMwxAiIiIiIjIMwxAiIiIiIjIMwxAiIiIiIjIMwxAiIiIiIjIMwxAiIiIiIjIMwxAiIiIiIjIMwxAiIiIiIjIMwxAiIiIiIjIMwxAiIiIiIjIMwxAiIiIiIjIMwxAiIiIiIjIMwxAiIiIiIjIMwxAiIiIiIjIMwxAiIiIiIjIMwxAiIiIiIjIMwxAiIiIiIjIMwxAiIiIiIjIM5/Kzc39m37dK+WU/gnLpjdix+y5qNZlUfl244nF+XpGaNuHzV+9Gw16lnqxOR3486qLOLQxG3ft0WXa8mlv4xs36Bmh9vfzsaJez/QCke/TDbincgny0I6qdbdg5y5d3EPcnMeNZaew4OwN+MyT1+gSIiIiosTpXy0g836BlSL4qNs2Fj+YrScGH31EJ/asOgf8PjMk+Aj46JeY+6v5aupNwUdf8tIB4/zN/dUvUavLnFb9chjwhY/w56eu6BIiIiKixOlXAUjOzMnIaNuHXWW6gPqIK3i9/Azy/3J9P3zqvhqvqWC451s/XNuTis/8KgNDv9CC1+foMiIiIqIE6VcByMjhQ/Ur6kseeKoFM9IzsNWXokuox700FFv/cgEzlnfgAV1ERERElAjJ6QNi9sNw9L8o3HwCC0WxTJF6zWUrRWhuvZlTD7TuL8WmkpdVqaTWP7w39Pm4DWu3rMT4Y5uwBUux8tZUXV6HHcWr8Zqeu2djORZiB4o/mIzyO+QRSR2ofv4+rHtXz7ox75vYvrYQQ/RskB8H1j2FtZYn7ys2P41iSxeZmm2PYnngWuRj3ZsrcPPhF7HoowWoXDxGl4euZ07pkyiZnqbnhNq3MXvZbj2j+R62rMNg354kWz8+wuQj0fscqL4L+CXmHghe7wCZerd2MmrWPSe2WYKp6bq8dit+sGy1nkkwtc0ZyNCzhtqw96nB+p5kvI9tW4HFxnLyc3Hoc8ZnxHlvR2N+ruw/Y27fuV3TA3jxa18HovWlUX1yzqHxV7mY85IuIyIiIuqm5LSAlM3FD7bVAukzUFyqn5+KoCTW4COUrlTJwGb2WKOyJYOdyhNqkuuX21ym5+V0j8/4yZ6QeutKrBxWieLiYjHtEOFHHhZuvEe/q41dKIIPiMBELlOMHSdSUfiQOE79tiu7/hWLZj+K2YHpbdSI4ppt1qBBBhci+IAIFMzl1lVj5OKn8ZLjHA2ZvkIEDkC5Xq68Ng3TfN+EmY0jg5iS6c2B99X28uej8s3gMiooEsGHDDgC2xOTPfgQ5lzCZBEwNNZ3N/VqKKauLUH2Lt33R95/+UuSc/3lPSeCjxZLX6PN+9v1myYz9Srce0F5ixegad1Y7BC7mznvT7j9bKlaPmP6EhTqZbpSvcz4+YzpD2PBPKOscHO04MOlPQNxqA0YMYp9QYiIiChxkpeCJYIQoyIlK0WiQr04Xz2hjTv4kE+cZfAhn2pbWzhksKMrerISplpd9LycYtpe0aMoKysLP62/DxP0Yq6d2IHiVWZ7x2s4dEL8M2w0bjMKNHuryGu/rkaHqDpOvlcXxGHF5vkoqH3bXtn3LcC09JMot7ZSiMDlP8Q5K/jcXF2gtVWjdPZzeFHP1pz1i8AuCwVyRgQW/yACvZptwfeB3Vi+7aRYJh9zdQUYBVkYAj+aZSQUTf4VETpk4P0EPGG3Bbdl74szKyr1NyQ6gegBcT+LEyDuw/gDaYvanYG+IRnpjfity1YPp+plpahqE0GY7xfIUcG+HHWrG8GHcg0+bBKh3cRLTMMiIiKihElqH5CGkltEUCCfTButFuVxVq7k0/uFMt1FBhfJSqmRKp6Gz+cLP615FUf1Ygnlb1UV5YB3T6NR/DMixx6muOZ7GMX5jkBDmHNDlvj/GBRXPo1Ky6TSsYZfH2y5kM6egXUgqj0lT2G2GZCowOIkqp2V77IjqEEaslSUIud34kBbGqatNbbjbGUxPTDqsn7VV+QjO10EO39MzH3YelZGzVpbIz7WL2P3MnZ+dSvqZAugCvaf6zud3omIiOiqkuRO6A8gZ7h+mT4CI/XL2NVix7p9aJWVq80bdFn/1tjwO/0qFnPxkkp7srZOWInAxJIOFZi++q+2gCMxarH2q8b6y2Ury2IjENleKiOeoJfrB+hX1G3zbkSmfpkx3H6eu6XpWhHeEBERESVGUgOQws2yQ7DMQ5fpIflY2J3gYdfd2KTz+lea/UoSLdEpWPH40miMQAdabc0ibsg+HvMxcv+Lof0shD0fNYv/Z2GMmSIVr5pmnMcYFDpbNHwTURAh5erFZcFAZMikafbWltpr0I5W3Lpcz/cRztSunh+BbQPuka2EMkVRBusJ6f9yBTdmA+1nr9XzRERERN2XvAAk0Olc5qG/jJ1lRqWoW8FDoF9JSXKCkJ5IwbK5BxseKkTqicrQUbAm3of1Khhaj/sm6jKLOaXfxDRxpp8tsaT0WAVSoh7GCl0Ul10H8EGbbNGwrsdoeUHte7aRsuzyMUa2hjnSu8yOzvmf7dQFyTf/MSOoXH9vPCHlahwSp9jaSdwchaonBTqdyxRFEayXi89J3uI/BTqlxyVhAwQQERERBSUlAJFD56pheK0ddXWlqLvBg9GvRFYAS/BEf0jHSivEyvJylKtpIUa8v8nScd0idxgiPmOf9018Vw6Jm16IEkv/DnvKk0yJelEEIaH9QCL1zwjPSK0qr7Wux2h5sQ7DK4fptW6jsnIFpp0NM1QvrkHlkcHATX7PvvSurtEYlWrotIWYr17FxujwnY+FeqQ1OXKVGnXLSg2aYLy/bLq8csHlExs8P4AFbxoBkBHsGxpKnjM6pa+NPwjZ+PVzGNo2DP/GIXiJiIgogZLzPSDkivoekGHV2LR0HeLp8dF/GN8FMqPpeoyJ8GWEUb8HJGbz8WjZIoxrr8KznrRs9UZdfA/I8nac/Npl7NuYjbsS30GIiIiIrmJJ7oRO5MY1uOulYWi/6QxOliU/FWvCvTMxTvx7fO/VGnx0QX4B4dda0f77TAYfRERElHA90wIS9lukneT3GNzSr4cSZQuIg/rm7Ys4FOapu2oBuUHPCLXRvsE7EtmP5uGpGCrvrefW4NUjuryXkqmMRvpWFHJo6hi++d/NedxYdgoLzkb/ZnoiIiKieDEFi4iIiIiIPMMULCIiIiIi8gwDECIiIiIi8gwDECIiIiIi8gwDECIiIiIi8gwDECIiIiIi8gwDECIiIiIi8gwDECIiIiIi8kyv/x4Q48vYGrFj9lxU67KofLvxxOJ8PSPE+EVt1IOS/UWESRT5Pt2AeyqXIK+/f7Gm/nLRlm1j8VqZLlN61/HP/vQ2/NOkIXoOOH94A+78r716zsAvYiQiIkquJLWAPIAFb57AE5WOafMG/X6SyEqQCD7qRCXoB7P1xOCjj+jEnlXngN9nhgQfAR/9EnN/NV9NvSn4oL6j8r8W63toAw74daHDql8OA77wEf781BVdQkRERImU3BSs2q3BQGD2VtTlL8ETb/4COfrtRMuZORkZbfuwy/YElnq/K3i9/Azy/3J9P3zqvBqvqfu/H7d+RNUHj39PKj7zqwwM/UILXp+jy4iIiChhPOwDIioi22qB9MkonKeLEmzk8KH6FfUlDzzVghnpGdjqS9ElRD3spaHY+pcLmLG8Aw/oIiIiIkqMJPUBkSlYJZh6dit+sGy1LhMi5olHFppbb+aUA637S7Gp5GVVKhVuPoGFw3tDn4/bsHbLSow/tglbsBQrb03V5XXYUSwCMT13z8ZyLMQOFH8wGeV3yCOSOlD9/H1Y966edWPeN7F9bSGCme0mPw6sewprLU+eV2x+GsWWLjI12x7F8sC1yMe6N1fg5sMvYtFHC1C5eIwuD13PnNInUTI9Tc8JtW9j9rLdekbzPWxZh8G+PUm2fnyEyUei59yrPiD4JeYeCF7vAHVfTUbNuufENsV9l67LZQuc9f5LJH0vZ+hZQ23Y+9RgfU8y3se2rcBiYzmZOnjoc+IeFtfHeW9Ho+77kJ8xt+/cbqLoz7h5rjV5DMZnu6vjN36+4PBW1ExaotYj978cD4vP+9DYrp3Z78vR38s8L8F9spqF0nmrcfOHoX1AAlSfpHNo/FUu5ryky4iIiKjbvB0Fq2CEqLC1o6lGz8dMV2pkRWP2WKOyJSsfuo+JrGwgfQaWWfqd3OMzfrInpN66EiuHVaK4uFhMO0T4kYeFG+/R72pjF4rgAyIwkcsUY8eJVBQ+JI5Tv+3Krn/FotmPYnZgehvyFNdsswYNMrgQwQdEoGAut64aIxc/jZcc52jI9BUicADK9XLltWmY5vsmzGwUGcSUTG8OvK+2lz8flW8Gl1FBkQg+ZMAR2J6Y7MGHMOcSJovKZ2N9d1OvhmLq2hJk79Ipf7K1LX9Jcq6/vOd0IG2mGG7e367fNJmpR+HeC8pbvABN68Zih9jdzHl/wu1nS9XyGdOXoFAv05XqZcbPZ0x/GAt062Lh5mQGH/JzqB8w6GP8wbp9aNXvGtwdvzxOec3UMU96GMXDd+prtyBwLF0qm2v8jPjsF5fq9gpxjSIHHy7tGYhDbcCIUewLQkRElEjeBSC6gzhqd8aXCy5/XgYf8smotYVDVj50RUdWwtRTUD0vp5gqH0WPoqysLPy0/j5M0Iu5dmIHileZ7R2v4dAJ8c+w0bjNKNDsrSKv/boaHaLqOPleXRCHFZvno6D2bXtl37cA09JPotzaSiECl/8Q56zgc3N1gdZWjdLZz+FFPVtz1i8qd1kokDMisPgHcRlrtgXfB3Zj+baTYpl8zDUrjQVZGAI/mrsKNvOviNAhA+8n4AmzrbJZ9r44s6JSf0OiE2geEBVjeR9vjb9ia2X5PGSkN+K3Lls9nKqXlaKqTQRhvl8gR1W+5ahTyQg+ZKvkAiO4SUTrkrXPlghEa96Ic53i94ARuMkgTARI4neNbFHp3jW6Bh82idB24iWmYRERESVQcgMQ2encbI0wnxjHVWnJx0KZ7iKDi2Sl1EgVT8Pn84Wf1ryKo3qxhPK3qopywLun0Sj+GZFjD1Nc8z2M4nxHoCHMuSFL/H8MiiufRqVlUulYw68PtlxIZ8/AOhDVnpKnMNsMSFRgcRLVzopd2RHUIA1ZKkqR8ztxoC0N09Ya23G2spgeGHVZv+or8pEtKsp1f0zMfdh6VkbNWlsjPtYvY/cydn51K+pkC6CqfD+XtE7fqq9V7fuJCW7OfmhJl2xEQzf2uaHkFuyolS1hRitpeZzBHBERESWXh6NgdSMVQj5tlSkesnKV7KF8e4nGht/pV7GYi5dU2pO1dcJKBCaWdKjA9NV/tQUciVGLtV811l8uW1kWG4HI9lIZ8QS9XD9Av6Jum3cjMvXLjOH283x1eAA5w/XL9BEYqV92W9O1IrwjIiKiRPG2D0h37Lobm3Re/0ozzzvREp2CFY8vjcYIdKDV1izihuzjMR8j978Y2s9C2PNRs/h/FsZ0dwSymmacxxgUOls0fBNRECHl6sVlwUBkyKRp9taW2mvQjlbculzP9xHO1K6eH4FtA+6RrYQy6JfBerL6v5iG32gfTlv17+pZhZtlp3jZ70Wmo+VjYbcfVlzBjdlA+9lr9TwRERElQt8JQKRAnndJcoKQnkjBsrkHGx4qROqJytBRsCbeh/UqGFqP+ybqMos5pd/ENFTj2RJLSo9VICXqYazQRXHZdQAftMkWDet6jJYX1L5nGynLLh9j5NNpR3qX2dE3/7OduiD55j9mBJXr740npFyNQ+IUWzuJm6Mt9aRAp3OZoiiC9XLxOclb/KewHbm7d/xA9R/FCUifgXlmgGOOQtWTAp3OZb+Xl7GzzAjCuvV7ImEDJBAREZFV3wpABCPPW1YAS5L/zepeSCvEyvJylKtpIUa8v8nScd0idxgiPmOf9018Vw6Jm16IEkv/DnvKk0yJelEEIaH9QCL1zwjPSK0qr7Wux2h5sQ7DK4fptW6jsnIFpp0NM1QvrkHlkcHATX7PvvStrtEYlWnotIWYr17FxujwnY+Fun+THLlKjcJkpQZNMN5Xw8rKfkx6PrHBsxzO1hxuNtjpvKHkOaNT+trQIKS7x28+CMhbrPt3zWvEZvlFo/ptxbPjN4bqVgGQdWAAHYR152HFxq+fw9C2Yfg3DsFLRESUUEn6HhByQ30PyLBqbFq6DvH0+Og/jO8CmdF0PcZE+DLCqN8DErP5eLRsEca1V+FZT1q2epur/filLr4HZHk7Tn7tMvZtzMZdie8gRUREdFXrcy0g1B9dg7teGob2m87gZFnyU7Em3DsT48S/x/denZXvq/34uyS/gPBrrWj/fSaDDyIioiTomRaQsN8i7SS/x+CWpA0l2huwBcRBffP0RRwK89RZtYDcoGeE2t/Px4p6PeOW7Efz8FQMlffWc2vw6hFd3kvJ1CIjfSkKOTS122/+v9qPX5j96W34p0lD9Bxw/nBoC8jGslNYcDb6N/MTERFR/JiCRUREREREnmEKFhEREREReYYBCBEREREReYYBCBEREREReYYBCBEREREReYYBCBEREREReYYBCBEREREReYYBCBEREREReYYBCBEREREReYYBCBEREREReYYBCBEREREReYYBCBEREREReYYBCBEREREReYYBCBEREREReYYBCBEREREReYYBCBEREREReYYBCBEREREReYYBCBEREREReYYBCBEREREReYYBCBEREREReYYBCBEREREReYYBCBEREREReYYBCBEREREReYYBCBEREREReYYBCBEREREReYYBCBEREREReYYBCBEREREReYYBCBEREREReYYBCBEREREReYYBCBEREREReYYBCBEREREReeZTubm5f9Ov+75ZozC9KAvw1+NgaTM6dXHsBiCnZDzy0oCGikOo26uLY5BSPA5TpgzWc2KXDh7DofLLei5O5vGZun2c3ec8Tpyqw/6yDj0jJOyaXKXU+RuIui3H0VCjy4iIiIj6sOS2gBRkYXJJFlLUTCry1k9G3iw1o6T7JmO6KAuZfKl6iUSTgUUy1x/UWX4c+9ccElMdGnRZt8hzKSryMiAy1iumnq7Qi8rxlCkQlWPLPlmDD095d22JiIiIKH7JDUBGD0SafomCFBGCXMDF03peaCvTldYt9fCL9wIV2XgrsXvrE1Qxv4yGUmNf4mn9SIaUwgyk+etR30v2R0qfmAWcOhP9yXzCrgkRERER9QfJ7wPS0smKZwIMzLakOfUKAzAoU78kIiIiInIpOX1AnH0VnJz9AWR60dIMNIXJc5dpWpNQh/1H0i3rlK0llmWd23P2Q1DrHxVsjXEI9vMI9v0wOLYT4FwuWh8PmXqWh9Ru9gFR5yEzWj8KYzs5ei503419zq4R+3E2O/K5dE2fgxbHuTZ1dU0ktQxweE0TBlnPZ8iyzmMTzGVcX9sYRN334HmswWhL/5dmcRz1aNNzinM9kfrBOJaz3UuBc9SGLMs5iLdvEhEREVFPS2on9EDwICpvqrNyQWv4ClhXAUiueBGovOmKL8JV5rqoFHf5voWq+IXv/JvuG4dBuyzlugIZvlLYjQDEWYF1CGxPV8Jh2YbZOTx8cBWsLHcd2NiFdDq3CRfMRDnnluMLVLr1sXQ497vLaxbDtY3COL5LlmDCuV7LeYxyTxrrkf1jzPNh/pw9UAm9TrJsFDKr642fC5yj4LkNXTcRERFR35H0FCx/0yf6VTfYnhxfRkvNBSBtIAaqee+1lTkqfnvbVEfz1OEDjPlEMftPiOnwKTEvz4Oet/ZPSZ83SvUPqbEEOJ3lp1HnB3ImOjplq3UEK8CXmmI7l8HO9cfU+lXrQGCf4qsQy8p3IDir6YSs5gfP5XUYJCr7CbmPupSKUSoYsLZkXEbDvmYgNx3pukRx3JNqmbQMZBbIeWM9/oOnLedDLFMu+zplIcsciEEEWwVqOXEu9bWUOsVy9vNoD+w6q1vFegZj0GhjnoiIiKgvSWIAYu8joPow9Jf+IPIpvW3kLkd6kKeM8+yvOe84tzpQy0zRo5BpjmtgBBTWCrfX7AMTQIQfdSKYCbYWdaD+4AWkTRmf5BHSBDVQggjaiqzXVkyqBWIgBqngQnPey6cvBYMCPeBCU3UwIFTENWoSQVsguFKDNIRZjoiIiKgfS0IAIlNNZMXNSFMxK44qjSo3T722DsXb5+gUoTTbk/8EDbVLYQVaXSpkS4RxD00PDO+ceLJFJnhtzclN644zmCIiIiIipyQEIOYQtrJSLlNH5GsjXUemmsjKnDXdpM/RT63rdsXfzyCxLuNiiwj0CoY4KuQDkFnQj1qdJDMlTQYigXSnBApJ/4qBui8u4aIMUtR6BiO70LEecY2yRVDecVa3eFhbTYiIiIiuEslLwdLpLAYjjz9Q8eoxRmU9JJ8/FiGVxjAjNHms7YiskI9CQXGwwptSPBp5ab0pUEqclOGyx4qu7Ack4Npa0r1iaqWTrWJFWSLAbtKpbB1oPiVb/0YjJxAkDUBOsdFXJ/BdLjXN+FAsl1M0zrKc0QndOk9ERETUnyRvFCyVqjQQH6r+BUYlHZaRfqTACFdOlmFPw43S5BypyBxJKJS9867BMoqRFhyBKEowYdkn5/YaKo7h4gw9xK3uuxDx2MIN1+pCl6NVmalhejZ0O/q4uzlKVFD09bm6JlFGGgsIOS4p0jmMdm3dC7vvgesfug0p3HZC1mO5h6ycy4UOw+s4R/qcBEcKIyIiIuo7kjoML1H/k+hAjoiIiOjqkvRheImIiIiIiEwMQIiIiIiIyDNMwSIiIiIiIs+wBYSIiIiIiDzDAISIiIiIiDzDAISIiIiIiDzDAISIiIiIiDzDAISIiIiIiDzDAISIiIiIiDzDAISIiIiIiDzT678HJKf0T1g2vRE7Zs9FtS6LyrcbTyzO1zNC2z5s/urdaNCzG8tOYclNekao/VUu5rykZ2KQqPUQEREREV1N+lcAMu8XWLl2Blq2jcVrZbrMQQUOuB5jfCm6JNSCn2zEojw9Az+qnvkhXnlHz4boxJ6KM0A/CEBm//At/NP0IXou1Pn9/wt3fr9SzxERERERxa5fpWDlzJyMjLZ92BUh+HBDBR/DqvHMnavwoJieqQKmPvJ93D9TL9CPVX7/TsydO9eYNhzAefHfgQ16XkwMPoiIiIiou/pVADJy+FD9Kk73fweL8vyoeuV1HNVFR0tfR1V7GqZ+ZY4uISIiIiKieCUnAJH9MCpP4Ik3f4EcXSQVbhZlovweny6IywbcI9ctppWlD+iyxJgwMgtor8V71nSrmVMxQcY1eZ/GAqOkl3kAC94Mc15lOlqYa0BERERE1JOSE4CUzcUPttUC6TNQbAYJIihZmA/URemf0TUZfCxBnuxYPnssNpW8HAx2xCTXL7e5TM+HVMq7MC47DTjXGGj9kC0iLzyShXe2nxQzWRjZK9OwXsbOr5aiqk3ESIt3o1CViaDEN0Olo1k74BMRERER9bTkpWCJIGTz/nZkTH8YC+aJwGFxPlr3l8YffKgn+iL4qN2KH1gr1TLYEcGInHaImEeNeqXn5eR+e/kYOUy/FCaUfB8vzGzGM3f+FDt1WWJNwH3ry1BWFn56tEgv5ooMQraiThzDws0bkFP6MKam12IHgw8iIiIi6mWS2gekoeQWERQMxdS1RqtFuWyxiIuoWK/VT/SXrdZliVaLj88Zr2RH9Eey9+HBbwf7ggDN+DjiSFjxOIpX1/jg84Wfnq7Qi7m2Gq+t24fW/CVYNn0o6ra5HLaYiIiIiMhDSe6E/gByhuuX6SMwUr+MXS12yMq1TK/avEGXJd7xJj+QV4SZTZvx4Pf26FLdN6QvKBiBDP0y84bE9o8hIiIiIkqEpAYghZtLjFSg2bKPgpEeFLddd2OT7FeSvyThnc9NRz9uFv/34+h7MpfLlI8vTkgD6v4rwalYiUzBEmSKmk5zk/1vjNQ3/R4RERERUS+RvAAk0OlcpgK9jJ1lRnpQt4KHQL+SkuQEIa9UGEPu3n+XCA8ME0ruwtShflT9e7BFJDESmYIV7HSu0tzEeTJS38xO6Vbz8Wi8QQ4RERERUTclJQCR317+xGIRfdRuDXYC33U3yhMQPBj9SqDW80TC07Fq8cq3N6NKVNsfeWsjXhDTI1Obsf3OaN+E3tPkyGCypakdVWXBTufVy3Sn9EpHEDJxJLL1SyIiIiIir30qNzf3b/r1VWFj2SkswfUY40vRJd3ViT0VZ4Bf5WLOS7qIiIiIiIjCSnIndCIiIiIioqCeaQGRHablsLp6Nrx2VK27BTt36dkEUS0gN+kZoTbOlotErYeIiIiI6Gpy1aVgERERERFRz2EKFhEREREReYYBCBEREREReYYBCBEREREReYYBCBEREREReYYBCBEREREReYYBCBEREREReYYBCBEREREReabXfw9ITumfsGx6I3bMnotqXRaVbzeeWJyvZ4S2fdj81bvRoGf5RYRERERERD0nSQHIA1jwZgmmputZU+1W/GDZaj3jTkwBiP6G9ZZtY/FamS5zUIEDrscYX4ouCbXgJxuxKE/PwI+qZ36IV97RsyE6safiDNCTAci9G1B+R2CHtQ5UP38f1r2rZ4mIiIiIeoHkpmDJgGP2WD1tRV3+Ejzx5i+Qo99OtJyZk5HRtg+7IgQfbqjgY1g1nrlzFR4U0zNVwNRHvo/7Z+oFei0ZcBSjuNiYNr0PFD5Ujg336reJiIiIiHoBD/uArMZr22qB9MkonKeLEmzk8KH6VZzu/w4W5flR9crrOKqLjpa+jqr2NEz9yhxd0jf8bsMWVPuBvJvv0SVERERERD3P207oNY1oxVBkF+j5uGzAPZUn8ISYVpY+oMsSY8LILKC9Fu9Z061mTsUEGdfkfRoLjJI+4nc4fU78M2w0bjMKiIiIiIh6nLcBSMEIZKAdTTV6PmYy+FiCPNmxfPZYbCp52eh0rgOShbLvefoMLNPzcrrHZ/ykG+Oy04BzjYHWD9ki8sIjWXhn+0kxk4WRvT4Ny+o2jB4m/jl3WoQiRERERES9g3cBiOwgLkenqt2Jnbt0WSzkz8vgQ/YrsYxqhbK5gX4mO2rFvA5OzLJIndFD5WOkrLBrE0q+jxdmNuOZO3+KnbossSbgvvVlKCsLPz1apBeL0z0bV6IwrQPVv35NlxARERER9TxPR8GqizI6VSTGKFi6b4djSF2nws0nsHB49GWijYKlOqCjAttRpP598Ht7jDdkS8giYHvYYKSXjoLlr8ampevY+kFEREREvYqHo2DFHnwE1WLHun1olelVmzfossQ73iR7bRdhZtPmYPAhqL4hvZ59FKxiBh9ERERE1At52wekO3bdjU1yFK38JQnvfG46+nGz+L8fR9+TuVymfHxxQhpQ918JTsVKbgoWEREREVFv1HcCEKlsLjbvb0fG9JLkBCGvVBhD7t5/lwgPDBNK7sLUoX5U/XuwRSQxjuLVNT74fOGnpyv0YkRERERE/UjfCkCEhpJbVGdzGYQ8kfB0rFq88u3NqEIhHnlrI14Q0yNTm7H9zmjfhE5ERERERG4lqRN67xWtE3p8ekEndCIiIiKiPqLPtYAQEREREVHf1TMtIPI7PdbOQIaeDa8dVetuie87Q6JQLSA36RmhNs6Wi0Sth4iIiIjoanLVpWAREREREVHPYQoWERERERF5hgEIERERERF5hgEIERERERF5hgEIERERERF5hgEIERERERF5hgEIERERERF5BPj/AatrvRY+jZ8KAAAAAElFTkSuQmCC;" parent="1" vertex="1">
                    <mxGeometry x="-583" y="144.25" width="259.05" height="141.5" as="geometry"/>
                </mxCell>
                <mxCell id="32" style="edgeStyle=none;html=1;strokeColor=default;rounded=0;endArrow=none;endFill=0;exitX=0.1;exitY=0.5;exitDx=0;exitDy=0;exitPerimeter=0;entryX=0;entryY=0.5;entryDx=0;entryDy=0;" parent="1" source="31" target="58" edge="1">
                    <mxGeometry relative="1" as="geometry"/>
                </mxCell>
                <mxCell id="63" value="Khởi tạo&amp;nbsp;F, H, x, P, I, x_kf, P_kf" style="whiteSpace=wrap;html=1;" parent="1" vertex="1">
                    <mxGeometry x="-211" y="297" width="120" height="60" as="geometry"/>
                </mxCell>
                <mxCell id="68" value="" style="edgeStyle=none;html=1;" parent="1" source="64" target="65" edge="1">
                    <mxGeometry relative="1" as="geometry"/>
                </mxCell>
                <mxCell id="64" value="&lt;font style=&quot;font-size: 18px;&quot;&gt;&lt;b&gt;predict()&lt;/b&gt;&lt;/font&gt;" style="shape=process;whiteSpace=wrap;html=1;backgroundOutline=1;" parent="1" vertex="1">
                    <mxGeometry x="882.5" y="659" width="216" height="87" as="geometry"/>
                </mxCell>
                <mxCell id="69" value="" style="edgeStyle=none;html=1;" parent="1" source="65" target="66" edge="1">
                    <mxGeometry relative="1" as="geometry"/>
                </mxCell>
                <mxCell id="65" value="&lt;span style=&quot;border-color: var(--border-color); font-family: &amp;quot;IntelOne Mono&amp;quot;, Consolas, &amp;quot;Courier New&amp;quot;, monospace; background-color: rgb(255, 255, 255); color: rgb(31, 55, 127);&quot;&gt;&lt;div style=&quot;text-align: left; border-color: var(--border-color); color: rgb(0, 0, 0);&quot;&gt;&lt;font style=&quot;border-color: var(--border-color);&quot;&gt;&lt;span style=&quot;border-color: var(--border-color); color: rgb(0, 128, 0);&quot;&gt;# State Extrapolation Equation&lt;/span&gt;&lt;/font&gt;&lt;/div&gt;&lt;div style=&quot;text-align: left;&quot;&gt;&lt;span style=&quot;border-color: var(--border-color);&quot;&gt;x_pred&lt;/span&gt;&lt;span style=&quot;color: rgb(0, 0, 0); border-color: var(--border-color); text-align: left;&quot;&gt;&amp;nbsp;=&amp;nbsp;&lt;/span&gt;&lt;span style=&quot;border-color: var(--border-color); text-align: left; color: rgb(128, 128, 128);&quot;&gt;self&lt;/span&gt;&lt;span style=&quot;color: rgb(0, 0, 0); border-color: var(--border-color); text-align: left;&quot;&gt;.&lt;/span&gt;&lt;span style=&quot;color: rgb(0, 0, 0); border-color: var(--border-color); text-align: left;&quot;&gt;F&lt;/span&gt;&lt;span style=&quot;color: rgb(0, 0, 0); border-color: var(--border-color); text-align: left;&quot;&gt;&amp;nbsp;&lt;/span&gt;&lt;span style=&quot;border-color: var(--border-color); text-align: left; color: rgb(116, 83, 31);&quot;&gt;@&lt;/span&gt;&lt;span style=&quot;color: rgb(0, 0, 0); border-color: var(--border-color); text-align: left;&quot;&gt;&amp;nbsp;&lt;/span&gt;&lt;span style=&quot;border-color: var(--border-color); text-align: left; color: rgb(128, 128, 128);&quot;&gt;x&lt;/span&gt;&lt;span style=&quot;color: rgb(0, 0, 0); border-color: var(--border-color); text-align: left;&quot;&gt;&amp;nbsp;+&amp;nbsp;&lt;/span&gt;&lt;span style=&quot;border-color: var(--border-color); text-align: left; color: rgb(128, 128, 128);&quot;&gt;self&lt;/span&gt;&lt;span style=&quot;color: rgb(0, 0, 0); border-color: var(--border-color); text-align: left;&quot;&gt;.&lt;/span&gt;&lt;span style=&quot;color: rgb(0, 0, 0); border-color: var(--border-color); text-align: left;&quot;&gt;G&lt;/span&gt;&lt;span style=&quot;color: rgb(0, 0, 0); border-color: var(--border-color); text-align: left;&quot;&gt;&amp;nbsp;&lt;/span&gt;&lt;span style=&quot;border-color: var(--border-color); text-align: left; color: rgb(116, 83, 31);&quot;&gt;@&lt;/span&gt;&lt;span style=&quot;color: rgb(0, 0, 0); border-color: var(--border-color); text-align: left;&quot;&gt;&amp;nbsp;&lt;/span&gt;&lt;span style=&quot;border-color: var(--border-color); text-align: left; color: rgb(128, 128, 128);&quot;&gt;u&lt;/span&gt;&lt;span style=&quot;color: rgb(0, 0, 0); border-color: var(--border-color); text-align: left;&quot;&gt;.T&lt;/span&gt;&lt;/div&gt;&lt;div style=&quot;text-align: left;&quot;&gt;&lt;span style=&quot;color: rgb(0, 0, 0); border-color: var(--border-color); text-align: left;&quot;&gt;&lt;span style=&quot;color: rgb(0, 128, 0);&quot;&gt;&lt;font style=&quot;font-size: 12px;&quot;&gt;# Covariance Extrapolation Equation&lt;br&gt;&lt;/font&gt;&lt;/span&gt;&lt;div style=&quot;border-color: var(--border-color);&quot;&gt;&lt;font style=&quot;font-size: 12px;&quot;&gt;&lt;span style=&quot;border-color: var(--border-color); color: rgb(31, 55, 127);&quot;&gt;P_pred&lt;/span&gt;&lt;span style=&quot;border-color: var(--border-color);&quot;&gt;&amp;nbsp;=&amp;nbsp;&lt;/span&gt;&lt;span style=&quot;border-color: var(--border-color); color: rgb(128, 128, 128);&quot;&gt;self&lt;/span&gt;&lt;span style=&quot;border-color: var(--border-color);&quot;&gt;.&lt;/span&gt;&lt;span style=&quot;border-color: var(--border-color);&quot;&gt;F&lt;/span&gt;&lt;span style=&quot;border-color: var(--border-color);&quot;&gt;&amp;nbsp;&lt;/span&gt;&lt;span style=&quot;border-color: var(--border-color); color: rgb(116, 83, 31);&quot;&gt;@&lt;/span&gt;&lt;span style=&quot;border-color: var(--border-color);&quot;&gt;&amp;nbsp;&lt;/span&gt;&lt;span style=&quot;border-color: var(--border-color); color: rgb(128, 128, 128);&quot;&gt;P&lt;/span&gt;&lt;span style=&quot;border-color: var(--border-color);&quot;&gt;&amp;nbsp;&lt;/span&gt;&lt;span style=&quot;border-color: var(--border-color); color: rgb(116, 83, 31);&quot;&gt;@&lt;/span&gt;&lt;span style=&quot;border-color: var(--border-color);&quot;&gt;&amp;nbsp;&lt;/span&gt;&lt;span style=&quot;border-color: var(--border-color); color: rgb(128, 128, 128);&quot;&gt;self&lt;/span&gt;&lt;span style=&quot;border-color: var(--border-color);&quot;&gt;.&lt;/span&gt;&lt;span style=&quot;border-color: var(--border-color);&quot;&gt;F&lt;/span&gt;&lt;span style=&quot;border-color: var(--border-color);&quot;&gt;.&lt;/span&gt;&lt;span style=&quot;border-color: var(--border-color);&quot;&gt;T&lt;/span&gt;&lt;span style=&quot;border-color: var(--border-color);&quot;&gt;&amp;nbsp;+&amp;nbsp;&lt;/span&gt;&lt;span style=&quot;border-color: var(--border-color); color: rgb(128, 128, 128);&quot;&gt;Q&lt;/span&gt;&lt;span style=&quot;border-color: var(--border-color);&quot;&gt;&amp;nbsp;&amp;nbsp;&lt;/span&gt;&lt;br style=&quot;border-color: var(--border-color);&quot;&gt;&lt;/font&gt;&lt;/div&gt;&lt;div&gt;&lt;span style=&quot;border-color: var(--border-color); font-size: 16px;&quot;&gt;&lt;br&gt;&lt;/span&gt;&lt;/div&gt;&lt;/span&gt;&lt;/div&gt;&lt;/span&gt;" style="rounded=0;whiteSpace=wrap;html=1;" parent="1" vertex="1">
                    <mxGeometry x="865" y="791" width="247.5" height="83" as="geometry"/>
                </mxCell>
                <mxCell id="66" value="&lt;font style=&quot;font-size: 12px;&quot;&gt;&lt;span style=&quot;border-color: var(--border-color); font-family: &amp;quot;IntelOne Mono&amp;quot;, Consolas, &amp;quot;Courier New&amp;quot;, monospace; text-align: left; background-color: rgb(255, 255, 255);&quot;&gt;&amp;nbsp;&lt;/span&gt;&lt;span style=&quot;border-color: var(--border-color); font-family: &amp;quot;IntelOne Mono&amp;quot;, Consolas, &amp;quot;Courier New&amp;quot;, monospace; text-align: left; background-color: rgb(255, 255, 255); color: rgb(143, 8, 196);&quot;&gt;return&lt;/span&gt;&lt;span style=&quot;border-color: var(--border-color); font-family: &amp;quot;IntelOne Mono&amp;quot;, Consolas, &amp;quot;Courier New&amp;quot;, monospace; text-align: left; background-color: rgb(255, 255, 255);&quot;&gt;&amp;nbsp;&lt;/span&gt;&lt;span style=&quot;border-color: var(--border-color); font-family: &amp;quot;IntelOne Mono&amp;quot;, Consolas, &amp;quot;Courier New&amp;quot;, monospace; text-align: left; background-color: rgb(255, 255, 255); color: rgb(31, 55, 127);&quot;&gt;x_pred&lt;/span&gt;&lt;span style=&quot;border-color: var(--border-color); font-family: &amp;quot;IntelOne Mono&amp;quot;, Consolas, &amp;quot;Courier New&amp;quot;, monospace; text-align: left; background-color: rgb(255, 255, 255);&quot;&gt;,&amp;nbsp;&lt;/span&gt;&lt;span style=&quot;border-color: var(--border-color); font-family: &amp;quot;IntelOne Mono&amp;quot;, Consolas, &amp;quot;Courier New&amp;quot;, monospace; text-align: left; background-color: rgb(255, 255, 255); color: rgb(31, 55, 127);&quot;&gt;P_pred&lt;/span&gt;&lt;/font&gt;" style="rounded=0;whiteSpace=wrap;html=1;" parent="1" vertex="1">
                    <mxGeometry x="901.5" y="928" width="174.5" height="45" as="geometry"/>
                </mxCell>
                <mxCell id="75" value="" style="edgeStyle=none;html=1;" parent="1" source="71" target="72" edge="1">
                    <mxGeometry relative="1" as="geometry"/>
                </mxCell>
                <mxCell id="71" value="kalman-filter" style="shape=process;whiteSpace=wrap;html=1;backgroundOutline=1;" parent="1" vertex="1">
                    <mxGeometry x="865" y="51" width="149" height="60" as="geometry"/>
                </mxCell>
                <mxCell id="76" value="" style="edgeStyle=none;html=1;" parent="1" source="72" target="74" edge="1">
                    <mxGeometry relative="1" as="geometry"/>
                </mxCell>
                <mxCell id="72" value="Initial parameter and matrix" style="rounded=0;whiteSpace=wrap;html=1;" parent="1" vertex="1">
                    <mxGeometry x="879.5" y="148.75" width="120" height="60" as="geometry"/>
                </mxCell>
                <mxCell id="78" style="edgeStyle=none;html=1;entryX=1;entryY=0.5;entryDx=0;entryDy=0;" parent="1" source="73" target="74" edge="1">
                    <mxGeometry relative="1" as="geometry">
                        <mxPoint x="1089.340072631836" y="363.75" as="targetPoint"/>
                        <Array as="points">
                            <mxPoint x="1077" y="363.75"/>
                            <mxPoint x="1077" y="272.75"/>
                        </Array>
                    </mxGeometry>
                </mxCell>
                <mxCell id="79" value="true" style="edgeLabel;html=1;align=center;verticalAlign=middle;resizable=0;points=[];" parent="78" vertex="1" connectable="0">
                    <mxGeometry x="-0.7646" y="2" relative="1" as="geometry">
                        <mxPoint as="offset"/>
                    </mxGeometry>
                </mxCell>
                <mxCell id="81" value="" style="edgeStyle=none;html=1;" parent="1" source="73" target="80" edge="1">
                    <mxGeometry relative="1" as="geometry"/>
                </mxCell>
                <mxCell id="82" value="false" style="edgeLabel;html=1;align=center;verticalAlign=middle;resizable=0;points=[];" parent="81" vertex="1" connectable="0">
                    <mxGeometry x="-0.3138" y="-1" relative="1" as="geometry">
                        <mxPoint as="offset"/>
                    </mxGeometry>
                </mxCell>
                <mxCell id="73" value="i == 0 ?" style="rhombus;whiteSpace=wrap;html=1;" parent="1" vertex="1">
                    <mxGeometry x="882.5" y="332.75" width="114" height="62" as="geometry"/>
                </mxCell>
                <mxCell id="77" value="" style="edgeStyle=none;html=1;" parent="1" source="74" target="73" edge="1">
                    <mxGeometry relative="1" as="geometry"/>
                </mxCell>
                <mxCell id="74" value="loop i to end list include&amp;nbsp; us and zs" style="rounded=0;whiteSpace=wrap;html=1;" parent="1" vertex="1">
                    <mxGeometry x="879.5" y="242.75" width="120" height="60" as="geometry"/>
                </mxCell>
                <mxCell id="84" value="" style="edgeStyle=none;html=1;" parent="1" source="80" target="83" edge="1">
                    <mxGeometry relative="1" as="geometry"/>
                </mxCell>
                <mxCell id="80" value="loop to us and zs" style="rounded=0;whiteSpace=wrap;html=1;" parent="1" vertex="1">
                    <mxGeometry x="879.5" y="433.75" width="120" height="60" as="geometry"/>
                </mxCell>
                <mxCell id="89" value="" style="edgeStyle=none;html=1;" parent="1" source="83" target="86" edge="1">
                    <mxGeometry relative="1" as="geometry"/>
                </mxCell>
                <mxCell id="83" value="predict()" style="rounded=0;whiteSpace=wrap;html=1;" parent="1" vertex="1">
                    <mxGeometry x="879.5" y="530.75" width="120" height="60" as="geometry"/>
                </mxCell>
                <mxCell id="90" value="" style="edgeStyle=none;html=1;" parent="1" source="86" target="87" edge="1">
                    <mxGeometry relative="1" as="geometry"/>
                </mxCell>
                <mxCell id="92" value="false" style="edgeLabel;html=1;align=center;verticalAlign=middle;resizable=0;points=[];" parent="90" vertex="1" connectable="0">
                    <mxGeometry x="-0.3144" y="1" relative="1" as="geometry">
                        <mxPoint as="offset"/>
                    </mxGeometry>
                </mxCell>
                <mxCell id="94" value="" style="edgeStyle=none;html=1;" parent="1" source="86" target="93" edge="1">
                    <mxGeometry relative="1" as="geometry"/>
                </mxCell>
                <mxCell id="95" value="true" style="edgeLabel;html=1;align=center;verticalAlign=middle;resizable=0;points=[];" parent="94" vertex="1" connectable="0">
                    <mxGeometry x="-0.3132" y="1" relative="1" as="geometry">
                        <mxPoint x="1" y="-4" as="offset"/>
                    </mxGeometry>
                </mxCell>
                <mxCell id="86" value="d &amp;lt; sigma_mahalanobis" style="rhombus;whiteSpace=wrap;html=1;" parent="1" vertex="1">
                    <mxGeometry x="1082" y="526.75" width="161" height="68" as="geometry"/>
                </mxCell>
                <mxCell id="87" value="return x_f và P_f&amp;nbsp;" style="rounded=0;whiteSpace=wrap;html=1;" parent="1" vertex="1">
                    <mxGeometry x="1304" y="530.75" width="120" height="60" as="geometry"/>
                </mxCell>
                <mxCell id="96" style="edgeStyle=none;html=1;entryX=0.5;entryY=0;entryDx=0;entryDy=0;" parent="1" source="93" target="87" edge="1">
                    <mxGeometry relative="1" as="geometry">
                        <Array as="points">
                            <mxPoint x="1364" y="454.75"/>
                        </Array>
                    </mxGeometry>
                </mxCell>
                <mxCell id="93" value="estimate()" style="rounded=0;whiteSpace=wrap;html=1;" parent="1" vertex="1">
                    <mxGeometry x="1102.5" y="424.75" width="120" height="60" as="geometry"/>
                </mxCell>
                <mxCell id="98" value="" style="shape=curlyBracket;whiteSpace=wrap;html=1;rounded=1;flipH=1;labelPosition=right;verticalLabelPosition=middle;align=left;verticalAlign=middle;" parent="1" vertex="1">
                    <mxGeometry x="207" y="321" width="20" height="120" as="geometry"/>
                </mxCell>
                <mxCell id="99" value="&lt;b style=&quot;border-color: var(--border-color);&quot;&gt;&lt;font style=&quot;font-size: 18px;&quot;&gt;&lt;span style=&quot;border-color: var(--border-color); font-family: Lato;&quot;&gt;x_wls&lt;/span&gt;&lt;span style=&quot;border-color: var(--border-color); font-family: Lato;&quot;&gt;,&amp;nbsp;&lt;br&gt;&lt;/span&gt;&lt;span style=&quot;border-color: var(--border-color); font-family: Lato;&quot;&gt;v_wls&lt;/span&gt;&lt;span style=&quot;border-color: var(--border-color); font-family: Lato;&quot;&gt;,&lt;br&gt;&lt;/span&gt;&lt;span style=&quot;border-color: var(--border-color); font-family: Lato;&quot;&gt;cov_x&lt;/span&gt;&lt;span style=&quot;border-color: var(--border-color); font-family: Lato;&quot;&gt;,&lt;br&gt;&lt;/span&gt;&lt;span style=&quot;border-color: var(--border-color); font-family: Lato;&quot;&gt;cov_v&lt;/span&gt;&lt;/font&gt;&lt;/b&gt;" style="text;html=1;align=left;verticalAlign=middle;resizable=0;points=[];autosize=1;strokeColor=none;fillColor=none;" parent="1" vertex="1">
                    <mxGeometry x="152" y="332" width="70" height="98" as="geometry"/>
                </mxCell>
                <mxCell id="100" value="&lt;b style=&quot;border-color: var(--border-color);&quot;&gt;&lt;font style=&quot;font-size: 18px;&quot;&gt;&lt;span style=&quot;border-color: var(--border-color); font-family: Lato;&quot;&gt;x_kf&lt;/span&gt;&lt;br&gt;&lt;/font&gt;&lt;/b&gt;" style="text;html=1;align=left;verticalAlign=middle;resizable=0;points=[];autosize=1;strokeColor=none;fillColor=none;flipH=1;" parent="1" vertex="1">
                    <mxGeometry x="587" y="363.75" width="52" height="34" as="geometry"/>
                </mxCell>
                <mxCell id="101" value="" style="shape=curlyBracket;whiteSpace=wrap;html=1;rounded=1;flipH=1;labelPosition=right;verticalLabelPosition=middle;align=left;verticalAlign=middle;direction=west;" parent="1" vertex="1">
                    <mxGeometry x="567" y="343.5" width="20" height="75" as="geometry"/>
                </mxCell>
                <mxCell id="102" value="&lt;div style=&quot;color: rgb(0, 0, 0); background-color: rgb(255, 255, 255); font-family: &amp;quot;IntelOne Mono&amp;quot;, Consolas, &amp;quot;Courier New&amp;quot;, monospace; font-weight: normal; line-height: 22px;&quot;&gt;&lt;div style=&quot;&quot;&gt;&lt;br&gt;&lt;/div&gt;&lt;/div&gt;" style="text;whiteSpace=wrap;html=1;" parent="1" vertex="1">
                    <mxGeometry x="1290.2051849365234" y="820.56005859375" width="550" height="132" as="geometry"/>
                </mxCell>
                <mxCell id="103" value="" style="edgeStyle=none;html=1;" parent="1" source="104" target="106" edge="1">
                    <mxGeometry relative="1" as="geometry"/>
                </mxCell>
                <mxCell id="104" value="&lt;font style=&quot;font-size: 18px;&quot;&gt;&lt;b&gt;estimate()&lt;/b&gt;&lt;/font&gt;" style="shape=process;whiteSpace=wrap;html=1;backgroundOutline=1;" parent="1" vertex="1">
                    <mxGeometry x="1195" y="659" width="303" height="88" as="geometry"/>
                </mxCell>
                <mxCell id="105" value="" style="edgeStyle=none;html=1;" parent="1" source="106" target="107" edge="1">
                    <mxGeometry relative="1" as="geometry"/>
                </mxCell>
                <mxCell id="106" value="&lt;span style=&quot;border-color: var(--border-color); font-family: &amp;quot;IntelOne Mono&amp;quot;, Consolas, &amp;quot;Courier New&amp;quot;, monospace; background-color: rgb(255, 255, 255); color: rgb(31, 55, 127);&quot;&gt;&lt;div style=&quot;text-align: left; border-color: var(--border-color); color: rgb(0, 0, 0);&quot;&gt;&lt;font style=&quot;&quot;&gt;&lt;div style=&quot;border-color: var(--border-color);&quot;&gt;&lt;font style=&quot;border-color: var(--border-color); font-size: 10px;&quot;&gt;&lt;span style=&quot;border-color: var(--border-color); color: rgb(31, 55, 127);&quot;&gt;&lt;div style=&quot;border-color: var(--border-color); color: rgb(0, 0, 0);&quot;&gt;&lt;span style=&quot;border-color: var(--border-color); color: rgb(0, 128, 0);&quot;&gt;# Measurement residal&lt;/span&gt;&lt;/div&gt;&lt;/span&gt;&lt;/font&gt;&lt;/div&gt;&lt;div style=&quot;font-size: 10px; border-color: var(--border-color);&quot;&gt;&lt;font style=&quot;border-color: var(--border-color);&quot;&gt;&lt;span style=&quot;border-color: var(--border-color); color: rgb(31, 55, 127);&quot;&gt;y&lt;/span&gt;&lt;span style=&quot;border-color: var(--border-color);&quot;&gt;&amp;nbsp;=&amp;nbsp;&lt;/span&gt;&lt;span style=&quot;border-color: var(--border-color); color: rgb(128, 128, 128);&quot;&gt;z&lt;/span&gt;&lt;span style=&quot;border-color: var(--border-color);&quot;&gt;.T -&amp;nbsp;&lt;/span&gt;&lt;span style=&quot;border-color: var(--border-color); color: rgb(128, 128, 128);&quot;&gt;self&lt;/span&gt;&lt;span style=&quot;border-color: var(--border-color);&quot;&gt;.&lt;/span&gt;&lt;span style=&quot;border-color: var(--border-color);&quot;&gt;H&lt;/span&gt;&lt;span style=&quot;border-color: var(--border-color);&quot;&gt;&amp;nbsp;&lt;/span&gt;&lt;span style=&quot;border-color: var(--border-color); color: rgb(116, 83, 31);&quot;&gt;@&lt;/span&gt;&lt;span style=&quot;border-color: var(--border-color);&quot;&gt;&amp;nbsp;&lt;/span&gt;&lt;span style=&quot;border-color: var(--border-color); color: rgb(128, 128, 128);&quot;&gt;x_pred&lt;/span&gt;&lt;/font&gt;&lt;/div&gt;&lt;div style=&quot;border-color: var(--border-color);&quot;&gt;&lt;span style=&quot;color: rgb(0, 128, 0);&quot;&gt;&lt;font style=&quot;font-size: 10px;&quot;&gt;# Kalman Gain&lt;/font&gt;&lt;/span&gt;&lt;/div&gt;&lt;div style=&quot;font-size: 10px; border-color: var(--border-color);&quot;&gt;&lt;span style=&quot;border-color: var(--border-color); color: rgb(128, 128, 128);&quot;&gt;&lt;font style=&quot;border-color: var(--border-color);&quot;&gt;&lt;span style=&quot;border-color: var(--border-color); color: rgb(0, 0, 0);&quot;&gt;K&lt;/span&gt;&lt;span style=&quot;border-color: var(--border-color); color: rgb(0, 0, 0);&quot;&gt;&amp;nbsp;=&amp;nbsp;&lt;/span&gt;&lt;span style=&quot;border-color: var(--border-color);&quot;&gt;P_pred&lt;/span&gt;&lt;span style=&quot;border-color: var(--border-color); color: rgb(0, 0, 0);&quot;&gt;&amp;nbsp;&lt;/span&gt;&lt;span style=&quot;border-color: var(--border-color); color: rgb(116, 83, 31);&quot;&gt;@&lt;/span&gt;&lt;span style=&quot;border-color: var(--border-color); color: rgb(0, 0, 0);&quot;&gt;&amp;nbsp;&lt;/span&gt;&lt;span style=&quot;border-color: var(--border-color);&quot;&gt;self&lt;/span&gt;&lt;span style=&quot;border-color: var(--border-color); color: rgb(0, 0, 0);&quot;&gt;.&lt;/span&gt;&lt;span style=&quot;border-color: var(--border-color); color: rgb(0, 0, 0);&quot;&gt;H&lt;/span&gt;&lt;span style=&quot;border-color: var(--border-color); color: rgb(0, 0, 0);&quot;&gt;.&lt;/span&gt;&lt;span style=&quot;border-color: var(--border-color); color: rgb(0, 0, 0);&quot;&gt;T&lt;/span&gt;&lt;span style=&quot;border-color: var(--border-color); color: rgb(0, 0, 0);&quot;&gt;&amp;nbsp;@&amp;nbsp;&lt;/span&gt;&lt;span style=&quot;border-color: var(--border-color); color: rgb(0, 0, 0);&quot;&gt;np&lt;/span&gt;&lt;span style=&quot;border-color: var(--border-color); color: rgb(0, 0, 0);&quot;&gt;.&lt;/span&gt;&lt;span style=&quot;border-color: var(--border-color); color: rgb(0, 0, 0);&quot;&gt;linalg&lt;/span&gt;&lt;span style=&quot;border-color: var(--border-color); color: rgb(0, 0, 0);&quot;&gt;.&lt;/span&gt;&lt;span style=&quot;border-color: var(--border-color); color: rgb(116, 83, 31);&quot;&gt;inv&lt;/span&gt;&lt;span style=&quot;border-color: var(--border-color); color: rgb(0, 0, 0);&quot;&gt;(&lt;/span&gt;&lt;span style=&quot;border-color: var(--border-color);&quot;&gt;self&lt;/span&gt;&lt;span style=&quot;border-color: var(--border-color); color: rgb(0, 0, 0);&quot;&gt;.&lt;/span&gt;&lt;span style=&quot;border-color: var(--border-color); color: rgb(0, 0, 0);&quot;&gt;H&lt;/span&gt;&lt;span style=&quot;border-color: var(--border-color); color: rgb(0, 0, 0);&quot;&gt;&amp;nbsp;&lt;/span&gt;&lt;span style=&quot;border-color: var(--border-color); color: rgb(116, 83, 31);&quot;&gt;@&lt;/span&gt;&lt;span style=&quot;border-color: var(--border-color); color: rgb(0, 0, 0);&quot;&gt;&amp;nbsp;&lt;/span&gt;&lt;span style=&quot;border-color: var(--border-color);&quot;&gt;P_pred&lt;/span&gt;&lt;span style=&quot;border-color: var(--border-color); color: rgb(0, 0, 0);&quot;&gt;&amp;nbsp;&lt;/span&gt;&lt;span style=&quot;border-color: var(--border-color); color: rgb(116, 83, 31);&quot;&gt;@&lt;/span&gt;&lt;span style=&quot;border-color: var(--border-color); color: rgb(0, 0, 0);&quot;&gt;&amp;nbsp;&lt;/span&gt;&lt;span style=&quot;border-color: var(--border-color);&quot;&gt;self&lt;/span&gt;&lt;span style=&quot;border-color: var(--border-color); color: rgb(0, 0, 0);&quot;&gt;.&lt;/span&gt;&lt;span style=&quot;border-color: var(--border-color); color: rgb(0, 0, 0);&quot;&gt;H&lt;/span&gt;&lt;span style=&quot;border-color: var(--border-color); color: rgb(0, 0, 0);&quot;&gt;.&lt;/span&gt;&lt;span style=&quot;border-color: var(--border-color); color: rgb(0, 0, 0);&quot;&gt;T&lt;/span&gt;&lt;span style=&quot;border-color: var(--border-color); color: rgb(0, 0, 0);&quot;&gt;&amp;nbsp;+&amp;nbsp;&lt;/span&gt;&lt;span style=&quot;border-color: var(--border-color);&quot;&gt;R&lt;/span&gt;&lt;span style=&quot;border-color: var(--border-color); color: rgb(0, 0, 0);&quot;&gt;)&lt;/span&gt;&lt;br style=&quot;border-color: var(--border-color);&quot;&gt;&lt;/font&gt;&lt;/span&gt;&lt;/div&gt;&lt;div style=&quot;border-color: var(--border-color);&quot;&gt;&lt;span style=&quot;border-color: var(--border-color); color: rgb(128, 128, 128);&quot;&gt;&lt;span style=&quot;border-color: var(--border-color); color: rgb(0, 0, 0);&quot;&gt;&lt;font style=&quot;border-color: var(--border-color);&quot;&gt;&lt;span style=&quot;border-color: var(--border-color); color: rgb(31, 55, 127);&quot;&gt;&lt;div style=&quot;border-color: var(--border-color); color: rgb(0, 0, 0);&quot;&gt;&lt;font style=&quot;font-size: 10px;&quot;&gt;&lt;span style=&quot;border-color: var(--border-color); color: rgb(0, 128, 0);&quot;&gt;# State Update Equation (Estimate)&lt;/span&gt;&lt;/font&gt;&lt;/div&gt;&lt;/span&gt;&lt;/font&gt;&lt;/span&gt;&lt;/span&gt;&lt;/div&gt;&lt;div style=&quot;font-size: 10px; border-color: var(--border-color);&quot;&gt;&lt;span style=&quot;border-color: var(--border-color); color: rgb(128, 128, 128);&quot;&gt;&lt;span style=&quot;border-color: var(--border-color); color: rgb(0, 0, 0);&quot;&gt;&lt;font style=&quot;border-color: var(--border-color);&quot;&gt;&lt;span style=&quot;border-color: var(--border-color); color: rgb(31, 55, 127);&quot;&gt;x&lt;/span&gt;&lt;span style=&quot;border-color: var(--border-color);&quot;&gt;&amp;nbsp;=&amp;nbsp;&lt;/span&gt;&lt;span style=&quot;border-color: var(--border-color); color: rgb(128, 128, 128);&quot;&gt;x_pred&lt;/span&gt;&lt;span style=&quot;border-color: var(--border-color);&quot;&gt;&amp;nbsp;+&amp;nbsp;&lt;/span&gt;&lt;span style=&quot;border-color: var(--border-color);&quot;&gt;K&lt;/span&gt;&lt;span style=&quot;border-color: var(--border-color);&quot;&gt;&amp;nbsp;@&amp;nbsp;&lt;/span&gt;&lt;span style=&quot;border-color: var(--border-color); color: rgb(31, 55, 127);&quot;&gt;y&lt;/span&gt;&lt;/font&gt;&lt;/span&gt;&lt;/span&gt;&lt;/div&gt;&lt;div style=&quot;border-color: var(--border-color);&quot;&gt;&lt;span style=&quot;border-color: var(--border-color); color: rgb(128, 128, 128);&quot;&gt;&lt;span style=&quot;border-color: var(--border-color); color: rgb(0, 0, 0);&quot;&gt;&lt;font style=&quot;border-color: var(--border-color); font-size: 10px;&quot;&gt;&lt;span style=&quot;border-color: var(--border-color);&quot;&gt;&lt;span style=&quot;border-color: var(--border-color); color: rgb(0, 128, 0);&quot;&gt;# Covariance Update Equation&lt;/span&gt;&amp;nbsp;&lt;/span&gt;&lt;br style=&quot;border-color: var(--border-color);&quot;&gt;&lt;/font&gt;&lt;/span&gt;&lt;/span&gt;&lt;/div&gt;&lt;div style=&quot;font-size: 10px; border-color: var(--border-color);&quot;&gt;&lt;span style=&quot;border-color: var(--border-color); color: rgb(128, 128, 128);&quot;&gt;&lt;span style=&quot;border-color: var(--border-color); color: rgb(0, 0, 0);&quot;&gt;&lt;span style=&quot;border-color: var(--border-color);&quot;&gt;&lt;font style=&quot;border-color: var(--border-color);&quot;&gt;&lt;span style=&quot;border-color: var(--border-color);&quot;&gt;P&lt;/span&gt;&lt;span style=&quot;border-color: var(--border-color);&quot;&gt;&amp;nbsp;= (&lt;/span&gt;&lt;span style=&quot;border-color: var(--border-color); color: rgb(128, 128, 128);&quot;&gt;self&lt;/span&gt;&lt;span style=&quot;border-color: var(--border-color);&quot;&gt;.&lt;/span&gt;&lt;span style=&quot;border-color: var(--border-color);&quot;&gt;I&lt;/span&gt;&lt;span style=&quot;border-color: var(--border-color);&quot;&gt;&amp;nbsp;&lt;/span&gt;&lt;span style=&quot;border-color: var(--border-color); color: rgb(116, 83, 31);&quot;&gt;-&lt;/span&gt;&lt;span style=&quot;border-color: var(--border-color);&quot;&gt;&amp;nbsp;&lt;/span&gt;&lt;span style=&quot;border-color: var(--border-color);&quot;&gt;K&lt;/span&gt;&lt;span style=&quot;border-color: var(--border-color);&quot;&gt;&amp;nbsp;&lt;/span&gt;&lt;span style=&quot;border-color: var(--border-color); color: rgb(116, 83, 31);&quot;&gt;@&lt;/span&gt;&lt;span style=&quot;border-color: var(--border-color);&quot;&gt;&amp;nbsp;&lt;/span&gt;&lt;span style=&quot;border-color: var(--border-color); color: rgb(128, 128, 128);&quot;&gt;self&lt;/span&gt;&lt;span style=&quot;border-color: var(--border-color);&quot;&gt;.&lt;/span&gt;&lt;span style=&quot;border-color: var(--border-color);&quot;&gt;H&lt;/span&gt;&lt;span style=&quot;border-color: var(--border-color);&quot;&gt;)@&amp;nbsp;&lt;/span&gt;&lt;span style=&quot;border-color: var(--border-color); color: rgb(128, 128, 128);&quot;&gt;P_pred&lt;/span&gt;&lt;/font&gt;&lt;/span&gt;&lt;/span&gt;&lt;/span&gt;&lt;/div&gt;&lt;/font&gt;&lt;/div&gt;&lt;/span&gt;" style="rounded=0;whiteSpace=wrap;html=1;" parent="1" vertex="1">
                    <mxGeometry x="1144" y="815.74" width="405" height="111" as="geometry"/>
                </mxCell>
                <mxCell id="107" value="&lt;font style=&quot;font-size: 12px;&quot;&gt;&lt;span style=&quot;border-color: var(--border-color); font-family: &amp;quot;IntelOne Mono&amp;quot;, Consolas, &amp;quot;Courier New&amp;quot;, monospace; text-align: left; background-color: rgb(255, 255, 255);&quot;&gt;&amp;nbsp;&lt;/span&gt;&lt;span style=&quot;border-color: var(--border-color); font-family: &amp;quot;IntelOne Mono&amp;quot;, Consolas, &amp;quot;Courier New&amp;quot;, monospace; text-align: left; background-color: rgb(255, 255, 255); color: rgb(143, 8, 196);&quot;&gt;return&lt;/span&gt;&lt;span style=&quot;border-color: var(--border-color); font-family: &amp;quot;IntelOne Mono&amp;quot;, Consolas, &amp;quot;Courier New&amp;quot;, monospace; text-align: left; background-color: rgb(255, 255, 255);&quot;&gt;&amp;nbsp;&lt;font color=&quot;#1f377f&quot;&gt;x, P&lt;/font&gt;&lt;/span&gt;&lt;/font&gt;" style="rounded=0;whiteSpace=wrap;html=1;" parent="1" vertex="1">
                    <mxGeometry x="1259.25" y="1007" width="174.5" height="45" as="geometry"/>
                </mxCell>
                <mxCell id="112" value="" style="edgeStyle=none;html=1;entryX=0;entryY=0.5;entryDx=0;entryDy=0;exitX=1;exitY=0.5;exitDx=0;exitDy=0;" edge="1" parent="1" source="120" target="118">
                    <mxGeometry relative="1" as="geometry">
                        <mxPoint x="2087.71" y="499.7499999999999" as="sourcePoint"/>
                        <mxPoint x="2162" y="488.88954635108485" as="targetPoint"/>
                    </mxGeometry>
                </mxCell>
                <mxCell id="114" style="edgeStyle=none;html=1;entryX=0;entryY=0.5;entryDx=0;entryDy=0;" edge="1" parent="1" target="120">
                    <mxGeometry relative="1" as="geometry">
                        <mxPoint x="1840.21" y="499.89459478407184" as="targetPoint"/>
                        <mxPoint x="1750" y="500" as="sourcePoint"/>
                    </mxGeometry>
                </mxCell>
                <mxCell id="113" style="edgeStyle=none;html=1;exitX=1;exitY=0.5;exitDx=0;exitDy=0;" edge="1" parent="1" source="118">
                    <mxGeometry relative="1" as="geometry">
                        <mxPoint x="2540" y="500" as="targetPoint"/>
                        <mxPoint x="2510" y="491.40490797546" as="sourcePoint"/>
                    </mxGeometry>
                </mxCell>
                <mxCell id="115" style="edgeStyle=none;html=1;" edge="1" parent="1">
                    <mxGeometry relative="1" as="geometry">
                        <mxPoint x="1783" y="500" as="targetPoint"/>
                        <mxPoint x="2500" y="500" as="sourcePoint"/>
                        <Array as="points">
                            <mxPoint x="2500" y="603"/>
                            <mxPoint x="1783" y="605"/>
                        </Array>
                    </mxGeometry>
                </mxCell>
                <mxCell id="116" value="" style="edgeStyle=none;html=1;entryX=0.004;entryY=0.349;entryDx=0;entryDy=0;entryPerimeter=0;" edge="1" parent="1" target="118">
                    <mxGeometry relative="1" as="geometry">
                        <mxPoint x="2122" y="423" as="sourcePoint"/>
                        <mxPoint x="2170" y="550" as="targetPoint"/>
                        <Array as="points">
                            <mxPoint x="2122" y="476"/>
                        </Array>
                    </mxGeometry>
                </mxCell>
                <mxCell id="117" value="&lt;b&gt;z, R&lt;/b&gt;" style="text;html=1;align=center;verticalAlign=middle;resizable=0;points=[];autosize=1;strokeColor=none;fillColor=none;" vertex="1" parent="1">
                    <mxGeometry x="2117" y="403.75" width="40" height="30" as="geometry"/>
                </mxCell>
                <mxCell id="118" value="" style="shape=image;verticalLabelPosition=bottom;labelBackgroundColor=default;verticalAlign=top;aspect=fixed;imageAspect=0;image=data:image/png,iVBORw0KGgoAAAANSUhEUgAAAwAAAAFJCAYAAAAsSUoDAAAgAElEQVR4Ae2d67HctrJGTwqOQSkoB4XgGJSCM1AAt8p/7m8ncB2BElACzkA56Nba3t9xu9VNghxyho8PVWOSINCPBbDR4My2/vPDxQRMwARMwARMwARMwARM4DYE/nMbT+2oCZiACZiACZiACZiACZjAD28APAlMwARMwARMwARMwARM4EYEvAG40WDbVRMwARMwARMwARMwARPwBsBzwARMwARMwARMwARMwARuRMAbgBsNtl01ARMwARMwARMwARMwAW8APAdMwARMwARMwARMwARM4EYEJjcA//nPf374YwaeA54DngOeA54DngOeA54DngPnnAPVvmZ2A1B1cp0JmIAJmMA1CLCgu5iACZiACVyTQBfjJyN/1+maiOyVCZiACdyPgOP8/cbcHpuACdyHQBfjvQG4zxywpyZgAibwE4FucfipoStMwARMwAROR6CL8d4AnG4obbAJmIAJbEegWxy202BJJmACJmACryLQxXhvAF41ItZrAiZgAgcg0C0OBzDNJpiACZiACTxIoIvx3gA8CNbdTcAETODMBLrF4cw+2XYTMAETMIG/CXQx3hsAzxATMAETuDGBbnG4MRK7bgImYAKXIdDFeG8ALjPEdsQETMAElhPoFoflktzDBEzABEzgaAS6GO8NwNFGyvaYgAmYwBMJdIvDE02wKhMwARMwgZ0IdDHeG4CdgFusCZiACZyBQLc4nMF222gCJmACJjBNoIvx3gBMc/NdEzABE7g0gW5xuLTTds4ETMAEbkKgi/HeANxkAthNEzABE6gIdItD1dZ1JmACJmAC5yLQxXhvAM41jrbWBEzABDYl0C0OmyqxMBMwARMwgZcQ6GK8NwAvGQ4rNQETMIFjEOgWh2NYZytMwARMwAQeIdDFeG8AHqHqvpMEPn369IOJx/EI5evXr2/2YBPnRyx//PHHG68vX74sNk+8keFiAqMEusVhtL/bmcBWBI4eo79///7j999///Hhw4dVa4hj9FYzxXKWEOhivDcASyjerC2TZskn4iGQ//LLLz9+/fXXNxlHSLgJvtiDXUfZlERmJO7itWYDwFh9/vw5ivS5CcwS6BaH2Y5uYAINAeK9Yq3WEGIuMY4kuotTR4/RxOWPHz+uXtMco5sJ4+pdCXQx3huAXbGfWziThrcdsSiYxzra5AlGIFfST9B8dcKNLbLh27dvb0Fc9kVfnnmut0lRJzbBcukG4M8//3zzCZkuJrCEQH52l/R1WxOIBIg/xFnmFEk+sVaFGKV7isW6x/GIMRqb8jpBbMa/XB99qc4doysqrnsGgS7GewPwDPon1VG9pWEiVZMptiUw5p+hcL00YG6J7bfffnt78ySZLFTUvbKwkOREH0bwzfVzdtL+r7/+mmvm+ybwE4Hqef6pkStMYIYAMVVvx3P8j11ZK6o5d8QYzUYlr1vEWuzP9dHH6twxuqLiumcQqJ439HoD8Az6J9VRBXEmUjWZeLvhBHR8oGELx5zor90AVJpZkPmtajWOVXvX3ZNA9Tzfk4S9foQACTxzKb4M6uQRl45etFHJif7aDUDlr2N0RcV1WxPoYrw3AFuTvrg8JlI3maLr+rqTtvzmPr/dIagSYPVVMEGVdrRf8mYeOfrdPH05j187yybks+jQhiPXBF8VzuMfdyFDX1fTvpLJhifqRnb85IVDurSAxLbiQB/qZZ8WIdjERD72lR711T39NEuy0U+baHPHS7b6eH0CzBcXE3iEAPFTcaeKlVl2/mkp9/eI0cQ7fSsh++Ix26Vrxf7YFvtkJ/XInlonYl/aUjjGesfoNyz+z84EmHNVqWvfW3adKkGuuwcBBa8pb0lUCbpaCPRmiGSTQr3qCLSc0ycGawXMOT0kxmqLXOyjLn4bgS18VKegS502AdRxTX/OSbyRq7YxicYm+qEHnzhHtvrTd64gG11aVNRe9TBBDhspPujiI3s5akMj/5GBHbRDNvXYJ+4w5p7ad7xki4/3IMBccTGBRwgoTq6dS8ROPlvGaMVSxViuFRvjy5TOb/opjsY2qp9bJxyjIzWfv5JA91xORv6u0ysdse7XEmBOTM0Lgl5MMmWtkmNtCqhHDm0V9KnLQVv981F6FNx1n0QdmdKjYB110FZv1mN/tSX5jkVvg2KdNjDSwz3ZTmI+V9Q26o8y4IWPKrKNfiqyIdZxT/bCl3NsHOUl2T7eh8DU83wfCvb0EQKKp8SbpUWxbesYTQxlLYhFukZe0qhtjq+qzzIUd6M+x+hIw+evItDFeG8AXjUiJ9XLROomEy7xViQHXep5C00/gqcK13nBUGKc69VHR71xyouG7utIMs5CkAv90B9tVWDPAV+BPdarLstFJp+5Ij8jD/p09bINv1VUF+3inmyL9aO8JNvH+xAYma/3oWFP1xBQzOG4tOwVo5nX2R7F11xf2dzF165eDOJLobm2jtEVeddtTaCL8ZOZStdpa+Ms7zwEmBNT80JvgtQuH+NbE+7lQDwaoBVsp8gRiCsd6kPyz30F4SXBWvrzBgR5cVMhXfkoP9EZS1cv22J71cl+yZFtsV51auOjCYgAc9bFBB4hoPjCcUnZM0Yzr/O3sYqv+lnklK1dfO3qxSDG3SVt1X/KJt8zgTUEuhg/Gfm7TmsMcJ9rEGBOTM0Lglj1xr3yHjl5wVCAzvW5/0iwnJMlGQrYS4K13qjH35LyMxt8ipucbLeuZRs6Y+nqZVtsrzrZLznZL+pVpzY+moAITD3PauOjCUwRUCzKCfdUH+4p3hGfqqK4pRgnPbpWn9yOen3rHF/S8PdUzPcYtyUjHztdXX1lw5K26p/t8LUJPEqgi/HeADxK9mb9mUjdZAKFgm78/XqHCDkEvVjmFgS1VbDMC4Huc5Ss7o28ZGiBWBKs8Y+NDguevvIl8UeX5EVb8rlsQ2csXb1si+1VlxnIr1hf1UW9Pr8vgann+b5U7PkSAnqTz1waiX+SrXi3R4zGJuQS+4jXitmjL6i6+NrVVzF2Sduqvzj5aAKPEOhivDcAj1C9YV8mUjeZwKE34/G36hFTfPOCHIJeLFoQcn1sw7kCa/W2nUAvPSwA6FGSHuUogVedZMbEmXtdYEYm96SDzU+lR/LjUX6iM5auXrbF9qobsVdt53hFW3x+DwJTz/M9CNjLLQgoTlYxJsvnTbxipeKnrmPbR2M065BeSqEH21gfRopiZo6vXb38j+3XtK34xTVtxHa3MYFIoIvx3gBESj6fJcBE6iYTnXn7ozZ5E0Bgi8GRdgTNWLhf1cc2WY+Sfer1lkdvoRSAc1CVnbGv2kYbkVkFdhar0TdJ2Xau5Sc6KdjNJ9err2xTe+pVlzljFwyjH/KX+uhz5iV9Pt6HAHPCxQQeJUBMVDIfY0yWS7sqjm0do7Ehy8y2TF0rviqO5jVF9ZJRrROS4RgtSj6+gkAX4ycjf9fpFQ5Y5+sJEMSYE3ymAjz31I6fyBAY9fZFXrAI0IZ6BVbuSQf9SE6nioIrckh6FYCjbUpwaaMgjD7a82YoFr0piv8bUPpjS+xPHxYW6miLHXyQz6KAb3NFCTmy6aOFSv7jS/RftkWb6SffaYtM7NEGANnRlxFec3b7/vUIMIdcTGALAnETQEyLSTLxiRikWCd9e8Vo4h/ri+IzR9YGbMKWuaJ1jJjLNxb0pygWx9jarROO0XOUff8ZBLoYPxn5u07PMNg6jkWAuVB9OisJmEqcOSp40p7zLIs6JfDxXlxAKl0kzFEPenMhOLPo6O1Utof2UafOFbx1zREbKeiJ9fk8L3LZJq7FAZksnJ3/WbZsQAaLkO5zjq/c58MCxnUsI7xie59fnwDzx8UEtiJAzCHOxHhG7CVx7uL5HjE6xkbFyHiML4o63+UD8RwbY3+dV+tEXO+iHY7RHWnX70mAuVqVuva9ZdepEuQ6E7gTAS1YBH+9HSLo89FmY+SbgDsxs6/HJOA4f8xxsVWPESA2E485kuwrPnNkM8KmxMUE7kCgi/HeANxh9O3jpgRI/vmZDceu8KbHG4COjuuPRKBbHI5ko20xgSUE9I3qVB/e7ruYwB0IdDHeG4A7jL593JSAfqffbQD07cCmSi3MBHYi0C0OO6mzWBPYnQBv+HlJ0xU2CHwT4GICdyDQxXhvAO4w+vZxUwL6/T9fIfOmn6+X9VMgrnmz1G0ONjXEwkxgAwLd4rCBaIswgZcQIA4zr/X3XsRs/RSIn2iO/I3WSwy3UhPYgUAX470B2AG2RV6fAIuJfkfKw8WHN058O+BiAmci0C0OZ/LBtppAJsCLGf0Rr2I0MZvNgIsJ3IlAF+O9AbjTLLCvJmACJpAIdItDauZLEzABEzCBExLoYrw3ACccTJtsAiZgAlsR6BaHreRbjgmYgAmYwOsIdDHeG4DXjYk1m4AJmMDLCXSLw8sNswEmYAImYAIPE+hivDcAD6O1ABMwARM4L4FucTivR7bcBEzABExABLoY7w2ACPloAiZgAjck0C0ON0Rhl03ABEzgcgS6GO8NwOWG2g6ZgAmYwDiBbnEYl+CWJmACJmACRyXQxXhvAI46YrbLBEzABJ5AoFscnqDaKkzABEzABHYm0MV4bwB2Bm/xJmACJnBkAt3icGSbbZsJmIAJmMAYgS7GewMwxs+tTMAETOCSBLrF4ZLO2ikTMAETuBmBLsZ7A3CziWB3TcAETCAS6BaH2MbnJmACJmAC5yTQxXhvAM45nrbaBEzABDYh0C0Omwi3EBMwARMwgZcS6GK8NwAvHRYrNwETMIHXEugWh9daZe0mYAImYAJbEOhivDcAW9C1DBMwARM4KYFucTipOzbbBEzABEwgEOhivDcAAZJPTcAETOBuBLrF4W4c7K8JmIAJXJFAF+O9AbjiaNsnEzABExgk0C0Og93dzARMwARM4MAEuhg/uwGgoz9m4DngOeA54DngOeA54DngOeA5cL45UO1PZjcAVSfXmYAJmIAJXIMAi7mLCZiACZjANQl0MX4y8nedronIXpmACZjA/Qg4zt9vzO2xCZjAfQh0Md4bgPvMAXtqAiZgAj8R6BaHnxq6wgRMwARM4HQEuhjvDcDphtIGm4AJmMB2BLrFYTsNlmQCJmACJvAqAl2M9wbgVSNivSZgAiZwAALd4nAA02yCCZiACZjAgwS6GO8NwINg3d0ETMAEzkygWxzO7JNtNwETMAET+JtAF+O9AfAMMQETMIEbE+gWhxsjsesmYAImcBkCXYz3BuAyQ2xHTMAETGA5gW5xWC7JPUzABEzABI5GoIvx3gAcbaRsjwmYgAk8kUC3ODzRBKsyARMwARPYiUAX470B2Am4xZqACZjAGQh0i8MZbLeNJmACJmAC0wS6GH+aDcD3799/fPz48QeOfP36ddpb3zUBEzABExgi0C0OQ53dyARMwARM4NAEuhh/mg2A6H7+/PkHHxcTMAETMIHHCXSLw+OSLcEETMAETODVBLoYf7oNACDZAPCNgIsJmIAJmMBjBLrF4TGp7m0CJmACJnAEAl2MP+UG4AhAbYMJmIAJXIFAtzhcwTf7YAImYAJ3J9DF+JdtAP74448fnz59+vHly5fhseG3/zjC51l/B/DXX3/9+O2333788ssvT9GJX3zDAZsty5Zy4cEY+KdYW46QZZnAawh0i8NrrLFWEzABEzCBLQl0MX6TDQDJKgqqD4nzr7/++q/kmeSfOtov2QCgh37I3DpBrmCT/GPfhw8f3mzde9Px7du3t80GXLb0bw+52AcXFxMwgXMTIN64mIAJmIAJXJNAF+MnI3/XqULEb/KVKPOGWIVkn4QdWZyrkExTN7oBoL2SYhJa/o9AeyfkslWblWfpg4t8lQ1bHLeUq/FmLFxMwATOS4C44HIPAox1/mhdJpZrrY5tHOPvMTfs5XUJdDF+MvJ3nTpMJPP0yUk9AUYBhbfqlKUbADYV8Q9/OY8bjc6mLerl154bAPHJx8zyEX+QveXGgoVBi8cjdrmvCZjA6wgQF1zuQeDPP//871rMuOf1RWud1iHau5iACZybQBfjJyN/16lDoeCRgwrtFVB+//33t+5LNwCdzmfUy68lGwDa8o3ImrcnsNoyURejNXL1pn800YfVHrbLBx9NwAS2JbA0zm+r3dKeSUDrrtbjrFtrHff5lt3FBEzg/AS6GP/0DYA2BwpEXJNk8gelGMlXkFWyycZBPzGiHT/L0bcJDE/8Y12ueXOh9iSk8duDqeGULfoqlL7xJ0CyGxsi1Bg4qcdejvK308kGQfLRqT+wrZLo2BbZ9MOe0UKfKJdrfSQn+yc/Yr9sBwuFxky+IIc6+o2OMezxX+xlm45zLEc5uJ0JmMA/BHi+XO5BgJiseBpjurynTvef9Q27dPtoAiawD4Euxk9G/q5TZ6KS4Jyoxa8d9UZciSZBhuSfNnxI/vjEhF1JqJJMBTEFMNqiU4kj97lGhzYW2abKB+SQzPJhQ8G1+sMCeRR8UJCMcqKf9GUDgu1dkRzZhk50I1u+qa9kS15sKy5q2x2zXNkYfaMvssUSn0nq+VA0bpUdjKXG5n//93//u7EZGWNk4zPMMnvqXEzABPYhwPO/pMRYyzNLHFHRCwBkKmbo3pmOisP4UX1YF85Y4nqmdSf6EX1lzcmFNUsv1jhqPacdcZ7+ee3KMnxtAibwXAI8l1Wpa99bdp0qQdQRUOgTg6OS+lyvRJJAGxcQyVCyjVwCSrZFATraonY5cNF3JChhd958IF8BL9pU6actuvRBXvQt2qrkOy+S4hLtpS12Ra7IIlFGV2Vz1KXzioOCdvSN9mKpPgR62dzZIVu0OYi+RA7VGOcNDjbIb+Tiq4sJmMD2BHi+RoueXfroQwxRic9sjhNqc/QjPuBbXJsUy6gn3sbE9+j+RPu0buFHjvnRR+7nmMs1vnNPH61fjLXqmCMuJmACxyHAs1mVuva9ZdepEkSdFgcSZiXNyCDo5KCgYJPrJUNJJHIJLsiIRQnqXB33FZhi23yuoF8tWgpuMWBW+kd10U5vyvNmRTLiBmCqrWyLvLJvuoZDlEu9eEffqJd/sX7EDtqozI1xHPsldki+jyZgAo8TWBLn9dZXzyt9qYtFSeKWSbLikWL5yDHGl2jf3DlxK75UyYnvSKyd0/GK+1rjRtjlMcVe/Ga9gYdkwAnOHLcc71fwsU4TuCoBnteq1LXvLbtOlSDqtCiMBN4lyWHUR7/4NXO8p0Ui1nGuYJXr47WS28p2+YVulUd0IUM+RJmSjb3IV5lqS1DO7dUvH6t2lW/0k3/Rvik7xI82KvRFZ2YqnbFedXEDEe3w4iKqPprAtgR4RpeWmATG/koyY/xaKvto7eNb8xjfjmbnnD2Kx9U6QF/FfO7P+Rnb0t7xeY6+75vA6wjEGB2tmIz8XacoIJ4riYuJXbwfzxWMcttOBu15K0Hg4a25AlCUWdVxHz/mfOn00l/3sEHlEV3IUP8oU7KxlfsqU23FMbZXv3zMcrlf+UZ9pbOqk47KDtWhIxbpjPUsINiXv4Fh8a3eRkV5PjcBE1hPYC42dpL1pp/+imN6EaDrru9Z6vUTSXwkDrHB2bIopiJ/9BPj5hJbFHfRU8mI41ndj7rmZMW2PjcBE3gtAZ75qtS17y27TpUg6hQU5oIHbZckh1pU4tthBc5oS1XHfQXW2DafT9mue3FRe0QXutU/ypRN2Mt9FbWtvnoWx5w4q288Zrncq3yjXjqjffoGYMqO+OZItuX5IJ25Xj9n0s+iNO66jr743ARMYBsCS+O8tCoe0F/PqF7SqM2Zj/iEb/qc/S23YnocL41P/kYnxn21icfIJsfx2M7nJmACryfAM1+Vuva9ZdepEkRdl9hV7UeTQwWmmFgiT8Esyq7quK8AHtvmcwW0/LcGtJNfMSg+oguZWjyr4Im9yFfRz3wyA+7L7rg5Ur98zHK5X/lGvfyLPi+1Y3SMZSdv1/CRJAJbGQv8czEBE9iPAM/amqLYQX/OtWGPMWON3KqP4hG6Rj9VbK1kV3WsO/GNePXSo+p35LroD/7FolgttvFeda6XNbSv1qWqj+tMwAReQ4DntCp17XvLrlMliDotCCOBVwEnt80y1C4HGf0uM9qiRSLWcT4S1Eg+FSBzMq2vgePCJl3xrZB+/zrCTYslOvPXyvSPP3uJtuXATSCObbPv8Rq52B2LeOcFTnyjz3N2ZF80dnNjjD3IRmf2L9rqcxMwge0JjMSrSqueb/orDnG8QlH8w7e89pzRP+IqvuiTfdA6wH18nyq01VpJe85dTMAEjkuA57Qqde17y65TJYgETm9uOXI9VfQ2mYQ0tiXYoldBl3sKNvThjTD3pItEmvqoP7411m/LkRmT9co2JeW0JcixwHHUYoBeyVbA1IKntvTlQ5+8kcg66UtbfKGtfJMMNh6yWbYhV0kyfsMG3XMlclB/+mgRRy4MuYde+YxtXKtEO2QbdmOz2Kjt6BjTXnJhDFt9sG/EP+n00QRMYBkBnt01hXihWMWRWERdLFzrBQpHrnnGaU+MOWKRvdgY1zJsj/H2TL4pvuJTfgnEGGhMuB/jfR4fxXRisl6C0Ydr7mk9PBOb7KOvTeBqBHhGq1LXvrfsOmVBMRDQRx+SuKpU7Qkg6qejAhXBS5sAAgzBRQk4wer//u//yr5qI3kcO5tkJ0msNhccuaYPtsQEFxvkB7YR/CjowMbYVrKrI7LlG0GYpJprZCjBVj9kKjFHj9rrfnec4xAXPM7lG/7BnutYGKtsB3WxiE1kX40x9ylsPMQh9tE5+rIdUZ/PTcAE1hHQM7imt2IlMqqYR1zkuScG8QwT13jWaUufHDfW2LBlH9mFbcQjxWDFxMjqTL7FeMw4xIJvMfZWG4AY71kTKNW6ovE8E5vIwucmcEUCMW5F/zbZAESBPjeBtQRIDlhAlDCwwPBhQSLR0CZrrXz3MwET+JlAtzj83PLnGr055jhVeLZJMrWJ1xvpqT6vuBcTXbjkT06esfHovmFf9iMm+XETRzvGSYm8xkD1Sv6pj5sivSxTex2PzkZ2+mgCVybA81uVuva9ZdepEuQ6E3iEAAtF9QZRMrnnDYBo+GgC2xFYG+dJAEmIY2LfWUWCGJNOnnfeSl+hXNm3R8fHbB4l6P4m8DiBLsZ7A/A4W0t4kABfszNBpzYAJAx6e/igOnc3ARMIBLrFITQpT3km6ZvfFufG/OQnt2PTwLd7Zy9X9u3RsTGbRwm6vwlsQ6CL8d4AbMPXUh4gwEJBQsAkJanQ70f1UyDeMuq3uA+ocVcTMIGCQLc45KYk7DyLbMSV/I98K5d/7hMTQz3rWddZrq/s26NjYDaPEnR/E9iGQBfjvQHYhq+lPEiApICkgq+Mmax89PWx3/w/CNfdTWCCQLc45C76vb+eT57XkUK7/Nt5/XRoZAMxouNVba7s26NMzeZRgu5vAtsQ6GK8NwDb8LUUEzABEzglgW5xyM7o/yTDxvzsiXv2zdcmYAImcFUCXYz3BuCqI26/TMAETGCAQLc4DHR1ExMwARMwgYMT6GK8NwAHHzibZwImYAJ7EugWhz11WrYJmIAJmMBzCHQx3huA5/C3FhMwARM4JIFucTiksTbKBEzABExgEYEuxnsDsAijG5uACZjAtQh0i8O1vLQ3JmACJnBPAl2M9wbgnvPBXpuACZjAG4FucTAeEzABEzCB8xPoYrw3AOcfW3tgAiZgAqsJdIvDaoHuaAImYAImcBgCXYz3BuAwQ2RDTMAETOD5BLrF4fmWWKMJmIAJmMDWBLoY7w3A1qQtzwRMwARORKBbHE7kgk01ARMwARNoCHQx3huABpirTcAETOAOBLrF4Q6+20cTMAETuDqBLsZ7A3D1kbd/JmACJjBBoFscJrr4lgmYgAmYwEkIdDHeG4CTDKDNNAETMIE9CHSLwx66LNMETMAETOC5BLoY7w3Ac8fB2kzABEzgUAS6xeFQRtoYEzABEzCBVQS6GO8NwCqc7mQCJmAC1yDQLQ7X8M5emIAJmMC9CXQx3huAe88Le28CJnBzAt3icHMsdt8ETMAELkGgi/GzGwA6+mMGngOeA54DngOeA54DngOeA54D55sD1U5mdgNQdXKdCZiACZjANQiwmLuYgAmYgAlck0AX4ycjf9fpmojslQmYgAncj4Dj/P3G3B6bgAnch0AX470BuM8csKcmYAIm8BOBbnH4qaErTMAETMAETkegi/HeAJxuKG2wCZiACWxHoFscttNgSSZgAiZgAq8i0MV4bwBeNSLWawImYAIHINAtDgcwzSaYgAmYgAk8SKCL8d4APAjW3U3ABEzgzAS6xeHMPtl2EzABEzCBvwl0Md4bAM8QEzABE7gxgW5xuDESu24CJmAClyHQxXhvAC4zxHbEBEzABJYT6BaH5ZLcwwRMwARM4GgEuhjvDcDRRsr2mIAJmMATCXSLwxNNsCoTMAETMIGdCHQx3huAnYBbrAmYgAmcgUC3OJzBdttoAiZgAiYwTaCL8d4ATHPz3UECv//++w8m2efPnwd7uJkJ7E/g27dvb/Py48ePP75//76/whNq6BaHE7pik03ABEzABBKBLsZ7A5BA+XIdgQ8fPjj5X4fOvXYkwIbUyf804G5xmO7luyZgAiZgAmcg0MV4bwDOMHoHt/Hr168//vjjj4NbafPuRoA3/r/99tvd3F7sb7c4LBbkDiZgAiZgAocj0MV4bwAON1Q2yARMwASeR6BbHJ5ngTWZgAmYgAnsRaCL8YfYAPDzEQzkTfLSwpvnT58+/fjy5cvSrru1f8SfKaPW+ApT2K7lO2UP93jL+ssvv7zJP9IYYBu+8xMQ5ofL/Qgw7sx7j//02MPIxQS2IKC1pjtuocMy9iPQjZvq99N8TcnkIPwE9dVrEONXlbr2vWXXKQuKSaYmytQxwtAf6fFHpEsLCfGvv/56qOTzEX+m/F/rK6xhRJIeuU/pWnKPpJ8JzgcdcxP/+BgAACAASURBVH9oOTVXpBc78/xZajvjwM8/kLO0r+zw8bwEmGfMR8UHrl1qAjwjLibwKAHF9j///PPt5QvzimeQQizmxZjLcQl4/LYbm7/++uu/a88RcpAuxk9G/q5TxqTFNi6ymkwx+SI5zG9kSfxZpNcW6Xn07fOj/WX/o/5ITnVc6ivtxZ+EmCSduq0K40lQ58iHcRzlSDvmFx82N7nE5P0Rm5EvBlnHXa7h9wjDM3JizOUzc+3uc2BqDEfj/JQM3zMBEn/Ff8V3re1c67wjVeUHXVvXb0/g0fHb3qLnSCRni+vFFlrJc4/0ErKL8ZttAHISx+LbJV/AUSHR48FfW6RHgWeNHGRslSA86s+U/Ut9zbbAmbqtCg8OkzyWrDPey+fMj2piYieblThPct/R624Ojva/Qrutg9vRmfCc5HjENfUuPxOonsGfW/27RgmenmGO8Q1vdX+L5/nfVjz3Kvqaz/VtU46Hz7VwG23V2MWxZRyz/zm5J+bQhjVipJB8whDdOR/Qupd18paVwrOd7+mbB+nuZKgf/uFX1q3+ZzqKvXzjGJ89fI33OM/jJBm5/lUcqjkZfSBfeMRW5ofmwJY+ym54vrLAqip17XvLrlMWBDw9jLqnB65y/JGBknwdpQfQawoBm2BR2blG3p59HvV1T9vWyNYDHPsq+d9qjqDjDGMbGWx5rsWaueNiAhWB0Tif+7Lo6hkmhuY1QPc4Voldlnf0a5LU6JP8VVzmHhyusAmIY0tiJF81RpED8TUnzro/wkJc86ZdujjyYkkyOeZ4hg26X83FLAOfVJSk0R+/sy9qd5Yj9osFRzZn0ac4X7lfvRRU/5HxexaXOCe1ocEvrXHYrPo1NiELHY/IyHo1t16dg8CmKnXte8uuUyUo12mSTTkOcBI9Hsb4QHPOIKgvEHmosSdPVunRAqPJQPupgIK9euuA3PiJvtBGEw+ZyM/BkPbYoXbI4jz6lH3lwVLQwv+RB22pr3o4xC7bFP2M5/SLARc7NRax3Sib2Ceei7nq0IuNc+NG+znekomObDt2U6c5g68w4qP5JXb0pz7bJEZiq77Uq2Dj6DxWny2P+CjGOuIzBX/EgLnHHMSHOA9pSz19OYpXtDHKmWNGP54dFiTZk4/xmYl6OBdz9cF+PrngQ9TB+ZTc3P9u1/BcU+L80nMjOfDWOOVnR23Odow+8TzEMsUitjvLefRHMSParrHlSDyNhedP92N9dc4zTdwhTk4VbJDM6pmP9ua5KLlRRtYn2ZU/6n+mY/Qnx744j2kX1yx8XDJ+I0zEfaTtVJs4xvEFIfZHf7M/UzLzPfke5atN1B/16byal/K9uie5zzhiY1Xq2veWXadKUK7TJJtyHMhKmjVJGQAeYHTTl3MWEO7ntuiUHtrxUBOM+BBU+IxMBunKPiATGbKNo+Rip4omjYIK12on/dFXzmmLPM47/ZKv4xJf0QsvJiAFm5TMRdslOx7xW28NkMN1ngujbKLcfI5MySUxHE3+R3hLV2bL3FByKD+ZX9RrfnFNm1wfuXGfMVYd44muyFvcRuax7N36qACkOYz8zAD7+GA/85ECCz7a7GqeUqc5neXMPX/0g5nmlsYcvXp2pvzXeCGnm5fYFP2IOhhPl58JwGtNUTyhP9xVNM7UX4m5ngH8Yg7HoueHeyNzOfY94nkc2xg7sFXrEL7yYbxjESeYzBXFJ8WZrr3iK/oUY2Nb2cIxzsXYhjFTO8U53Vc9x7PPWVhGf+SjjmJOG+J5LkvGL/etrqWvurekjrVDfmndVX/Vc5ybS+rTHZlr6Mrzums/VS/fR56FKTmP3oNLVera95Zdp0pQrlOQmHNcgHKQQTeDEAdTMumjorqYmHCvk6t+8YiubKfk5mDAdW5f6VLyF/1SO+7Fgu4R1rJpxFd0ZZ+UHOXFK9rCOdxzEI2BQnaMsMmy4zU+8+FhRmcOyrFtPBfHyLbiTZ88VtTJ/sxRfHK9xhy9KlkuwSLXSf/IPJbcrY8VK3SIAbYp0Imn+sRnjz5ahCMHyWGuSQ5tJUMyqdMYxeCt/vmNKu1zmZuX6KdNTsC0IEZfs+w7XzNvlxYxpS8fzRXGgOeHuhwfluo4WnvNf3zLsUo+V/eO5secPXlsc3s92/iK37ko0Y5xIrfRNc/k3HpE20c2JNIVZcQYxJzFF33iPfU901HrFf7kHAA/lG9wP+ci3F8yfiNcNF9G2nZtpuYk46WxYz49WpQH5Gd8jVz5Xo3DGnlr+8CnKnXte8uuUyUo12lhn3NcgGKigCx0576VTNXlYCO5I4NY6VKwj0mNfFQgUaDggWPiaRGknfRHv6o62uqBjG2lKx6X+Io92ff4oES5+Rz/chIcZS1hk2XHa7iLPcesM7aN56O86SP5sX/HcUk9jHLwrHRVddKT53e0cavzbs7JBu7novHP9QrCMch2cqQ3ytc8z3JhxGeuyK74TMZ5qYUvb16Rqzkb28/pu8v9EfaZhRZJ+jIulCsn//iHn5qrzHsVPQPc49mI81NtznSMY1vFKD3H+MtzFQsxAgbci89+bKNz6ZlrB09x55iLYg33NBdzG8UuyYn3Y//K39j2DOd60YKvFVsx4EjMjGXJ+MV+U+fiO9Vm7p5iOzbnMVJs7/ydk13dr/RU7abqmLd6VpiXsH1VwZ+q1LXvLbtOlaBcp6CYByu30+SIAZU21QBUMlWXJ7rk5vqsv9OlIFa1n9ohM8hMSPWPfsmmWId8TZJcn3WP+pqDHSzzZ2oy6mHDB2zOC5p8y/ZxPcUmt5dNyNcbNI7aWOX21fUUb9pPzaM8Nzq+Xb3sgZfsz/N9Sn9uK3lbHrs51/mkTWJnm8ae/pROjvRGxprnee7BCLlzZW5eau7JtiiPxL8ai9jmrudwWVpikgF3xlTPwCs2WZqH+LLkM+p3lYRSx5zUM8FxSewa1f3sdnFs51jifyyaA+oX7+VzxYjqeY1ttVGQzKlj3pBITpSh2MaclQ3IxPa81qn/mY55DKZ45Vic+27htxg/IivOSc4p2B7r41rziC76isNaOVrrMnvNvbVy1/bDjqrUte8tu06VoFyngDznsCZHDgLozn0rmarLgy+5uT7byXWli7rO/0o2kxF72ekRFDUxo1/qF+vQTz905fps66ivakfQW1uQoTdeLGxR1lI2nQ1RTtwEjCykI7zRi45uHuW5IW6j9SQ62Mqi0yXOU/qzXZGT5oQYTR2n5HRzbs7XTqbsoj+lkyO9kaWS8Jg0KLHqFu7IRPq6eZlti31lZ+dXbHu3c+bW0iLW1byMY75U7lHbxwQy+szzDwvm9hWSR/jHsdVzrnHRcyQGj2x4pGdOhmIJOqu5JVs4dptPrcexLefEEjawMSbJ17Meo4/Zh8iSufuMIp2P6FJCHn3TuV5APCI/99XczBuk3O4s17CqSl373rLrVAnKdQoUgJwqmhw50KA7961kqi4HBsnN9ZUtlS7q+FTBSbIVNGijRFDy1Sb6VdXRXpMttpWceBz1FXuwXTvlKGPpOT7iG/K0CVjCZkqf5KjN6CZglDdy0dHNozw3Or5Vvb7lifOj0lXVSV62Sxy2PHZzTjZ0DLrFQXNVgbGTI71RvsaXRVfcxFHyRn2v5qVsq5IA2Tm60Ri14wrtmKNLC330YSzhqmvG92pF8xkf45y+mp/4o3HkmIs28WqT7y+51vM610ft0MlzHAtzT7ZU99V2SobaXOGoOAcLfM5F35J293P7JdfxGYljMnVe2VjpjDJYRxh35SUcl64flY5Yp/mS51tsc6Zz+FWlrn1v2XWqBOU6TcS5AdakyaDRnftWMlWXg7Lk5vpsJ9eVLj0oVTKhtwmadCx4OWGS/uhXVYf+0cm2xFfswa7qrZQ2LhWLqk5BVuOxhE0lT3Vwr+aYkgl8QHcuo7zpV41tx3G0Hn7IzXOj0lXVSY94Zv+2vO7mnGyong+4Y3fFnjcxMcHr5Ehvlo9M/JYO5lKlZ4QB/SJfJSfIzEVvcJfO/SznitcwXFI05vRTX2KhrjlejbNiNL7pRcgSZmdpG8eWZz0XxWY4PBq/xDTryNdxXuX1TLFYbXJfXes+xyxDba5wVNzFz+oFILFbLHJs3st/2bRWfpyTce2Jc7Hyda0++mluovsKhTGvSl373rLrVAnKdRq0uSChyZFBozv3rWSqLk9myc312U6usy4WM8mNE059qWPyqdCfhCYWbRKiX7Ip1tFndLLJpuyT5MZ6PRwEcW1U0EXSVCVI0fbqPjZqPGTHCJsoN5/DjU9VZD9c84I7yhu5tJXd0iP7c9BQfeRIn1wv3nEDwKJS6arqJC/bJfu2PMpWdFI0F2RDZkAb9YlzXH3xJyZ3kpOZSUasZ+5VScWbYQP/mZuXjIE2FvJTYvGlmq+6f+cjY7qkaKOV5zbjQ12uXyJ7bVvNQ+kfPY7qi/Ly3BqV8ep2PB88j1PPYBzb/PxjPzFLLOKzvcY3yZrqq00+OqvnV3GG+108jXOjkjGl/0j3mHeMSTUusjM+gzFO677GjiNcnlE0Rmt1qT82xzUgztVu7Nfq1Nx8FqO1do72g11V6tr3ll2nSlCu00RkQeYh7oraxUmth56+MdhqwHmItYtXHQOmOnRJbpwwnQ3Iw1cSTRIi6cQm6jkimw/nUT8yNVm4x4ThSJClL/IUKGVTTLqQKf34MlWW+Ipc2YAd2Mj13HigXz6LgwJoTMTxUe2m2HT+yBdkVH6ji3v6oE/zaJS35hEy5Av2SDc8sF2lq1cA0hwTD1hiJ4FWY6s66qV/ZB7Lhq2PekOGfdikuSifmHuRDfrj3NHY0AZe+XkSM7GR/eIR22vO6JnABvrDU2Or/tWRcUSG7NU44JeK/MVWtUMHY0B7l58JwHVJ0TjSL8YyxoE6fcR/iewjttVzjF/MozMWngueUezn2JU4tooVsa3GlmN87mKb0XPsQM7Uc6nnmXaV3ZLB/TgXow2KUbSJ8Si2OfI58ZixkK/VuMh+5RIVV8VL7vGJa5/673HEXvStLVpLkBF9z/6slV/1E+urxLCO/+SodJ0qYKrLg4IMPtXDq3s60kaTRXUcqdOAxPrqvNJf6Za9HAlkBEYenhzU0K2HijYEyPzgsECoDbq4lh1cM4ketbXyXzqi7OgrdsaAzoM0kmjhCwmU5FZc4DbCJnLmvLJZetR2qg06R3jTTnJ1pK7juKQeO1lskMucQC4FGVyz4CzVL9/3OMo3zV1diwtHmMeiuYM/3GcOyE+16+REuTqnT04QdU9H7Jsqo/MSPXH+js77Kd1Xvgf/JYVx0JjleKn5wv1qPJln9KcdcZEET/KyrCU27dk2JpDM+dGyxtc1fUbswQeKYmDXR2PB+OWYQNzVuHPM62Ans6tXjMx6Yvu4fuX4Q7s437r50yWQUU91DjPkE0soxHyuNXe36lPJiXU8J/KN+VdxoH3OM6IMzuM8lk+5zR7XGue1suMYx7nC/IvzMeY23NMazZFrzYMR37V+rLX5aP3gVJW69r1l16kS5DoTMAETmCJAEGZBJ4izoLEw6EM9gT4G8SlZvrcdgSVxnrGLi64SE1kTN4U5UdKizBEZjLkSUxbcJcm19O19JKmKSTHn2D9X1vi6ps+cHfk+z1vHeW5slchp/Ec4ZP3xmrmDLORWBfkx+SORi2XOXtrmNiSBI4V+zE31Rzfn2NTZvKbPiC2xzdQGYG584rM5kgRHvY+cy641MtRXc07xQrLis8nYak5q7OiPr8QabaSQxVh1RWPcPSddvyPX43NV6tr3ll2nSpDrjktAO+G8WB/XYlt2FAJapPPiu9Q+giqBWAG66o8ObwAqMvvWjcZ5xiYmZPTjWmM6d19e6E0li7MKC3m8Vv2rjzFpwl8+SxKDNb6O9FFiKpuqY5XkwLiyvxo7ZGps409xpGs0me7GENnMny4ZjcmddGoNq+ytNmfqF49L5pn8FkuNja4r30b6YEO0qTqvZDN2lf3SGeVEriTA8R7nOZmu9G1RJ1+XyurmeGSf/cpsuB9jlDhN2aI171l8pmzZ6h7jXZW69r1l16kS5LrjEvAG4Lhjc3TLFAwf3QAQTIknSiiy39QTrF2eT+DZcV6LsObCSFL1fCrbaFzj65o+o9aSIFUbgNH+W7dTAsccOGLBvphIa2ymbF3TZ0pevNdtAGIbn/9DgE1hXLsYm7n5z8Y2bhr+kXbesy7GewNw3jG15SZwGgLaSBBYCcgspLzJoZ5rgrISwtM4dRFDu8VhL/fyIqzN4V76Xil3ja9r+oz6eLQNAM88MeHRbxNG/V/aLn8zhZ1zCeSaPqN2eQMwSuqfv4mI3xgw1/K3BFGivnWYahPbn+W8i/HeAJxlBG2nCZycAMFVb1cISHx4u3alr1rPOETd4rCXLzlBUsLLW+D4tm4v/c+UO+IryUZ8yzzSZ40PJNt6/o70xl0vB3gpcKRSfTOlsSGWKW6RlGvejvZZ4yey0e+XJWP08rc1cWwYu7gxQCLPB3yPuhkd87pu1cV4bwBqXq41ARMwgVsQ6BaHPZzXIkzSp6IEkMSG+1cpo76yASDxoIz2WcoItoxz/iyVs1d75oC+HTzKN4FKIKM9JPow5Kh62LKJpYz2WcoxjxvX6HXpCTAmcWNNS66ZZ9q8qTebAerpo3HVvSscmS9VqWvfW3adKkGuMwETMAETOB8Bx/nXjhlJx9V+crCGKJsfWJwtsWXzlt8mr/HffV5DgM0Ac+7KY9jFeG8AXjPnrNUETMAEDkGgWxwOYdzFjVDSe3E3L+seb/z5uJjAkQl0Md4bgCOPmm0zARMwgZ0JdIvDzmot3gRMwARM4AkEuhjvDcAT4FuFCZiACRyVQLc4HNVe22UCJmACJjBOoIvx3gCMM3RLEzABE7gcgW5xuJyjdsgETMAEbkigi/HeANxwMthlEzABExCBbnHQfR9NwARMwATOS6CL8d4AnHdMbbkJmIAJPEygWxweFmwBJmACJmACLyfQxXhvAF4+NDbABEzABF5HoFscXmeRNZuACZiACWxFoIvxu20A+H+q5n9sYStnOjn877j4/7n6/6ncEfq7Xv/ohf71wunW/77L/7YOvlf8xzL+7amvTOAeBLrF4R7e20sTMAETuDaBLsbvsgGI/29ckkWU50/8xz7yPa6XJvH8S4L8E85r+h516OGof7pdjODGxooEfE0Cj6+PbADoj27s+vbt21HR2S4TMIFBAsQWFxMwARMwgWsS6GL8ZOTvOk0hUtIa2yhhRB7/3HKVOPJPNHOffwmQt8xrCoktMpZuHtbo2rMPvMQDXyIvzrXRyf/M9Z42ZdnYwVhiq4sJmMB5CayJ8+f11pabgAmYwL0IdDF+0w0ASSGKqgReyXl8868hUDLJ5uGRIh1n3gAo+e82SuLDRqkbVLXZ+wjnajz31mv5JmAC2xF4dRzZzhNLMgETMAETyAS6GL/pBoBkkLfTVVFynhNGkv8PHz68/Syl6rekTjrOvAHQ2/2Rv5+A2ysLGz0m1qMbt1f6YN0mcHcC3eJwdy723wRMwASuQKCL8ZttAJR8d4mr7scNgJJ/jlOFt+L83p234jjCkev88xPpiBsA/dEqfSi00c9rOEo3f0NAQo18bKxkqx9tOEdWLCTC9EU//fWWHt0jSbLsl61RdnWeWY9yinZKLpzEmLo5HuoHM1i4mIAJnJNAtzic0xtbbQImYAImEAl0MX6zDYCS3ZwUywglt9oAcE3yqARc7aojb8VJitVWumKiTz/pUD0JMef0BQCJL31pR70S+ao+fpOBXtrSl8I1MvlooxD/CJlEmrbU8cltKx+pk19Rd9e2qh/hFO2c4sQ9OMkmtc16GU/YVD/7ym19bQImcDwCPL8uJmACJmAC1yTQxfjJyN91qhDp7bgS4txGyTkJIwk3spXQ57b5mrbaOHAPHbmOeunIyaqSVPTGIptzvb4JUFvkoQ/5KiT5uU760Rc5VP0lJx6lN9sf20ydZyZrObFJiCXLjffkW/42IrbxuQmYwHEJ8Hy7mIAJmIAJXJNAF+MnI3/XqUJE26n2So5JuvVGXm/UK3mxjsSYhDsWdMVNAfekIyfQ2gDE/pyP1rNBwOb4lluJb9wUdPrVNtuV7RHDqXayWW0jh704SVe2l+tR36q+rjMBE3g9AZ5vFxMwARMwgWsS6GL8ZOTvOlWIppJE2is5JoHVT2jow89W4tvySnasIxnXm3tkxSIdOYFW0hzbcr60nj5sAti4aBOzxwYgb3ay3fITft2b9y05TY2tNgB5LLLNvjYBEzgmAZ5vFxMwARMwgWsS6GL8ZOTvOlWIppJE2itpVaIYNwEk9HObABJdkm6Sb/qiT7Jkj3TssQEg8Ucfb9lJrqd+ApT1K0nO9bJbR+TjFzzminjHDQh99uAkXZVN8i2PRdXWdSZgAscjwPPtYgImYAImcE0CXYyfjPxdpwrRVJJIeyXnMVEc3QTojTvtVdAXZUUdOdFWYq2+Oo7Wy874kyUlvjEBl49Zv9rmetmhI8m7OMafG+l+PKpd1L8XJ+mK+nU+6pva+2gCJnAsAjzfLiZgAiZgAtck0MX4ycjfdaoQ6Wc5XeKq5Dgn7bz5V9/qmwDetmNH/qkLdVmWdOREezTRl1+5PW/9+fYhFiW+MQHv9KtttivK4xwW6MK3uf8TEG34SP+enKQr28u1fMvjU7V1nQmYwPEI8Hy7mIAJmIAJXJNAF+MnI3/XqUJU/SQmtlNynJN22uRNQHzTXyWYtMe2LEs6cqKthJ5+sag+1nGe69GVNwCVv51++ZDtynq51rcN6CSp7wr3+WgDIB0xEV/LKeuUrlzPNRsV7scxq9q5zgRM4JgEeH5dTMAETMAErkmgi/GTkb/rVCEiAaR9TEBjOyWKJNJKWuN9JdTIoA0JLd8mKKmmjv89JUlxlEWd/reV6KZ//CaBJFhv1WNC3dWjU+0lVxsCfmKDPRz1rQV2K7GXftrHzYbs5ThSYCkbkCU76It90oOvYrklp6hP44quKsmHAx8XEzCBcxLg2XYxARMwARO4JoEuxk9G/q5Th4hkNSe5ejONrPihrUrXhvYkttocaGNAP/pzrQ0H11E+5//zP//zUx3tlCzH9l09tuWEnGvJoB9JeaVfbaIezkeLNjv4GWWgCybojWUtp8pOdFTjQp0K+rErbqx0z0cTMIFzEFgSk87hka00ARMwARMQgS7GT2ajXScJzUe9Lc6JaW7n62sQYDPARsHFBEzgvASWxvnzemrLTcAETOB+BLoYv+kGAKx6a30/xPfyWD+hij91uhcBe2sC1yDQLQ7X8M5emIAJmMC9CXQxfvMNAJjZBMT/Zea90V/Pe5J+fupV/U3A9by1RyZwbQLd4nBtr+2dCZiACdyDQBfjd9kAgJTflfu34debXPy8i7+78Jv/642tPbongW5xuCcNe20CJmAC1yLQxfjdNgDXwmdvTMAETOCaBLrF4Zre2isTMAETuBeBLsZ7A3CveWBvTcAETOBfBLrF4V+NfGECJmACJnBKAl2M9wbglMNpo03ABExgGwLd4rCNdEsxARMwARN4JYEuxnsD8MpRsW4TMAETeDGBbnF4sVlWbwImYAImsAGBLsZ7A7ABXIswARMwgbMS6BaHs/pju03ABEzABP4h0MV4bwD+YeQzEzABE7gdgW5xuB0IO2wCJmACFyTQxXhvAC442HbJBEzABEYJdIvDaH+3MwETMAETOC6BLsZ7A3DcMbNlJmACJrA7gW5x2F2xFZiACZiACexOoIvx3gDsjt4KTMAETOC4BLrF4bgW2zITMAETMIFRAl2M9wZglKDbmYAJmMAFCXSLwwVdtUsmYAImcDsCXYz3BuB2U8EOm4AJmMA/BLrF4Z8WPjMBEzABEzgrgS7GewNw1hG13SZgAiawAYFucdhAtEWYgAmYgAm8mEAX470BePHAWL0JmIAJvJJAtzi80ibrNgETMAET2IZAF+O9AdiGr6WYgAmYwCkJdIvDKZ2x0SZgAiZgAv8i0MV4bwD+hckXJmACJnAvAt3icC8K9tYETMAErkmgi/HeAFxzvO2VCZiACQwR6BaHoc5uZAImYAImcGgCXYyf3QDQ0R8z8BzwHPAc8BzwHPAc8BzwHPAcON8cqHYosxuAqpPrTMAETMAErkGAxdzFBEzABEzgmgS6GD8Z+btO10Rkr0zABEzgfgQc5+835vbYBEzgPgS6GO8NwH3mgD01ARMwgZ8IdIvDTw1dYQImYAImcDoCXYz3BuB0Q2mDTcAETGA7At3isJ0GSzIBEzABE3gVgS7GewPwqhGxXhMwARM4AIFucTiAaTbBBEzABEzgQQJdjPcG4EGw7m4CJmACZybQLQ5n9sm2m4AJmIAJ/E2gi/HeAHiGmIAJmMCNCXSLw42R2HUTMAETuAyBLsZ7A3CZIbYjJmACJrCcQLc4LJfkHiZgAiZgAkcj0MV4bwCONlK2xwRMwASeSKBbHJ5oglWZgAmYgAnsRKCL8d4A7ATcYk3ABEzgDAS6xeEMtttGEzABEzCBaQJdjPcGYJqb75qACZjApQl0i8OlnbZzJmACJnATAl2M9wbgJhPAbpqACZhARaBbHKq2rjMBEzABEzgXgS7GewNwrnG0tSZgAiawKYFucdhUiYWZgAmYgAm8hEAX470BeMlwWKkJmIAJHINAtzgcwzpbYQImYAIm8AiBLsYfagPw6dOnHxjK8ZXl69evPz5//rzIDvpgOx/OXXoCf/zxxxvbL1++9I2KO/Tr5gfMf/nllx+//fZb0XO6ir6///77dCPfHSag8X32c8zY//XXX8N2uuHfBHimXEzABEzABK5JoIvxk5G/6zSH6Pv37z9I7j5+/PjfpPjDhw9vSTULNMlWTpKVwP36668vTaKxg0SiSzQ730l2sJ0k9NmJT2fTEetJDjXGSzcA9GMeMb9y0fxZugHAHj6xaP6ii3nARCcM7wAAIABJREFUmLIhZO4utTnK3fscBthbfbgXC3M0t9vCN1jCCtmveA4Y/zye0W+f/0yAsVpTmFOaRzwrV+d+N3/XzAn3MQETOB6BLsZPRv6u05R7LAIkTFoQlKwpeeIecquERHUkIq9IHqJf2DhqgxYG+n/79u1t4yNfoswlCRbcrvBWuvIDNvBdwgOOzB34blWYq2wqcmHjykdjqA2B5m5uz/VSX6IM9EhXrF97zryBL5+pOcQzyXMKAz2na3XGfozRkucn9uX8ER74gU9b8sz2Xe2asVpSeG5gzDPC/IL5n3/++d8XIDwLW86nJbbt0fZu/maGzI9H4ht9kRE/zBcKx1jPObxdTMAEtiPAc1WVuva9ZdepEkQdDy59WBi6BYDkgEQqBhQW6/zQc/3KRRw/RjcAvHWM/nKe30RTh9+jBT6R0Wi/o7Wr/GBc4bvEv2qOPOKrklSS4Fg0h6u5pz6xPee0HZ0ruS/X9K30VW1H6+DLZ66gW4vxXNsl95c8P1nuozxgybMWn8msw9f/EBiZJ2rNZpHYxrNQFZizKWANyM9W1f7odXfztxoP5seSWJ1lMCfYMCKHT14bmSvU88zmPCDL8rUJmMByAjxfValr31t2nSpBBHseYPrMBX4e8kcCSqV/6zr8eCSpi/YQABXkYn13riT06Iw6+1Xf+UGCBt9X+sfYVm//sWlqDvPzlli0oV07V/RzmVduALbWDZ+1z89WPEg48ljFcfP5PwQYq6WFJI5+fGJCx/OgZG+PebXUzi3b39Fn+DHGj8ZqzQlkxY251ghyh25TOTWGyOI5V+4R56LuoZP7V5uPU1x8zwQiAZ6BqtS17y27TpUgBccqqarax58msGGgH/r4ECziffoTKEiyCEQECs7VduQNJg8/gUKJGnKqoCFbkT3aFltjgMMXbYI4xnvysQtGSkDVLtqRGSA3Bk5kaqNBP86znigjB0ju5ZLHJtrFeZav/lN+0Ie+tJmzgfvMLY0VR66pjyX6Feurc+nPc4y2srtLHiMj5p3silykEz1T46E5HPuiX4V5Hp+LOK/UpjtKZndf9dgQx5DxFm/aYI98hEnmThs4yE/aiqGeH+l6Jg9shUFlr+zx8W8CcFpSFOs1xzgyV/loriyVuUT/K9re0WdxZixjXFL96JGYorlCnFDRfKFuzXNKH8UdyedInKnuET9dTOCOBHguqlLXvrfsOlWCFPiXBgoeVBJZBYH44CoxQaYedBZ2zqmLyZHaVrYRaBTASUo4J5GLCUnuj+8jbUkiaavEkKP6RluQNcoTW2gbWZJkyV/sR55kYgM+0keJq4Ir4wJTSpZBW+r40C62pT39qEMv5wTyOA7Rv+q88oN2qsePORvQjQ34Q6H9FJvIrLIpyshjzj18RB868LVqk+XSlrGIZWQ8aI+99M966M9zwdhQONKOOo1n1JfPactnrmC3dHPUc0JfjQ82ikn2U/NdmylkVG2fzUNc9VzOcbjz/ZF5Ij7MPZ4LxlPPIv01R6h7VWHuYcvSz5y9R/Z5zvYt7mt818pS7EIOMYXC/CFOMJdG4lmlmznH+kDM1vOODuYBH61bS9asSo/rTODsBHguqlLXvrfsOmVBcYfPg7ekKGjzAKsoYMQ6JRo5YChhyYmJZMUj/hB0sFel0s89tSVQqVRt0Zs5KeCoH8eqXbwfzys93Fc9PihoUkdRANQ1dWIT6yQDeyRjrn/FgER0rkhXHEf6qD6PZeUDbOPYYnOuizKzrspGjU/0P7Zj/imJRRdJTZwzsS3nlT2VL9V4VO2Qic/ZF/VXsp3tiNfYxGeuoCfOD9oztvSNyTP+i4na67nPdupZjeNW+Sl/JA/dVTvql/LQHCMJcJkmMDJPKglirLl2B9Z39Jnxzc94NR+6Oj3nyCG2Er+IJTzTXQzuZHX1UUeWiR50x3jWyXG9CVyRAPO/KnXte8uuUxYUgyLnS4reBBAYVCQvBp2qjvZKCLE1P/iSpyNtYlJCveTm+qm2caEjOSShjEUBZ64u3o/nsin6z/2unnsEN4JqTFSrZKqTobZRZ+UHumDDZ650urp62RATXJJRgnssU2MT7Y994vmI/cyl+IaTPthRzbHKntHxkM8wUeGZQGbceHEPLpUu9YtH2vGZK4xx1E37bty1yGo8dB3nHP21MUCOyrN5aI5FG2SLj/8mMDJP/t3jnyvNM2JP9Wz80/I6Z1f1WX4tOebYUY2yXrhkuSMvkSp5VZ1iVl6LmZPMzS11VfpdZwJHJsCzV5W69r1l1ykL0mJL+5GAkPvrmoeVhEhvIGMyJx2xTv308M/pxr6cEEhurl/SVnYgi80BffnEIhtjXXcum7KvXX2WQwJG8krgww76qXQy0EXbqFM25wSPdsieK52urr6yIeogidRikserkxn76xz7+YwU5IoDfdCfEx3qsz1R9tR4yGf0qOCnbKyOI4uZ+klmd8TuqJt28jf3EWP5quc0t+N6iskzeMhW7HCZJvAIIz2Pj8iYtu54d8/iMy8QsPXRwtjGdWGpPPrzIV4QOxU3qMuxZ6lstZcO1r1YFF+JqS4mcFcCPB9VqWvfW3adSkHvD/maB42gwNtEkkoeWCVAMehoQY91skMJy1wwwR8lL+orubl+SVtkENSQwTcZskc6OFZ18X48l03Z165efUms0IMtMNQbWvqpdDLQhc9Rp944xzFlrGiXA63kx2Onq6uvbECevjJGp96O42csnczYRufYz2dJgYE2VNl3ZGV7kD0yHvIZ+1VUlzcauj9yHPURu6NuZFNX8RFj+Tqlo2LyTB6ytfJjhN+d2qxlxLOoZwIZ+RurZzOMY449o58ldh7N5852xe61YxvlIiOuC/He3HkcE8XNaFv8Nn1OVnc/6kC2isZK8Ur1PprA3Qh0cWAyC+o6VfD05lsPedWmqiPJ4S0FHyU8eqBj0KnqJE8JCwnGVMGfHAwkN9ePttVmJSbJsifaUtXF+/FcNkX/ud/Vc0/BLvJXIkk/lU6G2kadGhs2FFrckc+iP8d6yt4lNkif9CN3amyi/fI5H+nPpypT/WV37lvZMzoe4h7HSAtk/FlcZetUnXycGyfmZdSNzG6uyn/NMemo7MhMns1DtuKLyzQBxmppITYQB+IGICZfS+Wdof1ZfCamEDv0DDzKlvkxFRen5Cu+IUPzA45c6zMXo6bkc09rMPIUyxRvWLvQ52ICdybAs1GVuva9ZdepEqRgQ5+RB1oBhWSCPjHBkyy1QV9VJzvYPPCgzxX05IRAcnP9SFv8pF1+i1ElUFVdZ69siv7TtqvnHv6zGMei4Es/lU6G2madjAu2a6HH1zhWklsdO11dfbZBgV0Lh3RMjU22X33ikfmCjGqe0n8q8YYzfWOp7BkdD/kcxwi+yMzzSjrjZlN1+Sgfp3yhD+OaF8huriILu6R/Skdm8mwemmMdw8zrzteM1ZLCc8PYM0/EWePNXOKeYgRzhTnGt5Hc09zqnlN9a8lcQ4bmzdw8XmL/mrZn9Fljs8bf2Iex7cYrtqvONd7I0JygndZ96hnzXJbMG8VQZOEz6wVzjk/UiQ7NQe4xptLDPKvWg2yXr03gjAR4NqpS17637DpVgqjTQ80CkJOK2IcHXg+bAkR8UJVoxKCjYJaDBXKwM7aNuuI57dAXi+Tm+pG26puTDCVGUY/8VJ3813U8Sq58giUf1WcG9MVeglostKOefiqSIdmq55q2sZ4xwZe1JevKfkRd6Mg26DpuAJAxNTZZZmV7xUXt6N/N3053tkdzcmQ85KPGSPOCBQm5PFPoVWHBGvFRcvPclByOcM3znnrN1aiXemzBJ9VLR+ZVccKXZ/LAN3TGuRN99/k/BOA0UhSXaa8xZ6wZV+r00ZxiLvOs0Y865o/q1CbqZW7Tlj605Yh8dI3M+Shrq/Mz+6z4+ygLxnUNf8UBzYtoR+QaYwptNEdG543ikPRwZM4olka9zCnquc858UF2KgbH9j43gSsQ4JmoSl373rLrVAlSHYGbfiQwBPT4EOqBjsm+Hl4eSB5ArpWAcOQBRYaCGcECuRQ9yPSdK+jELvpHm5QoYC+BgDLalvZa/JCDfyRcSt6wk3qKuOAf9fLh7Wb6D/aJIX7TlyJWyI8+cE/MaKs+cEEOgY6+FPlLe/lLPXbTNiaMsln9kUF/5McxfBNc/KfzY9SGOOawhZnshDt1fCiSic/Rr8Ks/44vfXKJjJEtWfiLbPRm3zXetNcCMzoe+CTu9Nc4oUNziyPy0DPin3ySDTCLNsOVuk5W7Kd5Jr7ijQ7YIAP7OXKPj+YNduMP7SRzbn5uxYNxwC6Nn5j4+DMBOI0UPRuMZeTKmGmuMr7xHnLpx33Vcx3jTNaNfD4qnFfPqu7veTyCz4qDjFP3ibzEQ/10vfaITjgsKYy14qJsZm6oKEboHm1zGZ03xCjpIg4xH+dK9onrGCPn+vu+CZyJAPO7KnXte8uuUyUo1hF4eMD1UCKHB5MHWouA2nNN8KIN7UkgqGPB4BpZFAUzJS60p0214Ei2jgri9NGHOulVHcccmKjr2iK/WvykjyRE/ipIYTP354pkYCOBqbJVbJBFG/FWHzHjGv2djOi/zpHJWOi6OsJqroz6keVjK0WJXOTGPa6VFFR+zdlFnyoJwV7GTIkserCNI/4qIY7yact9zV/ujYyHZMj+PJfjuEu/5pP6zh2Zn5Ivxt2zKFlqD3v5rwRfbXTEnvjMyAf6wVK8ns2DscAWl3kCzIs9C/OJuaTC9VSShj08Uypcax6p7ujHI/is+H90Vp19Sxl2cnK9uCiWck28cDGBqxLoYvxk5O86vQKSHlqSCpfnEFByB3sWZNjrQ3JFkkdid8aC3WdMLJ7BmoX3SM/+Up+Zr8xNLfBL+9+t/d5jzVgwJhTGZOq503OpMSDunDE5O4LPWjPF8mzHJQyX+MaLI2KcCptTvywQDR+vSKCL8YfaAPCWkYe+etujYHbUDQALFZDjm65XTCTYwRCWjxQWamRMJVH4etYNAGx4C1l9C/AItyv0PfsGAPuVcF5hPPb2oVscttCrhF5xRHGca8VK9OuNP8lZjF3Ee8YTOfrGbwu79pQx4nPUv5fPWpOq9TTqP+L5UoZLfCDma+7Rj/nFPGM9cNxYQtJtz0Kgi/Gn2QAomHkDMD3lttoAsCgxabRwZ63UX+GtCUH/Cn7k8XnkmgSsCxiPyH1GXxb2qZ+XPMOGs+nYc6xzchvjk2IL+jVmOTlT3D/TMzric5wjW/tM8qxNPGx5IaRNVNR75POlDJf4Ag9tOOlHzIhzcIkstzWBMxDoYvyhNgBTIAmSOMHRZX8CWngJlkqqeDtCPdcsKFrA97dmXw34pQRkX03Hl643bzxrnJ+pkDSczeYj8O0Wh2fYpg3BVWLJM5hZhwmYgAksIdDF+FNsADA+f5Y477brCJAYs+FiEyD+vB0m0XK5HgG+XdM463jUb9yuR/91HjHWryq8TLjjpu2VzF811tZrAibwGgJdvJmM/F2n17hgrSZgAiZgAlsTcJzfmui0PH3rMd3Kd03ABExgGwJdjPcGYBu+lmICJmACpyTQLQ6ndOYERvunaicYJJtoAhci0MV4bwAuNMh2xQRMwASWEugWh6Vy3N4ETMAETOB4BLoY7w3A8cbKFpmACZjA0wh0i8PTDLAiEzABEzCB3Qh0Md4bgN2QW7AJmIAJHJ9Atzgc33JbaAImYAImMEegi/HeAMyR830TMAETuDCBbnG4sMt2zQRMwARuQ6CL8d4A3GYK2FETMAET+JlAtzj83NI1JmACJmACZyPQxXhvAM42krbXBEzABDYk0C0OG6qwKBMwARMwgRcR6GK8NwAvGhCrNQETMIEjEOgWhyPYZhtMwARMwAQeI9DFeG8AHuPq3iZgAiZwagLd4nBqp2y8CZiACZjAG4EuxnsD4AliAiZgAjcm0C0ON0Zi103ABEzgMgS6GO8NwGWG2I6YgAmYwHIC3eKwXJJ7mIAJmIAJHI1AF+O9ATjaSNkeEzABE3gigW5xeKIJVmUCJmACJrATgS7GewOwE3CLNQETMIEzEOgWhzPYbhtNwARMwASmCXQx3huAaW6+awImYAKXJtAtDpd22s6ZgAmYwE0IdDHeG4CbTAC7aQImYAIVgW5xqNq6zgRMwARM4FwEuhjvDcC5xtHWmoAJmMCmBLrFYVMlFmYCJmACJvASAl2Mn90A0NEfM/Ac8BzwHPAc8BzwHPAc8BzwHDjfHKh2HrMbgKqT60zABEzABK5BgMXcxQRMwARM4JoEuhg/Gfm7TtdEZK9MwARM4H4EHOfvN+b22ARM4D4EuhjvDcB95oA9NQETMIGfCHSLw08NXWECJmACJnA6Al2M9wbgdENpg03ABExgOwLd4rCdBksyARMwARN4FYEuxnsD8KoRsV4TMAETOACBbnE4gGk2wQRMwARM4EECXYz3BuBBsO5uAiZgAmcm0C0OZ/bJtpuACZiACfxNoIvx3gB4hpiACZjAjQl0i8ONkdh1EzABE7gMgS7GewNwmSG2IyZgAiawnEC3OCyX5B4mYAImYAJHI9DFeG8AjjZStscETMAEnkigWxyeaIJVmYAJmIAJ7ESgi/HeAOwE3GJNwARM4AwEusXhDLbbRhMwARMwgWkCXYz3BmCam++agAmYwKUJdIvDpZ22cyZgAiZwEwJdjPcG4CYTwG6agAmYQEWgWxyqtq4zARMwARM4F4EuxnsDcK5xtLUmYAImsCmBbnHYVImFmYAJmIAJvIRAF+O9AXjJcFipCZiACRyDQLc4HMM6W2ECJmACJvAIgS7GewPwANWvX7/+ACwfzs9Uzmo7dn/+/PnHp0+fhnG/ytfv37//+P333398+PBhaH5g5y+//PLjt99+K33DZ+baEt9LQU+sXMrgiaZdUtXcHKqc7haHqq3rTMAETMAEzkWgi/GbbAD++OOPt6QFJUsSlJiYqe+ZsJKI/frrr29J25mSMhif0XbmC8nxkjn2Sl+/fPny4+PHj8MbxKnkTfeYb/jP9RnKUgZn8OnINmqedJvIynbmk8t+BP7888+3OMDRZXsCvGAhzvCywcUETOBnAl2Mn4z8Xaefxf9do+SEfn/99VfX7L/1sT1vSl9VWDSXJlS0V9L/7du3twC/VMYr/T2r7TBjfsn+OYaj40S7PcaPhQl7H5WNv5KBzFH/5/g84/5WDJ5h6x11LI3zMNKY0rf6sPGlzZ0LCSlrHCz07EYePMOZHd9uHqXM2Vfd52Xg2pJZcC15rLF8O5rbUA9nNrzc53quZBnxGhmM2YicOT2+bwJHIcAcr0pd+96y61QJoi4uCnOBjA0CO3c9fJ3MZ9QTyKoAPaWbgBPfOCgITfU5yr0z2w5D5gxjNlJGfV0zB0b065lYOr+ibPpqIVQ914/IlJxnHLdg8Aw776pjaZwXJ327RX/FeyW9iuuqV587HeHDJ64T0X/qxYkjMahrG/s963zOPuKP7CdxzjFqqZ18QyJ5HPMGUnFEbfI3Kugf2QRkPXpZmf3xJmDpCLr9UQnwzFSlrn1v2XWqBFHHA0rA1wM6FcxoFx/oTube9bL3LMnU3jzOIJ/5NboBGPFnzzmgOX7n+bUlAzjy4mB0cWaeoN+lJ7A0zksSbBXrY/IXEynuT60DknW1o+a8ksvOP/HjmBPars8z66fsk48jSfeIzXne5D7Sh01srKrC23viw9Sci3poG0uc07w8cjGBKxDgmalKXfvesutUCaKOB5SPEirOq8LDqYdUASa34yGNb5g4p27LEh922YHN2Bf/eFNvFuLbHN1XPwJPDPZZBgmL9C1JYJb6CyNsiXblZGmp7SxM2IxMfMjyltqY28ONYMtCQsn6cjCXHbRlvOhHXRWw53zVmIgXx27eZrtHrpGFTMZlbg4wz7Cn0g8TPQ/4m7/ZiH2znj0SiyX6RhjAJ46B2Kqv7jGeeYwiG+4x/xUrNDfWPI/IEHPpj0fZuMURv2QrOqMPyMd+PSPYUM0B2sVxGbULeWuK7KV/jAl5LGNcXKPnbH0YK9iwDk4VuMT5lOPcVN9n3JuyT2OMn3HsH7GLuSsexMFcYqyuYj3tZXMVQyVPMQRdPGexRB1z4xf7+dwEjkyAuV6Vuva9ZdepEkQdDx2fGByqoEYbPVx64KNMAgr1asM1gYZPJS/2XXqOLejCZhUChBZ+7hMklABjiwIIAYuiwBWDVpTBOb6gQ31jW+l99IgdMJIv4kidFmHp72ynHT7TBy4EWmylTky2HAfGM+rDLq7xAWbYwHUs1GETttGetrJNvtN+zlfJRH6eA7r36FGy5+YASSzzrPIXH/GP8aTgN+20eKFD/sOMc+okb2vfluobZaD5ir2xwIY6PswXnkV4UpAd5zzjr7lLP3iovRjNjQVykYM+5OtacvXsvN3Y4D/YiY16RpGP7jiXGUv0aw5Uz8bUHJoyE11LixIt+mJXLHG88r3Y7qrnijsaq85PjTMMmZtHK9E+5qcKfjGucT7q3iNHzWl46LmL8qjXhznWFVhOzbuoR3FEshQj0JPvqY2PJnA2AsznqtS17y27TpUg6nho9eCSoNG/WizjYkebrAcZ1MUFUElPrOvsWFJf6ZIv2KBEncRDAV2+RT0KHLFOsrE9lqp/vL/mHPsIeuIvGeiKgbrSXdmuIMkxFrXNemKbNeeyKwf2OAaSS130ifqcsFEnmerHUfbHOo3T1nMLHZKdOVa2VT5oXLNt8kNzUos19fRR0XODvi3LEn1LGMivbCtjrg8s9TxSl2OMbOMesUbsZMfI84gdOYlQ/zyW2dal1yT32SauZTfy8CWOIf7nOtpVc2jOHuQsLZFxtAs5mtvIhdndSjeHMwc9m3Daek5lXWuuK/v2Sv6xT9zgEec+9zSvucdHm+XKLz2nWYbaEhMkJ7aJOnj2YxxVXx9N4IwEmO9VqWvfW3adKkHU8eAp4GuBiG8OaEO93lxyrQcxyqQND2B8yOce6th/yXknt6tHNsGaYBWLFr1Y18lQ2xh8Yr8153rrFJlVch61XW/3sv+VriV1YpL7VPODOtrHouAd59ajvkb5a8/n5oASeOTLB/qoMK45EeUefsJBbau+tFOiSNstF7Ql+pYwWDIPGN/OLy3y8XmYswOfVKbmWJ576rP2iB+McZwLnEd78CdvEqZs1LwYsQk5S0tMDqULmzUvkYlfRy2aZ9g5+pGfcz4hb2SOxISXNe9oJdpHHGI+Mk/xL87VLeyOcWpuPHJOkfVrjarGK+uhL3XKOdCdn8Us39cmcDYCzOuq1LXvLbtOlSDqeODiQ6dFOAY3AmNc2PSwdzJZwLVA0jb27fosqcfeSm5Xn2VjT1z04v1OhhafLX2RzKh/7nyN7cicG7M5vdX9zv5KF3W0jwVfqnq1Weur+q89LpkD8oE+KkpyxSEflWRVfSVDbGmzVVmibwkD2ZrtlN+xXslIrNO5uMWv8ZfYgb6caMjnuMmUvkeOJFPyBbvjpqWSSzxVctY9B3EOVTJiHb4uLdKvcdGRenzYcq4tte2V7ZfMETHjuHVCvQWDaF8+33p8xQ09eU7ji+IC9+eeP8lSbIwstDnI/vD8oYN4seWLkqjb5ybwKgLM96rUte8tu06VIOpYdOLCw8OEDD3QPJgsELHoQYx1nLMI0o9FmAVPb5y2DjxdUtDVy07swDZsJKhwzLw6GWq7pS+SKfumjo/YjtxuzKZ0zt3r7K90UUf7WPCpq187TlH+2vMlc0A+0EcFP/Mzo3vxWPXVfbGlzVZlib4lDGRrtrObB9RXRTojS9VlDtIZ67Wpj8m4kof4QqPSvaZO8U5+Rrslj3hKokJiQ8LYzXfqq/6Sk48dw9wuXsvONX2jnKudTz0X0Ve1E8d4rzvX/FWfkSNze02J9jHnSIrjpq9KrtfoUZ/oWzV3tUHG5+q+5HCU7ZXvc3qiHJ+bwFUI8NxUpa59b9l1qgRRx8MVH06Chh5cHkqCRl48FcSiTL0Ri0FGDy5ytiyd3K4e3fiA3dEXJRHRtk6G2m7py6jMR23HP3zPb0ej32vOZX/uW80P6mgfSxX0t/A16lhzvmQOyAf6qCgRnXsrVfWVDLGNyazurT0u0beEgWzNdlXzQLGlensqnWu/AVAMwh7YKwEa2Yxl25dcw1WJVvzJD7EQf6OvU89BnENz+pGzpGjs6bc3jyV2HaGt2Mzx1/ysxvAIflT2KZ5iM58t44mee+Sy0Y4FPdLJEcZTRWOAzFym9OS2vjaBqxDgualKXfvesutUCaKOoJEDn97c8+BVSaMe7CiTdix2sSggzT38sc/IeSe3q1cwyl9DKrBEnZ0Mtd3SF+mKmybZQvJC8N7CdmQxZpUe6VtzFJPct5of1NE+lhz0t/A1yl97rnHJYy1/Y718oI+KvkWLiazucWRcKVVftSNJq5493V9zXKJvCQNxyTZV80Cbo4qN4g7zQGWJHfRBrnQQj5jzzP+9CzoYL3ymKPHKfk49B3EOzdkrPXPtdF8c6bd1HJCOvY+aZ/gw+hlhOvVcRJ80r9A9Ijf2fcZ5Z5823VvbHeXGZxZfxVTjNOe/2uc1gn6SwTHrmZN7lPvYzXN31mfvKBzvZAfzvSp17XvLrlMliDoW3RzMmKx66PI9+uhelEld3gBoQefh3rJgE/okV0FB9flthIILATIWvbWLdZIh2bqnxSfX6/6aY+SspBA5JBPYxv01tmf/lYxsaTt2ikn2vZsfObjLN9Xres04aQ5kW9ZcL5kDspk+KnFccwLIAqBxUF+ek1jUP8qM99eeL9G3hIHmQXzTrU0ncyEW2VBtbqjTXFCfJXYwz5+1wKInbyxkK7brPI6/mGQfxYQ+oyVznesXk8No01y/O9wX/zwu2Xdt8GCfY2xu+4rrzj6tw9hdPXdrbFWMQmY1FzX/uTfyjZPGID+/xBTpyPnFGruf3YdnHhaKkUue8WdyFb4IAAAR2UlEQVTban3HIlA9V1j47xU12dx1Ss3eLpmcBAQWh7yY8SDywOV6Fg89kHEh0QSnHw8zRyXY1Sajsme0TgktdhOIeaiwU4tc9od7eluBzfShjQIm8uSLZMSkjP5qq3ajts61y4FSHLGJssR2yYI7Y0DhiO/Rn7cbD/4nMomLYQzYSghVhx0xUYclcwm2yFviazUHHnTpv92XzAH5AHPsV5F98o9xxf+4wGnRo17jDR9k8dm6LNG3hIHmnXxDj+rwH1/kHz7Rjnp0iBnzM88P2i6xg3mEDHTrg17sifNuC66MJ35pjiMf/XrOImueD+yQL9hInZ6bbg5N2Qm/JQWd9OGDbSOFscEf+nDkWj5083NNnxFb9m6Dj4xpVxhf8eOoedu1f3b9lH2Kv7I/Pouykzmh5wdZtOGaPpqnasuR+5JXcdM8oY2eidg/n6ODtjy3sejZ4F6lJ7aN5/RjzmueYgPXfPCvKksZVDJyHbrED/uzf7m9r01ABJjzValr31t2nbIgJiNt4ydOTh4GLejqG9vGc+4TZBQwkM01MmjHdffQSfbSo+zHRoJxtEfnUSYBS4ug+uAvbbW4qV88yodYh+4tC8FK7DgqYEjHiO20lT/4F+XFcZXMR44dE+mPrKpz2mn84n1sGvWVtpKh8XzEJ/WN9ui88nfKB8liHKfGQXJZLFmo0Mcc3dIf2cJxVJ/8jkf1jXWaVzx/GgvsZz5TaIsveT5zL855+ZxjRNSl88oOPY88x2pXHZlbWxXGTD6jCx/EQzpkT7xHn8goypDN6j91pO1owS7J5qjxmetPO3jTn/nJWCqhQQ73clnTJ8t4xbWev053Zni0DcCcfXH8lRTLV3yJayDjrDlCWz1fas8xzttKHnNcOpE9V/SsxDnFXFP8RBbnI9yRoXlIP2RTR1+uYZXLGgZZxtw1zCrdc/18/54EmKtVqWvfW3adKkGuuxYBLQIxiF7Lw2t5wzh1C9Ienj5b3x4+TMnEP54BjiT7nOtDwk5ScpUyGuc15rSPH+pHCwkh7JR8wXZO/5o+o/bs0U6xs9qsyt/Ij/l0lFLZF5P2ufvyg4QbH2GhQtIdr6lnbCMLzmOSH5N27jF35uYbm4j8fMZNhvRFv2Rjd5Tf0i3/dF31U5voc2ZAf9nTHSsd3gBUxF3XEWBuVaWufW/ZdaoE3bGOAA+jGLDOwmHOdi1iVfA5i4+yc85XtTv6kQWFhS2/JcNuLSRxsdnTn2fr29OXLJtvHOeSg7n7WeaRr58Z50mAYrwkAZxjuabPK3kr8cO3uxYlzNroicne64l+orR1HGQsY9yVf1PjqzZ7MPAGYIq872UCXYz3BiCTWnB95sRyznYWaSbN3gF7Ae7VTed8XS34yR2nNgDyceuFr3Px2fo6O/ao18+oOtkkGc/i3NmwZX23OGypA1lVEsiGdorlmj5b271GHj7Blblyx5I3dvyM5hnzjMSYOaWkeyv2+c29frY3JX9PBt4ATJH3vUyge/a8AcikfP0WPAl4TBr9ftNYjk2ABYnxetbPCZ6t75n0tfnVos9mh40wb/RY1PlcqXSLw9Y+6o2o5MbkXr+z5h72wJwy2kcyj3TkjTGfrZPRI/nY2aJnR/eVDDPm8Rsg3d/iqE3G1puuOE9lp/wjLmiNJCmPvqmN+mzFAHuQjb47zi3x9HGcQBfjvQEYZ3iLlgQ0Jkv8EGhcjksgjpXO97RWOuJxT32vkE3iybyPPrLpUWL6Cpv20omPzygkQPFnFOjkmje2SqKowx74U0b7vDU+2H9IzpgzJGtX+CZ1FK8S5viscM648kxxf8sCZ+YJ82gPztqExmRbLwk4qh7fsIOyF4MYj3Tu9XnL2XRNWcyVqtS17y27TpUg15mACZiACZyPwJHiPInTHj/heOWokECy0YkJ8SvtuZpuvWlXIv4q/+620XsVZ+tdTqCL8d4ALGfpHiZgAiZwGQLd4vAKB3mjuvVPOF7hh3XeiwCbPH1rdS/P7e0ZCHQx3huAM4yebTQBEzCBnQh0i8NO6izWBEzABEzgiQS6GO8NwBMHwapMwARM4GgEusXhaHbaHhMwARMwgeUEuhjvDcBylu5hAiZgApch0C0Ol3HQjpiACZjAjQl0Md4bgBtPCrtuAiZgAt3iYDImYAImYALnJ9DFeG8Azj+29sAETMAEVhPoFofVAt3RBEzABEzgMAS6GO8NwGGGyIaYgAmYwPMJdIvD8y2xRhMwARMwga0JdDHeG4CtSVueCZiACZyIQLc4nMgFm2oCJmACJtAQ6GL8bhuA+E9kNzadvlr/9Lj/gZfHhpJ//If///de/5JjZx3jt8e/HNnpc70JHJFAtzgc0VbbZAImYAImsIxAF+N32QDM/aMY3Oefr8YoPiR+/JPpJGP8IzBfvnxZ5t2LWl9hAxDHQePBMf/z4oxNvK/zR9GT/DPe/CuKyHx2Qs5cZPPhYgJ3JcBz52ICJmACJnBNAl2Mn4z8XacpRCRUJPNVIbkn0SPhJ+kj+aPwT3jTT0ngWTYAlY9nrIO/2HOc+ifVGZs9EnXmzCNyH5kz6H6k/xnH3DabgAisifPq66MJmIAJmMCxCXQxftMNAAk+ipTYRyTcI/Hnw3lVSDw/fvz409vnqq3rtiWgxH4uEeYNPWO0dZH+Nd8A0Cd/Y7HEPuYd83KN7iV63NYEjkigWxyOaKttMgETMAETWEagi/GbbgBIwrq3/ySNGMGb/qnC5uGRZG5Ktu/1BJSAj2wA9hgf6V+ahGtj+ahNnz9/fvsWpCfkOyZwTQLd4nBNb+2VCZiACdyLQBfjN9sAkLihhN/F58IfyXKPt6wjJcvgDS0JGv2Rw2YibiSkm3v6xERSdRxVz1GbEuo51z3ZiA4SS5JTEk39fIlzbMJO6nK/Odm5L/LQgx3I4zoXNkaZQfXHx9iKDMnKLLNcXSsB5zhV8C0n25lT9KWyMY8n7aufAOGz6it/kK05wX19ov2jPPCB/pW9UZ7PTeBqBJj3LiZgAiZgAtck0MX4ycjfdaoQkZzSPifDtFUSlxPHSk6uIwkkyUM+iaOSR3RRp4JeJYNVEhc3DSTYsT/X9OWDfAoyZDd/JIrtSmxJqvloAxF9HpEd+3KOH8jgHLsyJ9nHfQo2KsmPviIHm8Up2vvWceI/azcA9BMH9HNOndjlOYFttOHD2HJNP9rFtvKRdvKH89hG7lCXmXFvCQ/4I4c+LiZwJwLMexcTMAETMIFrEuhi/GTk7zpViJSckazlomSVxHBpIbGjfy6SGZNvJZIxKaYfNsUEUclu7EuSj7+xTklh3BjE+5Wcqq6SrXb5/0CjpD36S120n3vqr29CsCvaKb/xifq5Inkcpwp6si16e65kXf3ld2zPGGU7aZ/HU+yjPYwr/sQ6+lIXdVC3hscoK/nnowlcgQDz3sUETMAETOCaBLoYPxn5u04VItp27XUvJ26VnFjHG2L65iSZNko6edOsovY5GeTNuRJl9SUJpb0KtqGLxFGlSkJ1j2PVBz0jsqu+yMT2aIe+UYj2Rxt0DofIQvXYEuWpPh9lD8epApPMt+PExgvdfPQWn/PqLbs2b+Kvbz3iZq7Tg8xs0xoesnXKf98zgasRYN67mIAJmIAJXJNAF+MnI3/XqUI0lTzp3lxymeXqJzFVPyXG2UYl0DG55810V2int9LIUgJK+y7hlCwlzbGP7nGckt31lf2S2bWLejjXG3Sxzse5DYT0cJwq2JWT7SlO0R9swK5Kh/TL72gDmwfuy8fcH5nZJrXNHHRd8dC9yoZoj89N4EoEmPcuJmACJmAC1yTQxfjJyN91qhApearuKQms3vxW7VWnpDAnfLpf6VSSKV0kc9U3CCTn2EWiSB/9XCUmf5yjo9Mv+2IfbBuR3fUVK8ns2omBjthZ+an7c0fp4ThVsCsn21Ocoj9TOnRPfmMDiT8+8S0G9zW22UZ8zzat4UEfPtGGKRa+ZwJXIMCcdzEBEzABE7gmgS7GT0b+rlOFiLZde73JJ9leUpQUVj9tQQ76KpkkjHxIINkIkJDHop+XaJPAPemKyd9UYtv1GZVd6UNmTJijjpz0ci8W/J36piO2rc5lT2RStYNJTranOMkfxkA6Kl90T/wZO/yJf1fQ6WEeZJvW8JiawxUL15nAFQh0cfsKvtkHEzABE7g7gS7Gb7YBIFFDSU62AU8yR0LG/eqnF3lwlCDqZz70zQWZyKsSViWTHHNiiBw2DVmm+igBpV2XcMqWqs+o7KovcpUwyw7ZUG10aK//MxCbJHjALBfGRPLyPV3rD2znNhHoy980yEZ8ygV5sn1KR+bBuGZ/Oj20y+O8hgdy8rzI/vjaBK5GgHnvYgImYAImcE0CXYyfjPxdpwpR9ROa2E4/3yDBqpJUtaVd/MNPJcR54yB51YaDOmznk/uhh/qc6FX2K+HMCa9szUnrEtlVX/rL35iwk0Bjc97scC3/xAO/Yl82SsjkOFXiJq0bH9pgS5SPzI6TxkEbg6hDdsumzF8coi3aQEie+sKG9iroXcoDPcjpvm2SbB9N4GoEmPcuJmACJmAC1yTQxfjJyN91qhApgdIb6apNTMpI4mJyxznJV04MqSepjYktCSfXU7qQRZuqKLkkgUYWR32DQSKqBJMjDEh6q42G3jLHxHxUtvrGzYUSbHRG35RgyxZ04FvUi59c04YP/siWzLRiQh0JNnL50Ad7KEqoVZ/7y754nz7YwCcWzQFshC99OYo/XLBD7KlXG/nDET4aE22Q6AdP1S/hoc0FRxcTuBMBnkUXEzABEzCBaxLoYvxk5O86dYhIzEjgpgrJGUmaEj50kMCRrClxy/21OaAtH/rOJWpKBrMsrpGnpBGbuVYSyzV2cJQ+HWmjojodaT8qW33iUfpjnWQil/tiRqJNglwV6rmPnBFOWQa+MxbigxzkMa7R/9hPttMm2ogcbSJie8ZG8jlyjd34q3Gln8ZAbajDFq6jLfRRvfpL3ygP+ax+PprAXQjwjLuYgAmYgAlck0AX4ycjf9epQ0QiTZ8uke/6uf7cBLQB6DYlR/dOG4u4qTi6zbbPBLYisDTOb6XXckzABEzABPYn0MX4TTcAuMFPPOa+BdjfXWt4JoGzbwDYuJx18/LMcbauaxLoFodremuvTMAETOBeBLoYv/kGAKxsAvhJhcs9CPCzGybYGZNo5mr8O4x7jJi9NIF/CHSLwz8tfGYCJmACJnBWAl2M32UDACTeCpNcuVyfAN/4MMHO9s0PG5f8NwPXHy17aAL/JtAtDv9u5SsTMAETMIEzEuhi/G4bgDNCss3LCTCx8me5FPcwARN4FYFucXiVPdZrAiZgAiawHYEuxnsDsB1jSzIBEzCB0xHoFofTOWKDTcAETMAEfiLQxXhvAH5C5QoTMAETuA+BbnG4DwF7agImYALXJdDFeG8Arjvm9swETMAEZgl0i8NsRzcwARMwARM4PIEuxnsDcPihs4EmYAImsB+BbnHYT6Mlm4AJmIAJPItAF+O9AXjWCFiPCZiACRyQQLc4HNBUm2QCJmACJrCQQBfjvQFYCNLNTcAETOBKBLrF4Uo+2hcTMAETuCuBLsZ7A3DXGWG/TcAETODHj7f/ja9BmIAJmIAJXJOANwDXHFd7ZQImYAIPEegWh4eEurMJmIAJmMAhCHQx3t8AHGJ4bIQJmIAJvIZAtzi8xhprNQETMAET2JJAF+O9AdiSsmWZgAmYwMkIdIvDydywuSZgAiZgAgWBLsZ7A1DAcpUJmIAJ3IVAtzjcxX/7aQImYAJXJtDFeG8Arjzq9s0ETMAEZgh0i8NMN982ARMwARM4AYEuxnsDcILBs4kmYAImsBeBbnHYS5/lmoAJmIAJPI9AF+O9AXjeGFiTCZiACRyOQLc4HM5QG2QCJmACJrCYQBfjZzcAdPTHDDwHPAc8BzwHPAc8BzwHPAc8B843B6pdw+QGoOrgOhMwARMwARMwARMwARMwgfMS8AbgvGNny03ABEzABEzABEzABExgMQFvABYjcwcTMAETMAETMAETMAETOC8BbwDOO3a23ARMwARMwARMwARMwAQWE/AGYDEydzABEzABEzABEzABEzCB8xL4f1gyZUzzvNyzAAAAAElFTkSuQmCC;" vertex="1" parent="1">
                    <mxGeometry x="2140" y="429.34" width="328.76" height="140.83" as="geometry"/>
                </mxCell>
                <mxCell id="120" value="" style="shape=image;verticalLabelPosition=bottom;labelBackgroundColor=default;verticalAlign=top;aspect=fixed;imageAspect=0;image=data:image/png,iVBORw0KGgoAAAANSUhEUgAAAmwAAAEBCAYAAADFF/k8AAAAAXNSR0IArs4c6QAAAARnQU1BAACxjwv8YQUAAAAJcEhZcwAADsMAAA7DAcdvqGQAAEDISURBVHhe7Z3rrxVFuv+b33tB0FccYyYiyRCZaBxE4wgJJLLVMUaCDl4SY6LRs9FMchxGEcaYiYjg6LwwXsBAYsw4yBGDOREvkGDidoiiEowaTyIYM4f4Ci/AH7B/61O7n82zi1q9et326rXW95PU6urq6uq6PvV0VXWtGeM1MiGEEEIIUVn+X34UQgghhBAVRQqbEEIIIUTFkcImhBBCCFFxJtewzZgxIzgIIYQQQojpp+izgikKW5FHIYSoMpJhQoh+ppEM05SoEEIIIUTFkcImhBBCCFFxpLAJIYQQQlQcKWxCCCGEEBVHCpsQQgghRMWRwiaEEEIIUXGksAkhhBBCVBwpbEIIIYQQFUcKmxBCCCFExZHCJoQQQghRcaSwCSGEEEJUHClsQgghhBAVRwqbEEIIIUTFkcLWh/z444/ZnDlzwj/7P/3007lrbyEexId4Eb+qQZy2bduWXXzxxdlHH32Uu5bH0vbFF1/kLkKIqlB1+fPdd99lGzZsCPFrBckfAVLYegAKAw2wrLnuuuvyOyfYsWNHNm/evGzRokXZ5s2bey6geD7xGB0dzX7++ecQv6pBnLZv354dO3YsdymPKXgvvvhidumllwa7EKLzvP7660HemexDSbnttttCG0RZSb2gVl3+oKzt3r07e+mll0L8mkXyRxhS2HrE7Nmzs7GxsWx8fDwY7DAyMjLpduLEiSCEPAinl19+OXvvvfeCWbFiRc8FFM9ft25dECh79+4N8eu1EomQM0EHDz/8cHbrrbfmZ83x7rvvhnKg4xBCdB6UMUa/16xZky1fvjy8WCEDv/322+zmm2/O7r777uyyyy7LfU+livLHK5YXXXRRkD+LFy/OXZpD8kcYUth6BMLlmmuuyc/SnHfeecEfDd7gTe3NN98M1zC8kZ48ebJnAorn8nwEEtxwww0hfsSzl2zcuDG3tQ9vxZSDEKLzoKwtW7Ys++mnn7IPPvggyBKTecg4FJVPPvkkzCgcOHAguBtVlD/EiRG/TiH5IwwpbD2imbctPwx+//33nzUs/uSTTwbB1gt4Ls/3ED/i2St4S3///ffzs/ZJCUtG7xgR0JoSIdrj3nvvnVRK6k35IWd27dqVn52havIHZY0p3VamPush+SMMKWw9gJE1P2rWiFj4MNxOY2WNB0cW03tsHQj+ECAoMLYehGtlwe8VV1wxeS/hEJ7Hwuc6/vAfPyNecPvOO+9Mxp94xmECAsmenTL1IDzWisCSJUuC39S6FwSdrZXxgo/npp5DGN7966+/DtM2XjEsk19CiDMgCz777LOwRKTRlB8yc+XKlfnZBN2SP/aBkrV3b7gnBc+58sorQ3rA/PulGUa9OEj+iELGc5xV9ICxsbFQBiMjI7lLmtHR0fHVq1ePnzhxIhj8c9/WrVvD9b1794bruK1fvz74xw1TE4rBcF8juG/RokXjNaEQzgmfMHEzuEZ4+LX4YMcfR8Bty5YtwR/uO3fuDOek1/xy7rG8MHfO/f2N4D78cp/H3EkLz+a6pcvn+5EjR4IbxkMemjvpmjdv3mS+E16j/BLdJS4vUX1MVjWSeym6JX9i+WFtGWPtuwiTyTHm3igOkj/DS1zmMZNXG3kU3YXGSxkUCS78IHhorAZ27sPd8GF5v7Egqofd7/0RDs9ASBiE788N3OL7TVghdDwWTw9CxqcHLO4miIuol856YVjcPMQhdgPczBAO+VI2v0R3SZWXqDYmK7zCUpZuyB+TpyiSHru/zAtjSp5AvTDiOIDkz3CSKnOPpkT7iOeffz58FerXq2GvNcywZiIeeudrK+/XOHjwYG5Lw3NqDX3KRxGEw6Lgo0ePhnOG/xmOrwm2cO6xBf+EE8Oi4Jh4vRlTCvEav6uvvjoceW673HHHHbltKn49SCrfPLW2E9aW4K9MfgkhzuZYC9vsQLfkzzfffBOOl19+eTgayFL497//HY7tkJr6PXToUG6bQPJHpJDC1kegyLDw1q9lwNgC1+PHj4dju/AM1lcUsX///nCcNWtWOHoWLFgQjqlFwmWpJ2jOPffc3NZ5Tp8+nduao0x+CSE6R7flz/fff5/bppJ6Xido5yMFyZ/hQQpbH8Hb6Pr168PbVcpM5z49fEpfj3pfepWFt2bS6kfTTp06FY7sySSEGAxGRkbCsZ6CVI9uyR9GqZix2LdvX+4ygT3v2muvDUcheoEUtj4iJUi6RTxNWY/Dhw/ntrNhmL4VHn300ZBW+8oJ8/jjj4d9mKq6eWTZ/BJCnMG++mxVrnVD/jDVyAsjX5YCSyX48pyX5Wa+7p9OJH+GAylsfQTr15gWTe29w2hU6vPxVrC33vjzeOAZPN/8pAStfUpOfFuBN+SnnnoqTH+ef/752fz588Pn6vyzQxUpk19CiLO55ZZbwssZClKq/cTYFj3dlD+8FI6Ojmaff/55WHKyatWq8E8K8X5vVUHyZ3iQwtZH2HQgu4J75QwBxWiUrd1oF/4GBgjTN3bs//Vf/xUUKgyCgrUXsaCw9SVr164Nx2YhPJ7FkaleFs/aAttWaOdDBZ9+6whiyuSXEOJsaNO2MWzcfmKQBwsXLgz2bsof4rF06dLwgoj8YT2t/ZNCK0j+iI5Rq5ABZxU9wPYjqr1thn146sGn3PjD8Ol3TWgFu/9U3Pbg4Rqfdxv2DI6NsHAtHNtqw8cNO24Y+6ScI+e2PxAQh3n5p/b+s3q/35APF7+Ewaf+ZkgfYdfexHNf9cEvYZJOnmdbBlj62Z/O8HHzceYe3GwLEJ5tbhjyw+d5mfwS3YW8F/2JtVlr97Gcoe369ga44x/TKfmDfOGc9ks8zHAfYXt5Wg+T0dxHnDHNykDuxU3yZ7ig/IqQwtZjaIjW0Lyh0dWDhktjxB8N0wsA33DN1HtGEQgYFBt7DuGmGj9upghh4viknk1YXviYwQ14bnzNm1hwp7B8QOCRljgMTCpuFgfusTB8B8A5Yfo0Qtn8Et2DfBf9C8oSbQgZQlliUHJob/Ve1Lohf/zzY1NGCSKu/qWzmTjgFyR/hhPKrogZ/NQ8hbn63CpET2G6l73i2HuNrUr83kcsMmbdCtOkQngkw0QnYJ0cU68zZ84MfwHlv0h94403wscM8TSsEJ2gkQyTwiYqBesuHnnkkcIPDPjvvap+gCB6h2SYaBcUsS+//LLuBwasI3vggQeksImu0EiG6aMDUSn4OrTe4lpAobNdx4UQopOwcL+I3bt3Zw8++GB+JsT0ohE2USnY+2jTpk1h2uG+++6bnJpgavTDDz8MfuyrMiE8kmGiXdg+iK2TRkZGwouh/SUeU6N79uwJX2RWdS9I0f80kmFS2ETlYLrhlVdembIZ5OrVq7O77ror+V+AQoBkmGgXRvd37NgR1qqhuMHs2bODknb//fdriwzRVaSwCSGGAskwIUQ/00iGaQ2bEEIIIUTFkcImhBBCCFFxpLAJIYQQQlQcKWxCCCGEEBVHCpsQQgghRMWRwiaEEEIIUXGksAkhhBBCVBwpbEIIIYQQFUcKmxBCCCFExZHCJoQQQghRcaSwCSGEEEJUHClsQgghhBAVRwqbEEIIIUTFkcImhBBCCFFxpLAJIYQQQlQcKWxCCCGEEBVHCpsQQgghRMWRwiaEEEIIUXGksAkhhBBCVBwpbEIIIYQQFUcKmxBCCCFExZHCJoQQQghRcaSwCSGEEEJUHClsQgghhBAVRwqbEEIIIUTFkcImhBBCCFFxpLAJIYQQQlQcKWxCCCGEEBVHCpsQQgghRMWZMV4jWGbMCA5CCCGEEGL6yVWyJFMUtiKPQghRZSTDhBD9TCMZpilRIYQQQoiKI4VNCCGEEKLiSGETQgghhKg4UtiEEEIIISqOFDYhhBBCiIojhU0IIYQQouJIYRNCCCGEqDhS2IQQQgghKo4UNiGEEEKIiiOFTQghhBCi4khhE0IIIYSoOFLYhBBCCCEqjhQ2IYQQQoiKM5QK22233ZbNmTMn++6773IXIRrz448/Ztu2bcsuvvji7KOPPspdy/H6669nM2bMyK677rrc5QyEybV33nknd+kupOPpp59W/ReiBu2Z9tfIqL1kQe5Z/+nzBrmGTBHdpSmFjcLyhVSk9FB43i9GBSr6mR07dmTbt2/Pjh07lruU56233srmzZuXvfbaa7lLb0BZe+yxx7J77rknu+iii3LXM4LY2uoVV1wRlExTUkV1oezoMCk3lA/KTZTnlVdeyW0T0L7Hx8eDGRsbC260Xd9eYJjyHTlAWpcsWZLt27cve+qpp0L+nDhxIhsdHc3ef//97Pvvv899i65Ry/SAsxZSK6DxrVu3Bv+YRYsWBbcUuK9evbrQj6g2W7ZsyW3DR01YB+MhP6j3sXsjZs+ePX7kyJH8rDfQBmmLcTz27t0b0kTarJ2SvpGRkUn3mFTeNEM36hVxHSZ27tw5XlMkQpkikyk7yhKZS33z5SnqQz2m7mDItxjca0pJftZ/+V6vDZeFtJBWy6O43Vv+kS+iPcjHIppW2Iz169dPFqCvzDFUlG4IZ9F9aIh02sMKaY+FE3WZOh+7F4HfKggzOpRUW6XzqVfO3JNqv6m8KUu36lWzMqyfoVyQwfVeAuhkUSboaI8dO5a7ihTWpjGN6mU/5jvpaqcPJs2WP0V9vWgf8riIltewzZo1K6sVZLC/9NJLmjYZML744ovspptuys+GjzVr1oRh/k5wzTXXhOnGXsL0za5du7L7778/dzkDU0DxdI+xadOm3HaGdvJm2OtVp2D67cknn8z++7//e3Iae8OGDfnVLDt+/Hj2t7/9Lfvss8+yH374IXcVKQ4fPpzbsmz58uW5LY3l+zfffDO5joupQqYMjT179oR83717d+7Sv5jcMNauXZvbimE9rq0N5Ei799hUMma61u4OBLni1lCzi0FjxzBywL2Y1FuH+Yvh7cNr7rHxb++E6/1iT73d4+aHbrHH/ngub0ipoe9OwVuWH4Hkrc3e3MgLc8cY3t38cvR+MR7vnsqPVmF4n/zx4WOA5/CWRdxIp8XRRpDicmX0hjdOD365jzQTBuHhl2emRqIsP1NxwqTqVzuk8t2eYeVEPlAvzS/pjOt/HG+OnONuYCd/uL+TZRhDPHl+CotbvVEDXyZFedMovUX1yiAs8gL3VN0pIg5r0CFvfT5iKEOMz2dRjNU3DHXUwD0lj/Bj/s1QT6nnRVOHvYK4tCojTTZjkOtl8PeYiUfm/DUvD4cd8qOIyauNPMZQAawSmOBASMSZ7/0Z+MEvFQA7nbxV9LhgrXGY4PZ+fWNCSPn7TWj5OHEkLibMugX5YWnDWP4YpCEVB0sDnSJwr1V+hIelw+Cca9zXDXxcgOdYWnAnjRY/Sy/xpHywY6ysTHhRnvjFjbC4HzdMXF4GzyJc8o1rPk+6BfXEx9swd+oj8eA6dtx8XgHpJD1WPhZv3x64N86jTkO+peJnWJla3OL8j6mXN2XSC/Xign+rRxj84NfafiPwOyyQP9Qb8try2fKaMsBtULB60IyJ61w9rG2Y4Rysjtu5hzpK34Ox+3Ajnib7qgTxK5sfMZY+TEp5jbF2i2zwii35Y3DN3MkvcQbypIjJq408xlABfCWwRhUXQOwPrIPwioYVou+EKfyU8LFG5jt3noGb70TsOXHHYnHtFsSLyuqJ86VeHHDjmmF5gIkx5adbxHExcMdYvlKOxNPK0Je3NVrvZv4I28oPUmVo9/tO2/IE95RA7QSpuIC5x3UyVZ6cx2UZu0G9Z3UKy0PaQwriRT3CD4Y2WCSc68UXtzLpTbkRlm/PYPen6n4K/A4j5B1pN9NNmTBoWNtImTL1zvun3fj6WxWIG222WeJ61aystRfZ+PnevZ5MGlbIkyI6tg8b2xXUKmyYu2eNSxGff/55OF566aXhCKzzgVqlCEfYv39/9vPPP2c33nhj7jIB621qHWa4ZusELrzwwqzWwLK5c+eGc2CdXS+YM2dO9vjjj09Z13DvvffmtuY477zzsnXr1oW0xp+Nv/rqq9ldd92Vn00vtQ53sswoR+J5zjnnhDJYuHBhcIeZM2fmtrNhvQj3xRw8eDC3ZdlXX30Vjpdcckk4AvcsXrw42Hu1PueOO+7IbVPxazVoD7/97W/zs4l49wLLw3rtgXhRt2qdV4gzbfD2228Pa09Yw1KWdtL7/PPPZytWrJhyD3bqE3W/mXgMG9YOgfx64YUX8jPRiH/961+5LQtrsmt9YtiqgrpMfWwEctBge5BetXGwNWGxgUceeSR5rahdff3117nt7G1NbH2aN/FaNC8LfT598MEHuS3Lfve73+U2UYaOKWxU1DfffDMIDD5CKLMnTWoPN+432LsKUp2+KXss8AQWdf/000+hUhEuSuPmzZvDtelm48aNQXGdP39+2HsOxS212Lss7JlFvvzlL3/JXSbyjv1wbrjhhtyl91AmlAFxIs2k/e67786vtgeLqFOgJFaJ06dP57YsO3r0aFigDLQH9jarMpTbJ598ktXehkN9Q3Fj36UybRnaSS/thcXNcSeAsgb1yl9MsGjRonAkv6ZTaaCdI3v7VaG2wQNYtmxZOJJ/KCR2XoR/Qek1KJspA7Tp1DWv7MecPHkyt00oaB76es/69evP6otMbiBL/OAM/ZZx5ZVX5jZRho7+0wGF8uKLLwY7b+jxlyHGypUrw/HQoUPhCDYa5b+m++WXX3Lb2fgRFwMlhq9PeDNaunRpGIXrBaRhbGwsjLTxZoPi1s6XMAgQwqQDtUbAyGKv0lcE5cjXaqQZUF7bwd7MPvzww3A0eA5vfV4QVBG+nqYeEH823a061LWHH344KFCMOABtud4G2TGtppe6jdBPdSoYLxfEVJCzfmaintxtFhTmIkWMa7Rz/xVhN/BfFJY1ZTdp9187+z7lvffea/iSjQzyyocfkRp0Lrjggtw2wUMPPZTbJqAO2suWH6mkzpg7LxnT+XIxCHRUYQMEK9o8rFq1aoqWbtxyyy2hsBgxMuHC7uto4qnPhosagg3TEg5hcs6bPvHo1ZQo8OZCPHbu3BnOf//737eltFm+2Cjbyy+/HEbeqgQCDOGKEPv2229Dxx837GZBIUMxZdTW8g+lFYXiueeeC+dVhVHeRx99NEwB8CJTVeUy1bnRjshnU5jLbFHQTnpp+77zE+WgzcUjQR9//HFu6x60RZYuMKLebVCeUkp8kUH2NCJWRotGm1LceeedUxRlP9U3CBT1n2xrYvDiHCtevg5efvnluW3qC3yZKWcxlY4rbEBj4e2cypzax4nC5e3bhp15I6LhU+H9PLmNxKUawqlTp8KRkTRAOQQb4asKKI4W/3YUDPIFxYU8pWOkg/N5VQVQulGkKNtOvjk98cQToT798Y9/DHXl2WefDeutqjQdHIOyg5LJX7j0WlGzNYX1/jrmjTfeyG1nU3ZKu930IrypO6nRIUb3+nXKrZvYjALrOf/nf/4nd51YJoIix5S05Sflw8gno9/2YtXMSFQMba+MUgTEAVlvU+TEgWcTh17iBwL8GqtGkH/IYGaIeDE1eOHgGjKf/IZm097pcmqHa6+9Nredzbvvvpvb0oqXH6jBbvnC0WN1mGOV0l5VuqKwAQtfbV1FDJWYRfi8OaGo8UZEYcWCnpE4FBOG3OMpmbfffjto9lQC8G86Rmp0bzqwOBmkq55A8BXYhCsjcylsiJ6O8U9/+lOwTye+DOKGB3EZgSnWrWINF8WffKGufPrpp9OurKXSVsS///3v3HaGVJ5NB7ZOpF4aUJSsg4n58ssvw/Hqq68OxxSE2056uf/mm28Odl7gvHJGGHSOCxYsyF0Eo1t0ZMg/4IMv8gdZCUzznX/++eGlCdlD/lKO//jHP8KaLV6seLFlCvrAgQPhnm7CNDnKDPWMzvf6668PL1yd2pi6FcgTNhY2kC2N6ivXyXfylvbCizh5bLKdqT6ukVZTdppJe6/LKYYBAZ4NxNdmOGiffiDGBk08fnQOv+QLfbRfJoG71WGoUtorS60DDDhrQ/h0mU/Ha5ld+Bkz2z3UhMhZnxSP5vsG1QojXMPwqS+fEfutPsD2uqkpf5OfFeOXcPFv1BpN8EfYuHPkHv8cIL7EG/cy+8q0gsXD4mufR/MJuWGfNpOPXCd+XMcNQ5zjvADSSdqn4/NxyyfiRXxIj6UF4/MfSAPu5LulycqFI2kmDEs7bj4d5AXuHA0rf9wIzwzhx8/vJP65pJ9ngsWR/DB8nSJtYPlEWXE/4dm95oYBc6fOdAuewXNT8GyMr3Okycopjlcqb5pJb6peAc/BHUMdsrpDWGXA7zBAfpPWuP2QT+Q118jLWEZwH9fNnXPKyOC+RiYF7o3aotUP88exXn2cDqxueYNbEZYG6q+XzditThNGLLebTXujcmoWnk0YrUK9sr7U0k98cMNY+/UQd8tj0kI7t/RgN/c4Xp1Oe79BvhTRtMJGBuLXm6LKYALdg1schjdxB4F/X2EowLhRpBqNNRTOY2XDTFHcW4V4xBXcOiuPdVBct07JKneqEQCdaJw/3YI4Ex+Lf6Oy943U7sHNwiD/7bo3qXLBAPnA/anrGPLZGnensbha5xc/G1NUp1KCiTA5N8Uuvpfr3cDiGbcbsPpGnHy9xV5PWYrzBsqkF+J65eE+rtnz4+tFcI+oD2VBGRmcFynD5Cf1phFl/FGulKfB+XTJsV7TbNqbLadBYpjTDo1k2Ax+ap7CUG9u7ToMLTPkyV5WTJnZPlHAOhsbbu712p8qwnTrgw8+2PQC2X6GKTHb98zv0caUN9Plf/7zn9vaNmVYoO6wRqRq6zw7xXTKsH6EsmetG7IDGWzTVPXWwpKfNUWsoawp44+6x+JzW/fGmi6WdcTLRwaRZtPebDkNEsOcdmgow1DYwFm7Cm/jvG0UjYqgYadGAspgIzL+jWZQIG2MSvQD5D/lQJzbgTfRolEWrvnRG1Efa3uttq2qM10yrB+hzMkfk7s24sq5H9HwcL3RyBn34y8eBYlHlZAFvh1b2Dy7qC8YBJpJeyvlNCgMc9oN0ltE1z46qAfbA7AAsx5o1Sze1OjaBOQHBsi7dvc16yf4CIMPLIrg4xM+ThGNYYE0H/qwN6B94CKGA7ZZqClQk19v848wNUUifNAT76FVFu61/RbZq49z//GK7bdFXcPuN0klLjfddFP2hz/8oaNflFeNZtPejXLqF4Y57WWZ9ilRvjRhTzIKYnR0NPvNb34T9upiapS/CeELEb56GuRG3AwMEdPgR0ZGguLGF5LDAl9N0YBJP3UFJd42t2RqlO0o+OpIyn1zUI9Q/vmSbZCmGjQlWh1YxvCrX/2q9NYfQojGMqwna9j4LJj/DuRzZ3sLo2Nmqw+tRZoKbxd8Uo3Cwn5kw6bIorQ988wzoa6wlgHmzZsX9mXjrUuKvTCksFUDa7ODulay0yDj2RC90VpBMfhUUmETQohOIxkm+hE21uW/OTVTIKSwCSGGAskw0W8w23T8+PGh+FpWNEYKmxBiKJAME0L0M41k2LR/JSqEEEIIIZpDCpsQQgghRMWRwiaEEEIIUXGksAkhhBBCVBwpbEIIIYQQFUcKmxBCCCFExZHC1iH4Dz12rH766adzl86wbdu28Kkvf+nVTdgPiGcJIYQQono0rbChkKBAlDEoMMMAytRbb70V/kKqX+FvUa666qqwgaP92bwQQgghqkHTCht/5nvixInwX46wZcuWsNFbbLZu3RqutwpKQ7+M+Nxwww3Zgw8+mJ+1Tmp0jv9WJT95Rrfhr1GWLVuW3XnnnbmLEEIIIapAS1Oi/OH25Zdfnp+lQdFYuXJlftY8O3bsyE6ePJmfDT5MSR44cCA/6x325/udntoVQgghROt0dQ2bdf7NwnqwRx55JD8bfL744ovspptuys96z9133x3y/7vvvstdhBBCCNFLpuWjg9S6N0aUYnfze/vttwc7SgPuthbOL+xHybn44ouzOXPmBDsQ5hVXXDEZHnbcPHEY2PFLWKmF/UzNrlmzJjzHwiSMsqD0sC7M4sRz/FQvz2Qa8ueffw5r4Mwf2LQw98TpAO619BI/4hkrWT69lhbzXy8dixcvDkdGOYUQQghRAcZznLUUW7ZsCfdwTBG7j42Njc+ePfuse0ZGRsZXr149fuLEidxlwm/sb+/evcEf7uvXrw/3YTjfunXr+JEjR4J9dHQ0+Oec52EsbMJbtGjRpD/suFm4GJ5tHDt2LNyPX8LAYPfPMVJxxv+8efPCc+x+e75/DuBGejykq55/8oC4mTtHSy9phzjPiDNuGPNLnFJwD3EXol+gzgohRL/SSIZ1RWHDLeWOomCKAIoCioUpM56U8gPm7hUNU1gsPnYOKCmx286dO4Nb/Fzz65Um7CmlBbc4XIubj3PKzfIgTlv8bCOVLguXtHgsbT4c84ubT28qXA/+uW7KnxBVh/oqhBD9SiMZ1vaUqE1belNv/RlfOtYUo+zYsWPZY489lq1atSrbtWtX+IihGdatWzd5D9tRwIUXXpjVFLls7ty54RxmzZqV285wwQUXhOOtt9465bkPPfRQODItydQhU4vY7WtYz8aNG8Px+eefD8d6nHPOOSFOCxcuzF2ybObMmbmtdf75z3+G47XXXhuOBlOvNWUyxNumiY3ly5cn8/ngwYO5Lc3p06dzmxBCCCF6RdsK25bEth641QPFCKXipZdeyv785z9nF110UX6lPVBWfvrppxAeyhZrtTZv3pxfbQzKzMjISLB/88032f79+4M9pfQtWLAgHFE2i2CbDOKEoooSyDoyFvS3i609SylgixYtCsdO7QnXSKETQgghRPfpykcH7NVWD5QMFDX429/+FhSZToGixgL7FStWZEuXLs1GR0fzK81TtKUIilhZSN+GDRuy+fPnh3MbnWsHPlCoR6PtVoQQQgjRf3TtK9F6ShtK1Z49e4IyxdTo3//+9/xKezAFyOgSI2xHjx4NI26p0bEy+GnVw4cP57azYaSwCJQ1FMh9+/Zl3377bcgTm5LtBPG0p4cp4k5w9dVX5zYhhBBC9Iqub+vB6JKHqUqmTJ944omgYG3atCm5ZUWzsB4OXnzxxXBsBRQslDCUPpseRdmKsVFBRvKKYJ3eZ599lm3fvj05fdkqtq7u448/DkePjQza1hztwjo8IYQQQvSWripsrLXyIz0oa6zhYkoRBQZFBnArmhrlmr+emq5ktC6maFozvsbIH8rVfffdF86JI0ob04/xfmW2vm3t2rXhWA/CjDl16lRuKyZ1r2F/g8WUcgzr6hi9bHdt4KFDh8IHE81M/wohhBCiS4znOGtD2B7Ctn3gGMN19hBj+w32MgM791tLANtrEI7fZoN7cGP7DLadsD3PbCsK3C1cw+KDX7vHwmbLDu4F2+aCuNi2GISFX4zH7+Vm219w5Jz0eDgnXJ8Oiy9u3Me5zzfusXSQJtzZ9oP4mrvto2Z5YHBu7jwPg51wfB5bvHied7dwOcbgj2vEQ4h+gTorhBD9SiMZ1rTCZkpIGWMKkL/HK3imvHhj2D34QXFK+TUlCvBjSo/dY8oZ56YAmRuKCvHDjgJmik8M4Zhyg+EelCpPvbgRnl0jbtyHG8/j3Mefa+Zu4cdhEpaHPLI0p9JQL16xG8Zj+7nFSrEQVSaux0II0U80kmEz+Kl5Cvun5daBhvVyS5YsCevoir5mHWb4UIJ925Q/op8YFhkmhBhMGsmwrn90IPoL+wBEypoQQghRHYZOYSu76H8YYZsQ/r3htddey12EEEIIUQWGTmF79dVXw7Fof7VhBGWNbUL4IraTW5AIIYQQon2Gag0baYzRmhchBgOtYRNC9DNaw+YgI2IjhBBCCFF19NGBEEIIIUTFkcImhBBCCFFxpLAJIYQQQlQcKWxCCCGEEBVHCpsQQgghRMWRwiaEEEIIUXGksAkhhBBCVBwpbEIIIYQQFUcKmxBCCCFExZHCJoQQQghRcaSwCSGEEEJUHClsQgghhBAVRwqbEEIIIUTFmTFeI1hmzAgOQgghhBBi+slVsiRTFLYij0IIUWUkw4QQ/UwjGaYpUSGEEEKIiiOFTQghhBCi4khhE0IIIYSoOFLYhBBCCCEqjhQ2IYQQQoiKI4VNCCGEEKLiSGETQgghhKg4UtiEEEIIISqOFDYhhBBCiIojhU0IIYQQouJIYRNCCCGEqDhS2IQQQgghKo4UNiGEEGJIePrpp8OfjNcz3333Xe5TVI2hVNhuu+22bM6cOaqYBbz++uvZddddFxp3I3788cfs4osvzq644orcZSofffTRpDDA3m8Q5zVr1oT8ENOH2qkQnefAgQPZ6OhoNj4+nq1fvz4bGRkJ9rGxsWz27NnZRRddlPsUVaMphc13vJgiYZrS4st0/qL3oKy99dZb2fvvv5+7tMfGjRuz1atXB2GAvZ+gzr/77rvZSy+9lLsIIUT/wgv2iy++GOz79u3Lli9fHuzXXHNNtnjx4mAXFaWmWQectZATJ06Mb926NfjHLFq0KLilwL3WURf6EdWk9rYVynfLli25S2sQTu0NLtiPHDkS6gJu/QZ5YekQ1aSsDBNCTPTPtJl+lMeDSiMZ1vSU6HnnnZfdf//9YSgVPvvss+yxxx4L9hj8Xn755dmtt94a7GL4YHTqtddeC/ZLL700e++994KbEEKI3vHJJ5+EIyNroj9oeQ3brFmzwjQXMF20bdu2YBfC8+STT05R1rHjNsywNos1cWV45513wtpAreMSRqNF49QXLT8pB+0wlYexYZmIJ+XHDEuFaONffPFF7rv7sIY4FZfYeDnyr3/9K6xfqxq2Ztinyeo007nDTFsfHTB6tnPnzmD/z//8z6YqKBWHSu0rkzd+cTrher/Y/XUDNwrW/GGP/fHcDRs2hEbVLahUPMPiwWJ1W7DO0bsb3t2ErXcz4/HuqfzoFKTHBBv5Fgsvnl1vUb7dy33cH5dJXB6k3fxyX7caqI9znL5GnZ2PI3E3UmUI5mburBvxa+LiPEJQ4Q/3//u//wuj2Lt37z4rn+vFw+B+y1sfBzM+jp2C8rR84Lkp5ZR0VKGd9isPP/xwtmjRovwsm1xAfuLEifASTX155JFHzsp3cTa2lsugPyMvLT9Zdwvx2q69e/fmtgmOHTsW7mHh/s8//5zt2rUrW7Zs2bQpba+88kpum8DiY3GCefPmTfmgwK9fqwq0+SVLlgT5eN9994UyIC3kKXU61ccMFbUCDThrKVjbZOub1q9fH+6vVe6z1qp5fwZ+8Mv6Nuy1AglrmwijJnxyXxPUGkZwZ90ceL+1xhXcgPVR/n7OeYaPE0fight+uwX5YWnDWP4YlqZ4TZStDbT84l7Sg1utsU2mw+Cca6S107CugbCJO3Egzpg4T3m2pS9OD34oK0sPfkmHxZln2L3+Wb6MurFujHpD+Vj4GJ7t4xLXWfOLH+4n7lYPsRsWrr+ffOBec6ecSZ9dw066sWOszAmf+o7dx69MPAB/5Ddh+HBx6xa+vHkuccAYlDtxIC52Htcpjr4OlKUZv/2O1SeMl4PUAXPHWJ6K+vj8oj56rA3F+HyOr/uyoZ1OBz4+Jls8uFubA+oFbrHMaBXCimVms5h8wlh/b/h18/G1QYL0FTF5tZHHGArHF5BVUgS2J/YH1vH4xmEVzld+KpV1Zh7rxLyQ5xm4+Qpoz4krpcW1WxAvlBtPnC88n3h4LA98flkepBohz0BB6AYWF+LthX4qnyGVHvzGbqas+nhT5rj5jocyJs2pZ3UCX4d8PbT44e7TnfKbKi+737uB5RuG9Fr9IB9SHYLlCcbXf86JB/E3iuLhhZvVJdz9/Z2CvCFsn2/YfR2wfPBl2ql22ozffsfKEZOqk2a6Uc6DRJxfZfEKRCyDrd5i4r6rW3j5EsvcFBb/uM21CmHFMq8ZYvkY48upTPr6FdJXRMf2YWNheS2jw3B8o6H4zz//PBxZhG7YwseagAlH2L9/fxgKvfHGG3OXCRjWrTWEcI2pIrjwwgvD8PXcuXPDObDOrhfMmTMne/zxx6dM59177725rTlY87Vu3bqQ1ngq8tVXX83uuuuu/Kw71Ptg5Ouvv85t9dm8eXO2cuXK/GyC//iP/whHpgwMpgCB6TPDyhi68ZGCTQ0w1eHr4Q033BCmm8hvW5RrxH6Nw4cP57YsmzlzZm5LUxNM2dGjR8NzmPYjH2oCP796Btv+hDyIp22IR2qvJPZXMr766qtwvOSSS8IRKEeb2vnhhx/CsZOcc8454eg/QuKZvg5UqZ32K9Qb6ieQl75Onjp1KrdNXEvVE3EGL8dqikBua4yf6mTq0+PlfkpedAMvgxpNc7L8gCVMcNNNN4VjLyG/6CuMRls/HTp0KLcNHx1T2BDMb775ZhASzD/HykUKBE8M9xvsBQapTtAawp49e8KRzv6nn34KAopwURp9JZhOqHAorvPnz59ci8SXta1yzz33hHz5y1/+krtM5B1rEOj4e8HJkydzWxrrVBAMtlYJc9lll+U+0uXvuf7668PRFPzpAiUVTOlpxC+//JLbmoMXEkgpLKZYlWlHRRw/fjy3TcWUq05iSjbtHyXc4u7rfpXaab/iOyyrJ8Zzzz2X27LwoieK8YrXb3/729w28TFC0cADstfwL0UoQ8h+QGbfcsstwd5t7JmwcOHC3DbxMhzLEAZHxscn1rfRFnsNgy7+BcS/uBsHDx7Mbdmk32GkYwoboETZaMDtt99ed8GlvXF7wWNvJb6wijpC30gMOgAWJa5YsSJbunTp5AjNdEMaxsbGwkgbCyVR3Pjar1VQhgmT0UdrfFTyXqWvDDaCs3fv3knhEJthf/svUnotb1oVTjZa8OGHH4ajQTtjJLxbb/60/61bt4aOABnABwWxHKhKO+1Xvvzyy9x2ZjSFPEZG2GbX5CkfJ/Q7vPD6F74yppmF6V7x+s1vfhOOKF28dFA3U9CG/EwQChBuyGYbsULx+OCDD5KzE52G9uTj8+tf/zocyTvcY6W+atigC6SUNfCyspmR0EGjowobkOFM+8CqVauSnRJvHUw7MWJkwpxpFCr52rVrw7mnaPrNOjbCIUzOmXIiHr2caqERE4+d+Ve0v//979tS2ixfbJTt5ZdfDiNvVcVGcPh0vF16pdgxfddNrH766YwY2kQroJDZaJfVOzoU3sT9KEw3YETt22+/DXKA5zFlZKOpVWun/YhXMnghRElh5JrOmTLnZTGeRu9XUDpTL3tFhr0eyxArXrxgkJd8pQgLFiwIx5h4qQT3nH/++WFEDuWIFxbq/3RNh/7v//5vbpuAFzLiRN1AfvRKfpbF/6NOPSXZ1/lzzz03tw0fHVfYgEbGuhwaw6ZNm3LXM/DWsX379jBcizCncvFGzhuJr1w2Eod7jK3VsAJGOYSqCSo6JIt/Ox0l+YIwJk8RDFVviAgr4sgaLRs99cTD9CniMp4u7CWj22+mV111VTh6YWRYntV74yzDE088EdrhH//4x9DGnn322TDiOR3T6LRx5ACdF6OEtta0qu20n/DTX15R+fTTT0O+aiPUcnjFC1ll+Uib4byewuWXSvBSYvfRh6Es8sIyHSNrhn8pJu7E5cSJE0FxYxS7kyBHUgbs5SE28ZY9nnj0/YILLshtZ0AW+jofrxkcJrqisMELL7wwZa8gD4XEInwqN5WcCkYHHjcQRuKs07c3dOPtt98OFdI6NP+mZBRNOXWTuJMlXalh3FiRsZHE77//PhxjbC0QoyZ/+tOfgr3KkA+UC1MUvvwof1uf6InzgzKm/K+99trcpfOklEnqG+XVjkIcj5ql6qLVCxSaWIG19W133HFHODYL6SLfeWFiJIs2RofeTWUNwRxvoB2v3axSO+1HfOdXT75OJ0y7dWM/v+nAK15esWF/0SJFx3/c49eL9Qq/xteUGRRGGxDpJKacxga88upN0QvE6dOnc9sEKb8mC41u9geVp5ahAWdtCJ/q1zT58Pmt/4Q/hs/Nax3uWZ/7jub7rfA5P9cwfGbMp7v+E3Vgqwf81oTT5Cfq+CVc/0lyreML/ggbd47c458DxJd44+63kegkFg+LL/HBzbZyAPIPN+LFdeJIunCzPEvlLenkelG+dwKLC8/zz7J4czRsOweMpRm4z8rAwuKc+PtytrIjTF/GuPk86zQWL8trDOVG/Hw6LH2xu8XRtwOO+LM0ck74lm+4k14DP+bf0oobYVInPM3Ew9oNz+X5Zqhrvt10EqvnxMfiwTN9fK2su9FO8TvokD+k0/KwW/AcX09jKE8rNyuzbuDTW9YUxdtjdRHTTBr8s3w77BU+Pt1q243g2a3UA5MZZlL4cipbtv1KvTwwmlbYUg2oqKDohOLruMVheBMLIvz7jp9OiM7LY50c1ylUzq0ycE7DiisHppVK1gji4ePLeax4EB+riPi1+OLXd3gxXOumoAbfQMyk8g5/qfqAX4N0EF+7lio7ex4dNp07dvIkzrNOY88xZSoVv3r1PZVHBgqGpQN/lDX3WNnGQp5zHwfiFCspzcSD/CdMi0PK8Ix6daxVeC7hWjvEED+fn9jtul2zumV5laprpLUR+Bt0fD2hLnULq1spKCPaNPUHP2XKpopYPmK8zCqC+mr30L56TdxWegXPbqUe+PxMxT9OX9ly6ldSeeCZvNrIYyexTpzMN4XODO40BC/kxRkQ2INWaRH601n/DJ5Zr1MaBKyNYXwbQzE25XGQ6EUdmm68El5WDpiSjDINlH+juk89KdM2GilsptQRbxQ9e5khPpz3ikaKQj1oM3ZPM7LD0k3eW54QRirvmsmzVuPTaeqlpQykzdJA2g3s1Fm7Rt4NOqSziMmrjTx2CisEXzAxFEyrChsVmgpgwmmQIG002n7EOonUqJkJr+mGZ/ZSyHUTlLWiEUquSWHrL+gQSaOZsuVHXUB2cA9h2ItyUX7hr0zbwE9RR02759nIY+zEGdnPs3v14snz/Uglpkx/Y/LX7sFe1I8Z3EfayXPyy8oDt1Qel82zVuPTDXh+qwobCqmlgbwBS3/sPuiQ1iImrzby2CnsjaBexcK9ncKhoAdJYSM/LK9oEPFUWb+A4KHcU0qENczphDzlmYOosNnoQZHCRhur1wb7lemuQ9MJHTXpi01ZpcfuN/8ckZMGsiUOOzapDrmRwmbE93Pe6kt5u9RLayNIa3xPM/KD55LnXp6jONaD8IvyrN34dBKe7ePaLPRrXvn06SlbxwcB0lzE5NVGHjuFvdlRcenEKSgKBHd74xi0jqQdyCeruIOihHpMucBMpwC3F4devpV2C3tpIX0oZqSVNoZBqFKPetVZdhPSK9JYuRucF70Yc71M54+fRh019Y6ysXbGOe1u2CCv6OMMzuu9gA9rnlm6zSDLhgnSXETXtvWoB9sK1AolfDbN9hRsVshGhfz3JhuVstXHdO5hU3VsLzC2mCi7IWS/wHYA/q+qsE/HFgFsd2H/pVcTCGHTy6K9gvoN6gr7FtU65LDHG2mljd19991hCw3qUb09psRgwjYz9pdr8MYbb0zb/oZsV1RTTiblOv8N3On9wfoB/tnH/m6PbXfYMLbeXo/Dmmds61F7scjPsuyZZ54JR+Qzcju1DdMwMe0KG1Ao7Dtle7Bh2CMq3rNJZKFzJX/YEHPQFNnULubT8Xc6lqfeDNpmoyht1Bnbgw2D/cknn9QL0RCC4u73DEOhZ5PSDRs2tNUJcm9q30g2TLV/2GDjcP8/newb9qtf/Sr0AYP0olQEe0+y36L9e8I333wTjvzLB2UAyrMJ/vrXv+a2iT1HyRdeOMmPYZddPVHYhBBCTA+mLFx55ZW5y8Smu/zv5R/+8IeWOkGUDDZmRfGjU+U/Y03xMOyfSlAWf/e73wU70PGyKz4M2otSPT7++OOQ55bXc+fODZuCM2r00EMPBTdQnk3Mwu3cuTNsjA/k2969e8PL5rAzo/bmzbxp0GJzqxBC9B2SYdWAfzWhk+X/NDWaWw7lmYBGMkwjbEIIITrGjh07wpSeFI/yKM9EGTTCJoQYCCTDhBD9jEbYhBBCCCH6HClsQgghhBAVRwqbEEIIIUTFkcImhBBCCFFxOqKwsZHftm3b8rPBhPSxINA2NhSDA/V3zZo1YU+kTkK4c+bMOWt/qk7DlgD8Q8Sw7wIuhBCDTNsKGzsvHz9+vO6/FHCdjhBlB0MHdtttt4XOjA0dp+OviMQE5LmVQxkzDFAH+dsXNv/sV/hXg3vuuSd74IEHQnqEEEIMHm0pbChjb731VlDAYug42AmbkYvly5eH/2zkc1U2Brz55pvD/xr6/5GsOiikxJ9dmPsVdsgmDVu2bAnn/Fcd57Hhv17Zhbsd+kUR5z81O7GDdiq95Dd/vzYdO3Szf9Ojjz6aLVu2TCNtQggxgLSssKGQ8cftmzZtyl3OwDU6DjorNgPk/yEZBQA6FhS8Tz75JOzsfODAgeAupo+rr746t6VB0Xjqqafys+ZhJG+YyhUFafPmzflZ70D5XLduXXbnnXfmLkIIIQaFlhU2/tds9erVk4qY59577w3/XcefT9OJpEBx27VrV34mqkarf8SPss5/FA4LKGtM+VPfq8Att9ySvf/++2H0WwghxODQksLGCAqdAqNoMSzK5w+BmVJLTZV6UPZWrlyZn01AB8g0KmvdWEfFnwr7zie1Dgs3I+XOkXDMHbu/B2ytHVNbNp1LHLATJz46wC2+r1HY8b2EZ2v6cOM8hkXkcR6kPnYgroRhYXXjww/ibGkzw3Njd86JI3UC5YX6YdcsHFvYb0oO16xsSTP1xe5JpScOAzt+yad6U7BxHnHOvWWxsrN4EUfiChz5Q23qO5gf4gm+TsVQ7j692O0+g/D5YIH0AflrcbE8iKFN8afJzz77bO4ihBBiIBjPcdaGjI6OBv9jY2O5yxlWr14dro2MjOQu5Tl27Nh4TdEL4Z84cSIYexZHg+fiD/e9e/fmrmdYtGjR+M6dO4P9yJEjU+7nnHsxhA+EYfFev359iDuG861btwZDmJz7NJcJ29+LHb+EgR23OJ8sDK4D4dQ64ODXp5VwiLPlk49vI3h+6tnGli1bctsElIulwd+DP9yJsyf2x3Xy1dyJN/Hn3NJAGgnL0hPnN+Xp6xaGMC1cTBxvwsAQf7A8t+d4LFyP+be6xDHlj3PcPb5OxfHiGu5WVj5/7VnEj/uoC+bOOflheReHa1h8LN3DAmkWQoh+pZEMa0lhs84l7vTAlIt6nUkRdDTcH2NhemXJOq1YYSNOvkMlHvG91sl7N+y4eWXLX0+FUzZs88c1T6qjx83HH+x+68wJ28cTsOMH90ZwP37j5wDXUu6mTHMfChjPox7EyhrUCxt3jOWNhWPxIZ2GKTXejTjgRjz8c82vzxPLs1hpqafs4BbHmXPcPVb3PSl/kEoX8SOexMPj02ZpAAs7rue4pfIYLO1llPdBgjQLIUS/0kiGtTQlalNArEOLqXU8ua05mP5hGm316tW5yxk2btwYjs8//3w4wtq1a8PxueeeC0dj9+7d4QtU48ILLwzTs3Pnzs1dsmzWrFm57WxYtG3pYvF9Ec2Gff311+e2qdhUGNNk5IGPP/DRRq2sJqeYyYcVK1ZMyX/sxIXpyHhqrR5+2tLMkiVL8qtTYartH//4R7CzRpGF7X/961/rrlGsR03JmMxX7iXe55xzToj7woULgzvMnDkzt53B1ksuXrx4ynP5cremSIW08zELvPzyy8EtXmNp9abMRwLcSxieVJ1vhv3794d43njjjbnLBDyrpsSFa9ThmNTXyZRfESdPnsxtQggh+p22tvXoJHRkkFJ4FixYEI7+IwU6ODp/Oi1bUwTbt2+fVGwAO1+r4h9/rHvq1Bd9nQ7bOuALLrggHOuBwkxexMoWnT2wL14ZyD8UQW/Gxsbyq2eD0oBCzfPPPffcjm1xgvJFPhIe67JY8xUrrY249dZbw/Grr74Kii8vDinlirIqq9jy0cynn34a7PilvBspSY1gGxxIKaSmhO7Zsycc20VfYAshxODQcYUNJQC+//77cCxL0WhAvVEc69SfeeaZcKRTZeQpBmWKRdpcW7p0aRjJ6BTdDLseKCPr168/S9ky4xXWZmH0i33z6sFeX4DCmPpgolVQ1FhgP3/+/HBuo6qtcPr06dyWhhG6slCnWOhPfO66667J+t0qv/zyS247m0suuSS3CSGEEFPpuMJmX33u27cvHJvl8OHDue1s5s2bl9smQDFhtISv8ejw//nPf4Yd3z0oFTY1dvTo0XBP0bRlM3Qr7IMHD+a2NKS51fwtA1Ow9WA7ly35xrtMjXYCyg6llzSxsTLPbzTKWA+mqY1Dhw7ltjR+KjsF9YopYpS19957r2MjivD111/ntrOhPnWCIsVbCCFEf9GSwmbrevxUpME+UCgUjALZlg1F2JYHNnKRUkRs+4LU6Blrzpje2rFjR4hP3NmtWrUqHJne6jSdDts2tGX9VQrb5oJ8YFoyNcJFHpRdw9aIeAsMRsAY1UShYiSROKS2rGiWxx57LITFdHara8RshJbRM0YJbdozlUekCeW/SDEiH9kYmingdkYsY+yFhg2lY06dOhWOjNR2gk69mAghhOg9LSlspjj98MMP4eihwzUFhjVdRdNmKHS20JxpT5Q2OtlY0bP1bbZg3IOCCIz8pNY9pT6CKJp+bWahdrNhNwJFA0WCcMk7D+fWAfPXXsCeZ145QxHBn635awfKjWltU6AoE8rGlJcnnngixJV8Lypj8Iq9VwCNlOJvykuKVBhM0VJ/TAlDkYd4LzeehXLYaMo1Vbch9eyYVHoMe6EhvrG/t99+O+RpuwqijVJfddVV4SiEEGIAGM9x1oawpQL+i7YNsD2rap1T2GbAb8OAnT2qbJsKA3f8Y2zrB46cFz2LsPCTotaJh3iwjQJhcVyUb83ANhu25YJthVDrMJP7V/EMC8coG7bd67f1YOsGnoW7Txvh4IbhOs8gbf65wLn545kWlzhPUxAP/BKu30LCYAsJnh1vI8LR48Px5WvpIhz8kJ8+XXE4lvekg2ucW3o4kj9WJhYGfog7hrwgDr7ccLeysPzlOm6Uh8fqM8bC4H7CtPtJC/dZ2sgbC9fKgjjhbvnGddx5ps9nrpu7PQ+/cR5zj89Lw8fX57tBuJhhg/wQQoh+pZEMa0lhAzrSuOOLoTOiw6bzsA6GDogOzneuHjogU3Aw3BvvQRVjikEKwrNOjzhzbsoD58TDlANvfMcZX8M/lAnb32fG/HhjYQLXLc/oxE3xi8HdlIoy+ZR6bpFBYYjvMXi2d8fgF4gH8SJvsKf8+jTxHCsDu8cUJs4tXMAPafV1BDt5H0MYpsxZ2HFeFsUNxcruJRzCM//UN86BciZs/Nq9lh5vPKTRt4s4DamyIsyi+ILVOVMahwnSLYQQ/UojGTaDn5qnsC1Ebi0F02CXXXZZmL7r1CJpIRpBPa0pLuEjAHE2rClkO49hzJ9mZZgQQlSJRjKs5a9EWXNWe4sP20sIIXoP6+v4YOW1117LXYQQQgwKbW3rweJoFsDHC+SF6AZlFvwPK+TNAw88kL355ptt/xuDEEKI6tH2PmwobXfccUepLTyEaAf7yyb2vJPydga+NiVvXnjhhbqbTAshhOhvWl7DJsR0wsa68d9CjY2NNfy/VzE8SIYJIfqZRjJMCpsQYiCQDBNC9DONZFjbU6JCCCGEEKK7SGETQgghhKg4UtiEEEIIISqOFDYhhBBCiIojhU0IIYQQouJIYRNCCCGEqDhS2IQQQgghKo4UNiGEEEKIiiOFTQghhBCi4khhE0IIIYSoOFLYhBBCCCEqjhQ2IYQQQoiKI4VNCCGEEKLiSGETQgghhKg4UtiEEEIIISqOFDYhhBBCiIojhU0IIYQQouJIYRNCCCGEqDhS2IQQQgghKo4UNiGEEEKIiiOFTQghhBCi4khhE0IIIYSoOFLYhBBCCCEqjhQ2IYQQQoiKI4VNCCGEEKLiSGETQgghhKg4UtiEEEIIISqOFDYhhBBCiIojhU0IIYQQouJIYRNCCCGEqDhS2IQQQgghKo4UNiGEEEKIiiOFTQghhBCi4khhE0IIIYSoOFLYhBBCCCEqjhQ2IYQQQoiKM2O8RrDMmBEchBBCCCHE9JOrZEkmFTYhhBBCCFFNNCUqhBBCCFFxpLAJIYQQQlSaLPv/tPepXQE1K8oAAAAASUVORK5CYII=;" vertex="1" parent="1">
                    <mxGeometry x="1810" y="439.88" width="288.89" height="119.75" as="geometry"/>
                </mxCell>
                <mxCell id="123" value="" style="shape=image;verticalLabelPosition=bottom;labelBackgroundColor=default;verticalAlign=top;aspect=fixed;imageAspect=0;image=data:image/png,iVBORw0KGgoAAAANSUhEUgAAACsAAAAgCAYAAACLmoEDAAAAAXNSR0IArs4c6QAAAARnQU1BAACxjwv8YQUAAAAJcEhZcwAADsMAAA7DAcdvqGQAAAJoSURBVFhH7ZhNrilBFMePtwHxsQMmRiaYGBmxA7ZgC8QCWIAwMCPERCJIGDBgwEBCSAyEFRBL6Nf/c+u89L1Xd3u5uuUmfkmlu051df+rnI8Kj6ZDv4Q/6voreIt1irdYp7AVu1gsKJPJkMfjoXA4TJ1OR428AKSue7TbbS0UCmmxWEyr1Wra5XLRhsOhls1mNZ/Pp5XLZba5yV2xEFQoFLTNZqMsn4FILAALOZ1Oyuo8pjsLIBibj4Z7AYvArsM+n8+V1XlMxRqFSoNINLiB2NzkboBdr1eaTCakC6N8Pq+sROPxmFKpFOVyOajk5ios2QL8zHhMGvz5VTx0kEHaAvrPT8fjkQKBAPfd5qGioEc9X2+328uEAlux2+2W9PSkeh/9V2EpFoGGgDKyXC7VnfuYij2fz1xmE4kE9ft9ZSXq9Xq8iHg8/m+XUYL9fj8Vi0Uek/JcqVR4/Ct4DuOj0YjfgTKO+ehb8U0sJuBFetLnfqvVokgkwsEFkL6CwSD7bjQa5UXtdjtqNpu0Xq+pVCpRtVolPU/TdDrlOUawsGQyyeODwYC63S6tViv+3n6/V0+ZwDnBAGo+zOl0+lPtx1lBioGee7+dCzAP42JH3yrN4f1oAu5Rwq14WgnCx4wlGX0s0AwsGgcjAX27c8bTxGJX5ZyA3bX6OEo2xgWIxlnDjofyrB0IEuRg+DY4HA589Xq9HExAAgogo0juBvBVBBneU6/XlfUOSvSPkOOigB3FTsMmPoxPiVvIEVTAzmIcsWDF09zAChH/NSj/l6e4gR2NRoNms9mPS/X7HxmneIt1irdYZyD6C5uKqxLoIIYJAAAAAElFTkSuQmCC;" vertex="1" parent="1">
                    <mxGeometry x="2468.5" y="477.75" width="27.21" height="20.25" as="geometry"/>
                </mxCell>
                <mxCell id="124" value="" style="shape=image;verticalLabelPosition=bottom;labelBackgroundColor=default;verticalAlign=top;aspect=fixed;imageAspect=0;image=data:image/png,iVBORw0KGgoAAAANSUhEUgAAADAAAAAhCAYAAACfiCi5AAAAAXNSR0IArs4c6QAAAARnQU1BAACxjwv8YQUAAAAJcEhZcwAADsMAAA7DAcdvqGQAAAHtSURBVFhH7Zg/7gFBFMff/m4gbkC1UWhQ6XVaruAGwgkoVRq1E2g0EkShEBfgBES4wP58x5vNsLuzzE/M+mU/yWTfvJ23me/8fVnHu0JfzA8/v5ZUgG1SAbb53wL6/T45jhNZyuWyaGMV3AM6SqUS7glRWq2W8B0OB6/RaAT8NogVUKvV/I6Ox2P2et5isfD9KBBlg9g9sF6v2SJyXZetIOfzma3PohWw3+/pdDoJO5PJULFYFDa4XC5s3d7lcjmufRatAHX0K5UKWzcGgwFbRO12my0L8FIKpdPp+Gu81+sJ33a7TcwGBloB6gmkFvjRcWxk22jTaZz1Ek0zq0TugeVyyRbRdcTZSh6RAlarFVskbtykEilgs9mwRXfHZ9KIFDCdTtkiKhQKbOk5Ho/U7XbF3sET9Waz6edNYZjE3IFN/AiOTLySZTgc8hs9aIeTCfHypNrtdt5kMhHfCTu1TGJUAgIQoHZelrgPqaAT19vZz4+QQ+EbOkxiQHwLA/L5vLgEJegckkIdJjHg7QIw/Y8zhpGVN3kYJjGStwt4nHq1c3K9A/iwzsGzMWFokzkT5vP53cWHLBX1er0u6tVqVTyBzGhfiQnAQj4KRljdsH/h7TPwDKPRiGazGWWzWfaYk/4btU0qwDZfLoDoF9NIAJ1zMUNWAAAAAElFTkSuQmCC;" vertex="1" parent="1">
                    <mxGeometry x="2495" y="477.5" width="29.46" height="20.25" as="geometry"/>
                </mxCell>
                <mxCell id="125" value="" style="shape=image;verticalLabelPosition=bottom;labelBackgroundColor=default;verticalAlign=top;aspect=fixed;imageAspect=0;image=data:image/png,iVBORw0KGgoAAAANSUhEUgAAAFoAAAAqCAYAAAAzikzDAAAAAXNSR0IArs4c6QAAAARnQU1BAACxjwv8YQUAAAAJcEhZcwAADsMAAA7DAcdvqGQAAAPjSURBVGhD7Zu9SuxAGIa/PXegthaiNqJg4U+ljY3iDSi2NuoNCHoFegXa2qiVIChiq6WFIoKFiohY+Yc3sCfPMN9hNptks7txNhzmgZDJTMi+8843M1922Uo1QgK/zh97DvwywWhPBKM9EYz2RDDaE8FoTwSjPRGM9kQw2hPBaE8Eoz0RjPZEMNoTwWhPBKM9EYz2xH9p9Pb2tlQqldRjYmLC3OMVfmHJ4uLiojo7O8uvMNWBgYHq/v6+bSk34+PjRjPH6uqqqXt/f68uLCzU1fsg1WgMxVgE7+zsGJEnJydGaFdXV3Vra8vUlRUNDg43OAgcrefw1YdEozFzY2Ojen19bWtqQRzmMwiPj4+2tlwQDGqm24+40b70Zy4dCCSqEcTZFcxAUE/klA3MUyMx3IVZmdb2m6QajVg3KjiIdGBt0zqWkLLBUqH64oHgLik+tacazdKAofHoQBzntGWlDOhsc81Eb6c2QshcOhQ3CjjKbDK4GYd7UI/BrNO+yWU0UaFiy7hUxHHNLQu5XlhGRkZsKRteArq7u81LwdzcnHx8fNiWek5PT2VwcNDcy/nm5sa2tMfl5aUtiUQRbEuNQeva2tq/l5rNzU3bkkzT+q3hmbibn26IcdjNde0m/WOapmUkutFqfsvzuS4ip3VnXzPrMOs6mtFAH3Q/SqIV/Q2N5sN4iIqnnAQD4HZMd35ExWGjJV1UdMN1Xyxaxd3w+Jy8uMYBfXE1urSiP3Pp2N3dlfX1dTk+PpYoOk3d19eXmZ60MdWUw8ND6evrs1ciQ0ND5vz29mbOLkdHR2a6Kf39/RJ1VF5eXmxNMnwuU3VxcdHW1HN+fm5LIsPDw7aUDc+lX729vbZGZHR0VCID7VUtrehPNJovXejQysqKRKMkU1NTMjMzY1tFpqenTdvS0pKtqQehzTA5OWlLjfn+/ralWtgjMEy5u7uzpebJO0hKI/2JRl9dXZkRwmSNnuXl5X9RHU0bidZkMwA++fn5MWd30BWiktnnQjC4m2MnSTQ6WlLk8/OzZor29PTI2dmZaXt4eJD5+XnbkszT05Mt5YNnNmJvb89kEgx6HAYdbfGj1WB4fX21pXw00p8rvcsDBjw/P9srkfv7e3PWtdplbGysRhipFethVhqpkclgM+hFohpdc29vb1PTw1b0M+qFwE7M4zS9I7VzsxCuSaGAe7hXswLq03Z4X5CtoAHtZBHxLKRd/YUZDXwgAhGByW5eGTeeTiCOe2lDfCdBq6aG9CGeQ7erv1Cjs0BUJ75jKIp29Xv5s9DBwYE5Z+W/ZaYI/eFfWZ4oLOsIZBOM9kQw2gsifwHZQEPglG1lsgAAAABJRU5ErkJggg==;" vertex="1" parent="1">
                    <mxGeometry x="1710" y="467.75" width="51.43" height="24" as="geometry"/>
                </mxCell>
                <mxCell id="126" value="&lt;b&gt;Dự đoán (Predict)&lt;/b&gt;" style="text;html=1;align=center;verticalAlign=middle;resizable=0;points=[];autosize=1;strokeColor=none;fillColor=none;" vertex="1" parent="1">
                    <mxGeometry x="1863" y="411" width="119" height="26" as="geometry"/>
                </mxCell>
                <mxCell id="127" value="&lt;span style=&quot;color: rgb(0, 0, 0); font-family: Helvetica; font-size: 12px; font-style: normal; font-variant-ligatures: normal; font-variant-caps: normal; letter-spacing: normal; orphans: 2; text-align: center; text-indent: 0px; text-transform: none; widows: 2; word-spacing: 0px; -webkit-text-stroke-width: 0px; background-color: rgb(251, 251, 251); text-decoration-thickness: initial; text-decoration-style: initial; text-decoration-color: initial; float: none; display: inline !important;&quot;&gt;&lt;b&gt;Ước tính (Estimate)&lt;/b&gt;&lt;/span&gt;" style="text;whiteSpace=wrap;html=1;" vertex="1" parent="1">
                    <mxGeometry x="2288.479397477775" y="404.90345501077593" width="123" height="36" as="geometry"/>
                </mxCell>
                <mxCell id="128" value="" style="shape=image;verticalLabelPosition=bottom;labelBackgroundColor=default;verticalAlign=top;aspect=fixed;imageAspect=0;image=data:image/png,iVBORw0KGgoAAAANSUhEUgAAADwAAAAkCAYAAADVeVmEAAAAAXNSR0IArs4c6QAAAARnQU1BAACxjwv8YQUAAAAJcEhZcwAADsMAAA7DAcdvqGQAAALWSURBVGhD7Zm/TipREMaH+wZIS0HAhmhiwZ+SggL1AYi+gi+ABJ4AQigsTCyoIaFG0IYCQmHUQIwVgVBRYQi8AHe/cQ53L7gLV8HLIr/kZL+ZPXvW2T1nzqzYJhr0g/glxx/DLuBtZxfwtrMLeNvZBbztmAacTqfJZrMZtkAgwH0sBUpLM/x+P0pPbhcXF+wbDAaTs7OzOb8VWBjw8fHxNLB8Pi/eyaRWq039aHgIVmDhGn54eBBF5PV6Rc0zGo1EbTamAXe7XRoOh6ztdjsdHR2xBuPxWNT7ObfbLdZmYxqw/u0Gg0FR71xdXYkiisfjojYf04BfXl5EEYXDYT62Wi06Pz+nu7s7trWERbFYjLUlkLX8IfoMrW/wIzMjcVkN0/94YK9VmHSzFIZTul6viyLS3qio/wcKnFUUOYYBNxoNUcQV1bpAECcnJ2LNg50C97+8vBTP1zAM+Pn5WRT9tR19Jwg2k8lQpVIhrQAS79cwDPj+/l4U0cHBgShzkMH39/enMyKZTHIeMHuDZmBvv76+JofDIR5j3t7e+D57e3v8oAqFAmv8PbAVHwaMaaYKDvD6+irKnJubG35Qj4+PPMbp6SmVSqXpFrZOstksPxyPx0O5XI4rv3a7TZ1Oh/r9vvTSQJbWM1sjq7bsFqSuV/1x1Cox1iCVSs2NPdvQZxbU9B/5Z5m9Hnaz2RRriY+HfwU3wz6tgG32NYXzCGYRywSsHrb6kIGtvXHWCsM1/FmQ7KLRqFhExWKRQqGQWOsFSw/JTa35crlMkUiEtWLlAWMNHx4eikW8np1OJycwJJbPgmt7vZ5Yf0BSvL29ZV2tVsnn87EGT09P5HK5OIFN6wp50ysBawVD6r+NMb2xhvXrSM+iKZ1IJHhaYlw0jAefAj71nY77aEmSNUA//Xlg6R/TsN2gCkQ2XmbrAiuf0t8Jth9M42WDBbufS7edXcDbzg8LmOg3d7ugye5+oKEAAAAASUVORK5CYII=;" vertex="1" parent="1">
                    <mxGeometry x="2098" y="481.75" width="27.08" height="16.25" as="geometry"/>
                </mxCell>
                <mxCell id="129" value="" style="shape=image;verticalLabelPosition=bottom;labelBackgroundColor=default;verticalAlign=top;aspect=fixed;imageAspect=0;image=data:image/png,iVBORw0KGgoAAAANSUhEUgAAAD4AAAAnCAYAAABXGPsXAAACUElEQVRoBe2XDY3DMAxGS2EYRmEcBmEYRmEMxmAMhmAIRmAExqAccnonfZVVpY53iqZLG0tVGufPz3bSdEgblWGj3KmDby3yPeI94hvxQE/1jQR6wgxH/Pl8puPxmIZhSPv9Pt3v92mSFl+K4AACejgc0u12S+M4psfjkU6nU9rtdul6vf7qWoN3wYG7XC7p9XpluXACzsAp7/c72+e/Kl1wGQ08Kc7DuwSHkA3o2QotSRHcQgseYB5SXbqWoLHVBSeVSWMgz+fzBMm+Bhpdq+KCWyhSWdGlZP+3LGFwIAVOtMmGluUjcNJe8N+ExslkWM0DNAw+P8yo1xAc6QHRpkPU6/epLSFwPM7iMgBj+X7XEA+cixIHKeL1+4sdRXAuJqQ411U8jgE81O2pz+Lc8nAOn0DadMWV8TkDo0ClfmSgbpiso88wNuRkERxvCxJwQBR56Sk1MQ5iMcah41MnnfpkDSikusaUwLUe/XA0QRKD5rDlIjiDBQawRFGljcVsG30YR9Slp24/fYwrPVrLlowp7XFlpPpRYktOFsFznSM6okvkJdS9P7kIEHNF+uFkslNCfemSVR0cD8vjRB2DvR+YCFAUnMwCVoITlpxeFZwDBhCluVKPus0CGRYFkgPnEPMI43T2tUROZW3ZNLXppUapX1TNRaQxRoej9LaUcVZn39kqzEE/Hrt1AOckR+ZOR8e6jM3dOapG3Br8jXf2r03tT9ZsFpxsWjq4Ig5oFjwC5/Xp4J531tjWI77GqHpMPeKed9bY1iO+xqh6TJuN+A/w6ubVx6i2QgAAAABJRU5ErkJggg==;" vertex="1" parent="1">
                    <mxGeometry x="2098.89" y="506.06" width="39.26" height="24.69" as="geometry"/>
                </mxCell>
            </root>
        </mxGraphModel>
    </diagram>
</mxfile>